M48
;DRILL file {KiCad 4.0.4-stable} date Friday, February 17, 2017 'PMt' 10:34:56 PM
;FORMAT={-:-/ absolute / inch / decimal}
FMAT,2
INCH,TZ
T1C0.015
T2C0.024
T3C0.035
T4C0.067
T5C0.125
%
G90
G05
M72
T1
X3.93Y-2.97
X4.02Y-3.41
X4.215Y-1.91
X4.245Y-3.59
X4.3Y-3.3
X4.3Y-3.45
X4.36Y-1.7425
X4.625Y-3.25
X4.725Y-1.865
X4.775Y-2.472
X4.88Y-3.505
X4.92Y-2.59
X4.92Y-3.83
X4.92Y-3.9
X4.9882Y-2.0665
X5.165Y-3.86
X5.17Y-2.03
X5.17Y-3.945
X5.18Y-2.66
X5.2Y-3.54
X5.21Y-2.32
X5.24Y-2.27
X5.305Y-3.86
X5.38Y-3.5
X5.55Y-3.57
X5.56Y-3.655
X5.569Y-2.414
X5.59Y-1.9
X5.59Y-3.525
X5.635Y-4.15
X5.725Y-3.605
X5.789Y-2.377
X5.85Y-3.68
X5.85Y-3.755
X5.87Y-3.42
X5.93Y-3.495
X5.945Y-2.32
T3
X4.25Y-3.97
X4.3Y-3.87
X4.35Y-3.97
X4.4Y-3.87
X4.45Y-3.97
X4.5Y-3.87
X4.55Y-3.97
X4.6Y-3.87
T4
X4.1199Y-4.0999
X4.7301Y-4.0999
T5
X3.935Y-1.935
X3.935Y-4.065
X6.065Y-1.935
X6.065Y-4.065
T2
X5.4383Y-4.2279G85X5.4383Y-4.1846
G05
X5.4383Y-4.3676G85X5.4383Y-4.3243
G05
X5.7217Y-4.2279G85X5.7217Y-4.1846
G05
X5.7217Y-4.3676G85X5.7217Y-4.3243
G05
T0
M30
