G04 #@! TF.FileFunction,Copper,L1,Top,Signal*
%FSLAX46Y46*%
G04 Gerber Fmt 4.6, Leading zero omitted, Abs format (unit mm)*
G04 Created by KiCad (PCBNEW 4.0.4-stable) date Friday, February 17, 2017 'PMt' 10:34:46 PM*
%MOMM*%
%LPD*%
G01*
G04 APERTURE LIST*
%ADD10C,0.100000*%
%ADD11R,1.498600X1.300480*%
%ADD12R,0.899160X1.000760*%
%ADD13R,1.500000X0.700000*%
%ADD14C,1.397000*%
%ADD15C,2.413000*%
%ADD16R,0.690000X0.990000*%
%ADD17R,1.550000X0.600000*%
%ADD18R,1.000760X0.899160*%
%ADD19R,0.450000X0.850000*%
%ADD20R,2.500000X1.600000*%
%ADD21R,0.700000X1.000000*%
%ADD22R,1.254000X0.312000*%
%ADD23O,2.500000X0.900000*%
%ADD24O,0.900000X2.500000*%
%ADD25R,6.000000X6.000000*%
%ADD26R,1.500000X0.600000*%
%ADD27R,0.500000X1.700000*%
%ADD28O,1.200000X2.300000*%
%ADD29C,5.080000*%
%ADD30C,0.635000*%
%ADD31C,0.203200*%
%ADD32C,0.508000*%
G04 APERTURE END LIST*
D10*
D11*
X110744000Y-46164500D03*
X110744000Y-44259500D03*
X126492000Y-101028500D03*
X126492000Y-99123500D03*
X126492000Y-95313500D03*
X126492000Y-97218500D03*
D12*
X98308160Y-81280000D03*
X99811840Y-81280000D03*
X98308160Y-91440000D03*
X99811840Y-91440000D03*
D13*
X97260000Y-60260000D03*
X97260000Y-61660000D03*
X100860000Y-61660000D03*
X100860000Y-60260000D03*
D14*
X107950000Y-100838000D03*
X109220000Y-98298000D03*
X110490000Y-100838000D03*
X111760000Y-98298000D03*
X113030000Y-100838000D03*
X114300000Y-98298000D03*
X115570000Y-100838000D03*
X116840000Y-98298000D03*
D15*
X120145000Y-104138000D03*
X104645000Y-104138000D03*
D16*
X146050000Y-64770000D03*
X147950000Y-64770000D03*
X147000000Y-62180000D03*
X151638000Y-64770000D03*
X153538000Y-64770000D03*
X152588000Y-62180000D03*
D17*
X132080000Y-88900000D03*
X132080000Y-87630000D03*
X132080000Y-86360000D03*
X132080000Y-85090000D03*
X126680000Y-85090000D03*
X126680000Y-86360000D03*
X126680000Y-87630000D03*
X126680000Y-88900000D03*
D18*
X99822000Y-78475840D03*
X99822000Y-76972160D03*
X99822000Y-85587840D03*
X99822000Y-84084160D03*
D12*
X103388160Y-57912000D03*
X104891840Y-57912000D03*
X103388160Y-59944000D03*
X104891840Y-59944000D03*
X103388160Y-61976000D03*
X104891840Y-61976000D03*
D18*
X110744000Y-54599840D03*
X110744000Y-53096160D03*
X110744000Y-48524160D03*
X110744000Y-50027840D03*
D12*
X149108160Y-67310000D03*
X150611840Y-67310000D03*
X150611840Y-69088000D03*
X149108160Y-69088000D03*
D18*
X152654000Y-57414160D03*
X152654000Y-58917840D03*
X147066000Y-57414160D03*
X147066000Y-58917840D03*
D12*
X103388160Y-84836000D03*
X104891840Y-84836000D03*
X104891840Y-86614000D03*
X103388160Y-86614000D03*
X136641840Y-85090000D03*
X135138160Y-85090000D03*
X135138160Y-87630000D03*
X136641840Y-87630000D03*
D18*
X118364000Y-85841840D03*
X118364000Y-84338160D03*
X120396000Y-85841840D03*
X120396000Y-84338160D03*
D19*
X107426000Y-50112000D03*
X106426000Y-50112000D03*
X105426000Y-50112000D03*
X105426000Y-53012000D03*
X106426000Y-53012000D03*
X107426000Y-53012000D03*
D20*
X106426000Y-51562000D03*
D21*
X130368000Y-99244000D03*
X131318000Y-99244000D03*
X132268000Y-99244000D03*
X132268000Y-96844000D03*
X130368000Y-96844000D03*
D22*
X139573000Y-88900000D03*
X139573000Y-89550000D03*
X139573000Y-90200000D03*
X139573000Y-90850000D03*
X139573000Y-91500000D03*
X139573000Y-92150000D03*
X139573000Y-92800000D03*
X139573000Y-93450000D03*
X139573000Y-94100000D03*
X139573000Y-94750000D03*
X139573000Y-95400000D03*
X139573000Y-96050000D03*
X139573000Y-96700000D03*
X139573000Y-97350000D03*
X147152400Y-97350000D03*
X147152400Y-96700000D03*
X147152400Y-96050000D03*
X147152400Y-95400000D03*
X147152400Y-94750000D03*
X147152400Y-94100000D03*
X147152400Y-93450000D03*
X147152400Y-92800000D03*
X147152400Y-91500000D03*
X147152400Y-92150000D03*
X147152400Y-90850000D03*
X147152400Y-90200000D03*
X147152400Y-89550000D03*
X147152400Y-88900000D03*
D23*
X136000000Y-44788000D03*
X136000000Y-46058000D03*
X136000000Y-47328000D03*
X136000000Y-48598000D03*
X136000000Y-49868000D03*
X136000000Y-51138000D03*
X136000000Y-52408000D03*
X136000000Y-53678000D03*
X136000000Y-54948000D03*
X136000000Y-56218000D03*
X136000000Y-57488000D03*
X136000000Y-58758000D03*
X136000000Y-60028000D03*
X136000000Y-61298000D03*
D24*
X132715000Y-62788000D03*
X131445000Y-62788000D03*
X130175000Y-62788000D03*
X128905000Y-62788000D03*
X127635000Y-62788000D03*
X126365000Y-62788000D03*
X125095000Y-62788000D03*
X123825000Y-62788000D03*
X122555000Y-62788000D03*
X121285000Y-62788000D03*
D23*
X118000000Y-61298000D03*
X118000000Y-60028000D03*
X118000000Y-58758000D03*
X118000000Y-57488000D03*
X118000000Y-56218000D03*
X118000000Y-54948000D03*
X118000000Y-53678000D03*
X118000000Y-52408000D03*
X118000000Y-51138000D03*
X118000000Y-49868000D03*
X118000000Y-48598000D03*
X118000000Y-47328000D03*
X118000000Y-46058000D03*
X118000000Y-44788000D03*
D25*
X126700000Y-52488000D03*
D26*
X107790000Y-82550000D03*
X107790000Y-83820000D03*
X107790000Y-85090000D03*
X107790000Y-86360000D03*
X107790000Y-87630000D03*
X107790000Y-88900000D03*
X107790000Y-90170000D03*
X113190000Y-90170000D03*
X113190000Y-88900000D03*
X113190000Y-87630000D03*
X113190000Y-86360000D03*
X113190000Y-85090000D03*
X113190000Y-83820000D03*
X113190000Y-82550000D03*
D27*
X141732000Y-107188000D03*
X141082000Y-107188000D03*
X142382000Y-107188000D03*
X140432000Y-107188000D03*
X143032000Y-107188000D03*
D28*
X138132000Y-106838000D03*
X145332000Y-106838000D03*
X138132000Y-110388000D03*
X145332000Y-110388000D03*
D29*
X154051000Y-103251000D03*
X154051000Y-49149000D03*
X99949000Y-49149000D03*
X99949000Y-103251000D03*
D12*
X98308160Y-71120000D03*
X99811840Y-71120000D03*
X103388160Y-71120000D03*
X104891840Y-71120000D03*
D30*
X131318000Y-100203000D03*
X143129000Y-105410000D03*
X148590000Y-95377000D03*
X148590000Y-93472000D03*
X145415000Y-91567000D03*
X141224000Y-92837000D03*
X136652000Y-88900000D03*
X132080000Y-89916000D03*
X124968000Y-99060000D03*
X124968000Y-97282000D03*
X107823000Y-91186000D03*
X102108000Y-86614000D03*
X99822000Y-75438000D03*
X107061000Y-48514000D03*
X110744000Y-44259500D03*
X121285000Y-62788000D03*
X126700000Y-52488000D03*
X134747000Y-98044000D03*
X131191000Y-98044000D03*
X123952000Y-89027000D03*
X117475000Y-82550000D03*
X149098000Y-86868000D03*
X141986000Y-89535000D03*
X147040600Y-60375800D03*
X141452600Y-61315600D03*
X150622000Y-88773000D03*
X140970000Y-90678000D03*
X151003000Y-58928000D03*
X120015000Y-47371000D03*
X131318000Y-51562000D03*
X124968000Y-65786000D03*
X131572000Y-67564000D03*
X141986000Y-48260000D03*
X133096000Y-57658000D03*
X109220000Y-87630000D03*
X132334000Y-58928000D03*
X109220000Y-83820000D03*
D31*
X136641840Y-85090000D02*
X137287000Y-85090000D01*
X137541000Y-91694000D02*
X133604000Y-95631000D01*
X137541000Y-85344000D02*
X137541000Y-91694000D01*
X137287000Y-85090000D02*
X137541000Y-85344000D01*
D32*
X132080000Y-86360000D02*
X130683000Y-86360000D01*
X133604000Y-99949000D02*
X134683500Y-101028500D01*
X133604000Y-95631000D02*
X133604000Y-99949000D01*
X130048000Y-92075000D02*
X133604000Y-95631000D01*
X130048000Y-86995000D02*
X130048000Y-92075000D01*
X130683000Y-86360000D02*
X130048000Y-86995000D01*
X130368000Y-99244000D02*
X130368000Y-100137000D01*
X130368000Y-100137000D02*
X129476500Y-101028500D01*
X132268000Y-99244000D02*
X132268000Y-100137000D01*
X132268000Y-100137000D02*
X133159500Y-101028500D01*
X140432000Y-107188000D02*
X140432000Y-103729000D01*
X137731500Y-101028500D02*
X134683500Y-101028500D01*
X134683500Y-101028500D02*
X133159500Y-101028500D01*
X133159500Y-101028500D02*
X129476500Y-101028500D01*
X129476500Y-101028500D02*
X126492000Y-101028500D01*
X140432000Y-103729000D02*
X137731500Y-101028500D01*
D31*
X147152400Y-94100000D02*
X145930000Y-94100000D01*
X140432000Y-99598000D02*
X140432000Y-107188000D01*
X145930000Y-94100000D02*
X140432000Y-99598000D01*
X131318000Y-99244000D02*
X131318000Y-100203000D01*
X143032000Y-107188000D02*
X143032000Y-105507000D01*
X143032000Y-105507000D02*
X143129000Y-105410000D01*
D32*
X143032000Y-107188000D02*
X144982000Y-107188000D01*
X144982000Y-107188000D02*
X145332000Y-106838000D01*
D31*
X147152400Y-95400000D02*
X148567000Y-95400000D01*
X148567000Y-95400000D02*
X148590000Y-95377000D01*
X147152400Y-93450000D02*
X148568000Y-93450000D01*
X148568000Y-93450000D02*
X148590000Y-93472000D01*
X147152400Y-90850000D02*
X146132000Y-90850000D01*
X146132000Y-90850000D02*
X145415000Y-91567000D01*
X147152400Y-90200000D02*
X147152400Y-90850000D01*
X139573000Y-92800000D02*
X141187000Y-92800000D01*
X141187000Y-92800000D02*
X141224000Y-92837000D01*
X136641840Y-87630000D02*
X136641840Y-88889840D01*
X136641840Y-88889840D02*
X136652000Y-88900000D01*
X132080000Y-88900000D02*
X132080000Y-89916000D01*
X126492000Y-99123500D02*
X126492000Y-97218500D01*
X126492000Y-99123500D02*
X125031500Y-99123500D01*
X125031500Y-99123500D02*
X124968000Y-99060000D01*
X126492000Y-97218500D02*
X125031500Y-97218500D01*
X125031500Y-97218500D02*
X124968000Y-97282000D01*
X107790000Y-90170000D02*
X107790000Y-91153000D01*
X107790000Y-91153000D02*
X107823000Y-91186000D01*
X107790000Y-88900000D02*
X107790000Y-90170000D01*
X103388160Y-86614000D02*
X102108000Y-86614000D01*
X99822000Y-76972160D02*
X99822000Y-75438000D01*
X106426000Y-50112000D02*
X106426000Y-49149000D01*
X106426000Y-49149000D02*
X107061000Y-48514000D01*
X126700000Y-52488000D02*
X121285000Y-57903000D01*
X121285000Y-62788000D02*
X121285000Y-57903000D01*
X118000000Y-44788000D02*
X111272500Y-44788000D01*
X111272500Y-44788000D02*
X110744000Y-44259500D01*
X118000000Y-44788000D02*
X119000000Y-44788000D01*
X119000000Y-44788000D02*
X126700000Y-52488000D01*
X136000000Y-44788000D02*
X134400000Y-44788000D01*
X134400000Y-44788000D02*
X126700000Y-52488000D01*
X139573000Y-90850000D02*
X138639000Y-90850000D01*
X138176000Y-94615000D02*
X134747000Y-98044000D01*
X138176000Y-91313000D02*
X138176000Y-94615000D01*
X138639000Y-90850000D02*
X138176000Y-91313000D01*
D32*
X152654000Y-57414160D02*
X147066000Y-57414160D01*
X147066000Y-57414160D02*
X145658840Y-57414160D01*
X145658840Y-57414160D02*
X144145000Y-58928000D01*
X144145000Y-58928000D02*
X144145000Y-94615000D01*
X144145000Y-94615000D02*
X140716000Y-98044000D01*
X140716000Y-98044000D02*
X134747000Y-98044000D01*
X131191000Y-98044000D02*
X130368000Y-97221000D01*
X130368000Y-97221000D02*
X130368000Y-96844000D01*
X126492000Y-95313500D02*
X127571500Y-95313500D01*
X129102000Y-96844000D02*
X130368000Y-96844000D01*
X127571500Y-95313500D02*
X129102000Y-96844000D01*
D31*
X113190000Y-82550000D02*
X117475000Y-82550000D01*
X126492000Y-91567000D02*
X126492000Y-95313500D01*
X123952000Y-89027000D02*
X126492000Y-91567000D01*
X98308160Y-81280000D02*
X98308160Y-84465160D01*
X98679000Y-84836000D02*
X103388160Y-84836000D01*
X98308160Y-84465160D02*
X98679000Y-84836000D01*
D32*
X106426000Y-53012000D02*
X106426000Y-53594000D01*
X106426000Y-53594000D02*
X105420160Y-54599840D01*
X110744000Y-54599840D02*
X105420160Y-54599840D01*
X105420160Y-54599840D02*
X99070160Y-54599840D01*
X110744000Y-48524160D02*
X110744000Y-46164500D01*
X97260000Y-61660000D02*
X96582000Y-61660000D01*
X96582000Y-61660000D02*
X95758000Y-62484000D01*
X98308160Y-71120000D02*
X97028000Y-71120000D01*
X97028000Y-71120000D02*
X95758000Y-72390000D01*
X98308160Y-81280000D02*
X96774000Y-81280000D01*
X96774000Y-81280000D02*
X95758000Y-82296000D01*
X98308160Y-91440000D02*
X98308160Y-94244160D01*
X110744000Y-46164500D02*
X107505500Y-46164500D01*
X125158500Y-95313500D02*
X126492000Y-95313500D01*
X116840000Y-103632000D02*
X125158500Y-95313500D01*
X107696000Y-103632000D02*
X116840000Y-103632000D01*
X95758000Y-91694000D02*
X98308160Y-94244160D01*
X98308160Y-94244160D02*
X107696000Y-103632000D01*
X95758000Y-57912000D02*
X95758000Y-62484000D01*
X95758000Y-62484000D02*
X95758000Y-72390000D01*
X95758000Y-72390000D02*
X95758000Y-82296000D01*
X95758000Y-82296000D02*
X95758000Y-91694000D01*
X107505500Y-46164500D02*
X99070160Y-54599840D01*
X99070160Y-54599840D02*
X95758000Y-57912000D01*
X118000000Y-46058000D02*
X110850500Y-46058000D01*
X110850500Y-46058000D02*
X110744000Y-46164500D01*
D31*
X99811840Y-81280000D02*
X99811840Y-78486000D01*
X99811840Y-78486000D02*
X99822000Y-78475840D01*
X99811840Y-91440000D02*
X99811840Y-85598000D01*
X99811840Y-85598000D02*
X99822000Y-85587840D01*
X99811840Y-85852000D02*
X99822000Y-85841840D01*
X97260000Y-60260000D02*
X97260000Y-59204000D01*
X98552000Y-57912000D02*
X103388160Y-57912000D01*
X97260000Y-59204000D02*
X98552000Y-57912000D01*
X100860000Y-61660000D02*
X102046000Y-61660000D01*
X102362000Y-61976000D02*
X103388160Y-61976000D01*
X102046000Y-61660000D02*
X102362000Y-61976000D01*
X100860000Y-60260000D02*
X102046000Y-60260000D01*
X102362000Y-59944000D02*
X103388160Y-59944000D01*
X102046000Y-60260000D02*
X102362000Y-59944000D01*
X147152400Y-96700000D02*
X144219000Y-96700000D01*
X141082000Y-99837000D02*
X141082000Y-107188000D01*
X144219000Y-96700000D02*
X141082000Y-99837000D01*
X147152400Y-97350000D02*
X144458000Y-97350000D01*
X141732000Y-100076000D02*
X141732000Y-107188000D01*
X144458000Y-97350000D02*
X141732000Y-100076000D01*
D32*
X126680000Y-85090000D02*
X126680000Y-86360000D01*
X107950000Y-100838000D02*
X109474000Y-102362000D01*
X123825000Y-86360000D02*
X126680000Y-86360000D01*
X122555000Y-87630000D02*
X123825000Y-86360000D01*
X122555000Y-96139000D02*
X122555000Y-87630000D01*
X116332000Y-102362000D02*
X122555000Y-96139000D01*
X109474000Y-102362000D02*
X116332000Y-102362000D01*
D31*
X113190000Y-85090000D02*
X111887000Y-85090000D01*
X110490000Y-86487000D02*
X110490000Y-100838000D01*
X111887000Y-85090000D02*
X110490000Y-86487000D01*
X113190000Y-87630000D02*
X112141000Y-87630000D01*
X111760000Y-88011000D02*
X111760000Y-98298000D01*
X112141000Y-87630000D02*
X111760000Y-88011000D01*
X113190000Y-88900000D02*
X114046000Y-88900000D01*
X113030000Y-92456000D02*
X113030000Y-100838000D01*
X114427000Y-91059000D02*
X113030000Y-92456000D01*
X114427000Y-89281000D02*
X114427000Y-91059000D01*
X114046000Y-88900000D02*
X114427000Y-89281000D01*
X113190000Y-86360000D02*
X114300000Y-86360000D01*
X114300000Y-92583000D02*
X114300000Y-98298000D01*
X114935000Y-91948000D02*
X114300000Y-92583000D01*
X114935000Y-86995000D02*
X114935000Y-91948000D01*
X114300000Y-86360000D02*
X114935000Y-86995000D01*
X115570000Y-100838000D02*
X115570000Y-97409000D01*
X118364000Y-94615000D02*
X118364000Y-85841840D01*
X115570000Y-97409000D02*
X118364000Y-94615000D01*
X116840000Y-98298000D02*
X120396000Y-94742000D01*
X120396000Y-94742000D02*
X120396000Y-85841840D01*
X149108160Y-69088000D02*
X147828000Y-69088000D01*
X146050000Y-67310000D02*
X146050000Y-64770000D01*
X147828000Y-69088000D02*
X146050000Y-67310000D01*
X139573000Y-89550000D02*
X141971000Y-89550000D01*
X149860000Y-68061840D02*
X149108160Y-67310000D01*
X149860000Y-69850000D02*
X149860000Y-68061840D01*
X149098000Y-70612000D02*
X149860000Y-69850000D01*
X149098000Y-86868000D02*
X149098000Y-70612000D01*
X141971000Y-89550000D02*
X141986000Y-89535000D01*
X149108160Y-67310000D02*
X148336000Y-67310000D01*
X147950000Y-66924000D02*
X147950000Y-64770000D01*
X148336000Y-67310000D02*
X147950000Y-66924000D01*
X136000000Y-61298000D02*
X141435000Y-61298000D01*
X147040600Y-60375800D02*
X147040600Y-62139400D01*
X141435000Y-61298000D02*
X141452600Y-61315600D01*
X147040600Y-62139400D02*
X147000000Y-62180000D01*
X147066000Y-58917840D02*
X147066000Y-62114000D01*
X147066000Y-62114000D02*
X147000000Y-62180000D01*
X150611840Y-67310000D02*
X151257000Y-67310000D01*
X151638000Y-66929000D02*
X151638000Y-64770000D01*
X151257000Y-67310000D02*
X151638000Y-66929000D01*
X139573000Y-90200000D02*
X140492000Y-90200000D01*
X150622000Y-88773000D02*
X150622000Y-69098160D01*
X140492000Y-90200000D02*
X140970000Y-90678000D01*
X150622000Y-69098160D02*
X150611840Y-69088000D01*
X150611840Y-69088000D02*
X151765000Y-69088000D01*
X153538000Y-67315000D02*
X153538000Y-64770000D01*
X151765000Y-69088000D02*
X153538000Y-67315000D01*
X118000000Y-47328000D02*
X119972000Y-47328000D01*
X151013160Y-58917840D02*
X152654000Y-58917840D01*
X151003000Y-58928000D02*
X151013160Y-58917840D01*
X119972000Y-47328000D02*
X120015000Y-47371000D01*
X152654000Y-58917840D02*
X152654000Y-62114000D01*
X152654000Y-62114000D02*
X152588000Y-62180000D01*
X132715000Y-62788000D02*
X132715000Y-74930000D01*
X135890000Y-86878160D02*
X135138160Y-87630000D01*
X135890000Y-78105000D02*
X135890000Y-86878160D01*
X132715000Y-74930000D02*
X135890000Y-78105000D01*
X132080000Y-87630000D02*
X135138160Y-87630000D01*
X132080000Y-85090000D02*
X135138160Y-85090000D01*
X126680000Y-87630000D02*
X127889000Y-87630000D01*
X130429000Y-85090000D02*
X132080000Y-85090000D01*
X127889000Y-87630000D02*
X130429000Y-85090000D01*
X126680000Y-88900000D02*
X126680000Y-87630000D01*
X99822000Y-84084160D02*
X99822000Y-83312000D01*
X114724000Y-60028000D02*
X118000000Y-60028000D01*
X108839000Y-65913000D02*
X114724000Y-60028000D01*
X108839000Y-74295000D02*
X108839000Y-65913000D01*
X99822000Y-83312000D02*
X108839000Y-74295000D01*
X104891840Y-57912000D02*
X109474000Y-57912000D01*
X113708000Y-53678000D02*
X118000000Y-53678000D01*
X109474000Y-57912000D02*
X113708000Y-53678000D01*
X104891840Y-59944000D02*
X109220000Y-59944000D01*
X114216000Y-54948000D02*
X118000000Y-54948000D01*
X109220000Y-59944000D02*
X114216000Y-54948000D01*
X104891840Y-61976000D02*
X109093000Y-61976000D01*
X114851000Y-56218000D02*
X118000000Y-56218000D01*
X109093000Y-61976000D02*
X114851000Y-56218000D01*
X107426000Y-53012000D02*
X110659840Y-53012000D01*
X110659840Y-53012000D02*
X110744000Y-53096160D01*
X110744000Y-53096160D02*
X111749840Y-53096160D01*
X112438000Y-52408000D02*
X118000000Y-52408000D01*
X111749840Y-53096160D02*
X112438000Y-52408000D01*
X110744000Y-50027840D02*
X111749840Y-50027840D01*
X112860000Y-51138000D02*
X118000000Y-51138000D01*
X111749840Y-50027840D02*
X112860000Y-51138000D01*
X107426000Y-50112000D02*
X110659840Y-50112000D01*
X110659840Y-50112000D02*
X110744000Y-50027840D01*
X107790000Y-85090000D02*
X108966000Y-85090000D01*
X115232000Y-61298000D02*
X118000000Y-61298000D01*
X110236000Y-66294000D02*
X115232000Y-61298000D01*
X110236000Y-83820000D02*
X110236000Y-66294000D01*
X108966000Y-85090000D02*
X110236000Y-83820000D01*
X107790000Y-85090000D02*
X105145840Y-85090000D01*
X105145840Y-85090000D02*
X104891840Y-84836000D01*
X107790000Y-86360000D02*
X108712000Y-86360000D01*
X122555000Y-65151000D02*
X122555000Y-62788000D01*
X110998000Y-76708000D02*
X122555000Y-65151000D01*
X110998000Y-84074000D02*
X110998000Y-76708000D01*
X108712000Y-86360000D02*
X110998000Y-84074000D01*
X107790000Y-86360000D02*
X105145840Y-86360000D01*
X105145840Y-86360000D02*
X104891840Y-86614000D01*
X118364000Y-84338160D02*
X118364000Y-72390000D01*
X131742000Y-51138000D02*
X136000000Y-51138000D01*
X131318000Y-51562000D02*
X131742000Y-51138000D01*
X118364000Y-72390000D02*
X124968000Y-65786000D01*
X136000000Y-47328000D02*
X141054000Y-47328000D01*
X120396000Y-78740000D02*
X120396000Y-84338160D01*
X131572000Y-67564000D02*
X120396000Y-78740000D01*
X141054000Y-47328000D02*
X141986000Y-48260000D01*
X136000000Y-49868000D02*
X140927000Y-49868000D01*
X141351000Y-88900000D02*
X139573000Y-88900000D01*
X142240000Y-88011000D02*
X141351000Y-88900000D01*
X142240000Y-51181000D02*
X142240000Y-88011000D01*
X140927000Y-49868000D02*
X142240000Y-51181000D01*
X136000000Y-48598000D02*
X140800000Y-48598000D01*
X141291000Y-91500000D02*
X139573000Y-91500000D01*
X143002000Y-89789000D02*
X141291000Y-91500000D01*
X143002000Y-50800000D02*
X143002000Y-89789000D01*
X140800000Y-48598000D02*
X143002000Y-50800000D01*
X107790000Y-87630000D02*
X109220000Y-87630000D01*
X133266000Y-57488000D02*
X136000000Y-57488000D01*
X133096000Y-57658000D02*
X133266000Y-57488000D01*
X107790000Y-83820000D02*
X109220000Y-83820000D01*
X132504000Y-58758000D02*
X136000000Y-58758000D01*
X132334000Y-58928000D02*
X132504000Y-58758000D01*
X99811840Y-71120000D02*
X103388160Y-71120000D01*
X118000000Y-58758000D02*
X114470000Y-58758000D01*
X104902000Y-68326000D02*
X104902000Y-71109840D01*
X114470000Y-58758000D02*
X104902000Y-68326000D01*
X104902000Y-71109840D02*
X104891840Y-71120000D01*
M02*
