G04 #@! TF.FileFunction,Soldermask,Top*
%FSLAX46Y46*%
G04 Gerber Fmt 4.6, Leading zero omitted, Abs format (unit mm)*
G04 Created by KiCad (PCBNEW 4.0.4-stable) date Sunday, April 30, 2017 'PMt' 09:47:11 PM*
%MOMM*%
%LPD*%
G01*
G04 APERTURE LIST*
%ADD10C,0.100000*%
%ADD11R,1.700480X1.898600*%
%ADD12R,1.898600X1.700480*%
%ADD13C,1.797000*%
%ADD14C,3.600000*%
%ADD15C,2.813000*%
%ADD16R,1.090000X1.390000*%
%ADD17R,1.299160X1.400760*%
%ADD18R,1.400760X1.299160*%
%ADD19R,0.850000X1.250000*%
%ADD20R,2.900000X2.000000*%
%ADD21R,1.400000X1.100000*%
%ADD22R,0.712000X1.654000*%
%ADD23O,2.900000X1.300000*%
%ADD24O,1.300000X2.900000*%
%ADD25R,6.400000X6.400000*%
%ADD26R,1.000000X1.900000*%
%ADD27O,1.600000X2.700000*%
%ADD28C,5.480000*%
%ADD29R,1.100000X1.900000*%
%ADD30C,1.187400*%
%ADD31C,1.390600*%
%ADD32C,2.774900*%
%ADD33R,1.416000X1.416000*%
%ADD34C,1.416000*%
%ADD35R,1.200000X0.800000*%
%ADD36R,1.150000X1.100000*%
%ADD37R,0.900000X2.900000*%
%ADD38R,2.900000X0.900000*%
%ADD39R,1.000000X1.950000*%
%ADD40C,1.060400*%
G04 APERTURE END LIST*
D10*
D11*
X107886500Y-51054000D03*
X105981500Y-51054000D03*
D12*
X132715000Y-110934500D03*
X132715000Y-112839500D03*
X130429000Y-110934500D03*
X130429000Y-112839500D03*
D13*
X116967000Y-100838000D03*
X115697000Y-98298000D03*
X114427000Y-100838000D03*
X113157000Y-98298000D03*
X111887000Y-100838000D03*
X110617000Y-98298000D03*
X109347000Y-100838000D03*
X108077000Y-98298000D03*
D14*
X106807000Y-107188000D03*
X118237000Y-107188000D03*
D15*
X104772000Y-104138000D03*
X120272000Y-104138000D03*
D16*
X134112000Y-87884000D03*
X136012000Y-87884000D03*
X135062000Y-85294000D03*
X140970000Y-87884000D03*
X142870000Y-87884000D03*
X141920000Y-85294000D03*
D17*
X106182160Y-65405000D03*
X107685840Y-65405000D03*
X106182160Y-63881000D03*
X107685840Y-63881000D03*
X106182160Y-60833000D03*
X107685840Y-60833000D03*
X106182160Y-62357000D03*
X107685840Y-62357000D03*
X106182160Y-59309000D03*
X107685840Y-59309000D03*
X106182160Y-56261000D03*
X107685840Y-56261000D03*
X106182160Y-57785000D03*
X107685840Y-57785000D03*
X137678160Y-87884000D03*
X139181840Y-87884000D03*
X139181840Y-86360000D03*
X137678160Y-86360000D03*
X149341840Y-56134000D03*
X147838160Y-56134000D03*
X149341840Y-57658000D03*
X147838160Y-57658000D03*
X95260160Y-90424000D03*
X96763840Y-90424000D03*
X95260160Y-91948000D03*
X96763840Y-91948000D03*
D18*
X117983000Y-84825840D03*
X117983000Y-83322160D03*
X119761000Y-84825840D03*
X119761000Y-83322160D03*
X111125000Y-84825840D03*
X111125000Y-83322160D03*
X107823000Y-84825840D03*
X107823000Y-83322160D03*
D19*
X98949000Y-97716000D03*
X99949000Y-97716000D03*
X100949000Y-97716000D03*
X100949000Y-94816000D03*
X99949000Y-94816000D03*
X98949000Y-94816000D03*
D20*
X99949000Y-96266000D03*
D21*
X132772000Y-108646000D03*
X132772000Y-107696000D03*
X132772000Y-106746000D03*
X130372000Y-106746000D03*
X130372000Y-108646000D03*
D22*
X143256000Y-93345000D03*
X142606000Y-93345000D03*
X141956000Y-93345000D03*
X141306000Y-93345000D03*
X140656000Y-93345000D03*
X140006000Y-93345000D03*
X139356000Y-93345000D03*
X138706000Y-93345000D03*
X138056000Y-93345000D03*
X137406000Y-93345000D03*
X136756000Y-93345000D03*
X136106000Y-93345000D03*
X135456000Y-93345000D03*
X134806000Y-93345000D03*
X134806000Y-100924400D03*
X135456000Y-100924400D03*
X136106000Y-100924400D03*
X136756000Y-100924400D03*
X137406000Y-100924400D03*
X138056000Y-100924400D03*
X138706000Y-100924400D03*
X139356000Y-100924400D03*
X140656000Y-100924400D03*
X140006000Y-100924400D03*
X141306000Y-100924400D03*
X141956000Y-100924400D03*
X142606000Y-100924400D03*
X143256000Y-100924400D03*
D23*
X136000000Y-49868000D03*
X136000000Y-51138000D03*
X136000000Y-52408000D03*
X136000000Y-53678000D03*
X136000000Y-54948000D03*
X136000000Y-56218000D03*
X136000000Y-57488000D03*
X136000000Y-58758000D03*
X136000000Y-60028000D03*
X136000000Y-61298000D03*
X136000000Y-62568000D03*
X136000000Y-63838000D03*
X136000000Y-65108000D03*
X136000000Y-66378000D03*
D24*
X132715000Y-67868000D03*
X131445000Y-67868000D03*
X130175000Y-67868000D03*
X128905000Y-67868000D03*
X127635000Y-67868000D03*
X126365000Y-67868000D03*
X125095000Y-67868000D03*
X123825000Y-67868000D03*
X122555000Y-67868000D03*
X121285000Y-67868000D03*
D23*
X118000000Y-66378000D03*
X118000000Y-65108000D03*
X118000000Y-63838000D03*
X118000000Y-62568000D03*
X118000000Y-61298000D03*
X118000000Y-60028000D03*
X118000000Y-58758000D03*
X118000000Y-57488000D03*
X118000000Y-56218000D03*
X118000000Y-54948000D03*
X118000000Y-53678000D03*
X118000000Y-52408000D03*
X118000000Y-51138000D03*
X118000000Y-49868000D03*
D25*
X127000000Y-57568000D03*
D26*
X114554000Y-87978000D03*
X113284000Y-87978000D03*
X112014000Y-87978000D03*
X110744000Y-87978000D03*
X109474000Y-87978000D03*
X108204000Y-87978000D03*
X106934000Y-87978000D03*
X106934000Y-93378000D03*
X108204000Y-93378000D03*
X109474000Y-93378000D03*
X110744000Y-93378000D03*
X112014000Y-93378000D03*
X113284000Y-93378000D03*
X114554000Y-93378000D03*
D27*
X145332000Y-106838000D03*
X138132000Y-106838000D03*
X145332000Y-110388000D03*
X138132000Y-110388000D03*
D28*
X154051000Y-103251000D03*
X154051000Y-49149000D03*
X99949000Y-49149000D03*
X99949000Y-103251000D03*
D17*
X152643840Y-65278000D03*
X151140160Y-65278000D03*
X151140160Y-63500000D03*
X152643840Y-63500000D03*
D29*
X99249000Y-72894600D03*
X100649000Y-72894600D03*
X100649000Y-69294600D03*
X99249000Y-69294600D03*
X99249000Y-62760000D03*
X100649000Y-62760000D03*
X100649000Y-59160000D03*
X99249000Y-59160000D03*
D30*
X143510000Y-52197000D03*
X143510000Y-50927000D03*
X144780000Y-52197000D03*
X144780000Y-50927000D03*
X146050000Y-52197000D03*
X146050000Y-50927000D03*
D31*
X142240000Y-51562000D03*
X147320000Y-50546000D03*
X147320000Y-52578000D03*
D32*
X142240000Y-49022000D03*
X145415000Y-49022000D03*
X142240000Y-54102000D03*
X145415000Y-54102000D03*
D33*
X151765000Y-88900000D03*
D34*
X150495000Y-88900000D03*
X151765000Y-90170000D03*
X150495000Y-90170000D03*
X151765000Y-91440000D03*
X150495000Y-91440000D03*
X151765000Y-92710000D03*
X150495000Y-92710000D03*
X151765000Y-93980000D03*
X150495000Y-93980000D03*
D18*
X144780000Y-76972160D03*
X144780000Y-78475840D03*
X146304000Y-76972160D03*
X146304000Y-78475840D03*
D35*
X97699000Y-79530000D03*
X102199000Y-79530000D03*
X97699000Y-83030000D03*
X102199000Y-83030000D03*
D36*
X100624000Y-91989200D03*
X100624000Y-90789200D03*
X99274000Y-90789200D03*
X99274000Y-91989200D03*
D37*
X161806000Y-69500000D03*
X160906000Y-69500000D03*
X160006000Y-69500000D03*
X159106000Y-69500000D03*
X158206000Y-69500000D03*
X157306000Y-69500000D03*
X156406000Y-69500000D03*
X155506000Y-69500000D03*
X154606000Y-69500000D03*
X153706000Y-69500000D03*
X152806000Y-69500000D03*
X151906000Y-69500000D03*
D38*
X150106000Y-71250000D03*
X150106000Y-72150000D03*
X150106000Y-73050000D03*
X150106000Y-73950000D03*
X150106000Y-74850000D03*
X150106000Y-75750000D03*
X150106000Y-76650000D03*
X150106000Y-77550000D03*
X150106000Y-78450000D03*
X150106000Y-79350000D03*
X150106000Y-80250000D03*
X150106000Y-81150000D03*
D37*
X151906000Y-82900000D03*
X152806000Y-82900000D03*
X153706000Y-82900000D03*
X154606000Y-82900000D03*
X155506000Y-82900000D03*
X156406000Y-82900000D03*
X157306000Y-82900000D03*
X158206000Y-82900000D03*
X159106000Y-82900000D03*
X160006000Y-82900000D03*
X160906000Y-82900000D03*
X161806000Y-82900000D03*
D39*
X121539000Y-87978000D03*
X120269000Y-87978000D03*
X118999000Y-87978000D03*
X117729000Y-87978000D03*
X117729000Y-93378000D03*
X118999000Y-93378000D03*
X120269000Y-93378000D03*
X121539000Y-93378000D03*
D18*
X109474000Y-83322160D03*
X109474000Y-84825840D03*
D17*
X151140160Y-61976000D03*
X152643840Y-61976000D03*
D40*
X101981000Y-58928000D03*
X97917000Y-62992000D03*
X101854000Y-69088000D03*
X97790000Y-73152000D03*
X101981000Y-89281000D03*
X97917000Y-93345000D03*
M02*
