M48
;DRILL file {KiCad 4.0.4-stable} date Sunday, April 30, 2017 'PMt' 09:47:18 PM
;FORMAT={-:-/ absolute / inch / decimal}
FMAT,2
INCH,TZ
T1C0.015
T2C0.024
T3C0.026
T4C0.035
T5C0.067
T6C0.125
%
G90
G05
M72
T1
X3.86Y-3.5744
X3.86Y-3.6216
X3.935Y-3.915
X3.96Y-3.52
X4.025Y-3.315
X4.04Y-3.575
X4.1Y-3.55
X4.115Y-2.01
X4.14Y-3.425
X4.245Y-3.385
X4.335Y-3.755
X4.335Y-3.79
X4.345Y-3.375
X4.42Y-3.4
X4.565Y-1.965
X4.635Y-3.52
X4.645Y-2.75
X4.7Y-3.52
X4.71Y-2.75
X4.735Y-2.465
X4.735Y-3.23
X4.735Y-3.62
X4.745Y-2.75
X4.755Y-2.495
X4.78Y-2.52
X4.78Y-2.75
X4.785Y-3.405
X4.79Y-3.61
X4.855Y-2.265
X4.875Y-2.55
X4.875Y-2.6
X5.Y-2.065
X5.Y-2.12
X5.Y-2.41
X5.075Y-4.445
X5.145Y-2.265
X5.18Y-4.24
X5.285Y-4.445
X5.385Y-3.92
X5.435Y-1.965
X5.46Y-3.92
X5.465Y-2.015
X5.485Y-3.73
X5.5Y-4.315
X5.515Y-2.115
X5.535Y-3.605
X5.54Y-2.065
X5.54Y-3.345
X5.545Y-1.99
X5.58Y-2.645
X5.58Y-2.68
X5.58Y-4.145
X5.59Y-3.46
X5.59Y-3.625
X5.59Y-3.92
X5.6Y-2.27
X5.6Y-2.31
X5.6Y-2.36
X5.6Y-2.46
X5.6Y-2.51
X5.6Y-2.56
X5.6Y-2.61
X5.605Y-4.12
X5.615Y-3.505
X5.615Y-3.6
X5.62Y-2.245
X5.63Y-4.095
X5.64Y-2.22
X5.665Y-2.195
X5.665Y-3.45
X5.665Y-3.565
X5.69Y-2.22
X5.69Y-2.31
X5.715Y-2.27
X5.73Y-2.61
X5.73Y-2.645
X5.73Y-2.68
X5.755Y-2.36
X5.755Y-2.46
X5.755Y-2.51
X5.78Y-2.56
X5.79Y-3.145
X5.8Y-2.805
X5.815Y-1.925
X5.83Y-2.84
X5.83Y-2.91
X5.83Y-3.125
X5.845Y-2.33
X5.85Y-3.265
X5.87Y-3.44
X5.885Y-3.74
X5.905Y-2.5
X5.905Y-2.7
X5.925Y-3.265
X5.98Y-2.27
X5.99Y-3.09
X6.02Y-3.055
X6.03Y-3.785
X6.055Y-2.975
X6.09Y-3.67
X6.105Y-2.33
X6.23Y-3.67
X6.365Y-2.33
X6.365Y-2.44
X6.365Y-2.55
X6.365Y-2.66
X6.365Y-3.34
X6.365Y-3.45
X6.365Y-3.56
X6.365Y-3.67
T3
X5.925Y-3.5
X5.925Y-3.55
X5.925Y-3.6
X5.925Y-3.65
X5.925Y-3.7
X5.975Y-3.5
X5.975Y-3.55
X5.975Y-3.6
X5.975Y-3.65
X5.975Y-3.7
T4
X4.255Y-3.87
X4.305Y-3.97
X4.355Y-3.87
X4.405Y-3.97
X4.455Y-3.87
X4.505Y-3.97
X4.555Y-3.87
X4.605Y-3.97
T5
X4.1249Y-4.0999
X4.7351Y-4.0999
T6
X3.935Y-1.935
X3.935Y-4.065
X6.065Y-1.935
X6.065Y-4.065
T2
X5.4383Y-4.1846G85X5.4383Y-4.2279
G05
X5.4383Y-4.3243G85X5.4383Y-4.3676
G05
X5.7217Y-4.1846G85X5.7217Y-4.2279
G05
X5.7217Y-4.3243G85X5.7217Y-4.3676
G05
T0
M30
