G04 #@! TF.FileFunction,Copper,L2,Bot,Signal*
%FSLAX46Y46*%
G04 Gerber Fmt 4.6, Leading zero omitted, Abs format (unit mm)*
G04 Created by KiCad (PCBNEW 4.0.4-stable) date Sunday, April 30, 2017 'PMt' 09:47:11 PM*
%MOMM*%
%LPD*%
G01*
G04 APERTURE LIST*
%ADD10C,0.100000*%
%ADD11C,1.397000*%
%ADD12C,2.413000*%
%ADD13R,0.500000X1.700000*%
%ADD14O,1.200000X2.300000*%
%ADD15C,5.080000*%
%ADD16R,1.016000X1.016000*%
%ADD17C,1.016000*%
%ADD18C,0.635000*%
%ADD19C,0.508000*%
%ADD20C,0.203200*%
G04 APERTURE END LIST*
D10*
D11*
X116967000Y-100838000D03*
X115697000Y-98298000D03*
X114427000Y-100838000D03*
X113157000Y-98298000D03*
X111887000Y-100838000D03*
X110617000Y-98298000D03*
X109347000Y-100838000D03*
X108077000Y-98298000D03*
D12*
X104772000Y-104138000D03*
X120272000Y-104138000D03*
D13*
X141732000Y-107188000D03*
X142382000Y-107188000D03*
X141082000Y-107188000D03*
X143032000Y-107188000D03*
X140432000Y-107188000D03*
D14*
X145332000Y-106838000D03*
X138132000Y-106838000D03*
X145332000Y-110388000D03*
X138132000Y-110388000D03*
D15*
X154051000Y-103251000D03*
X154051000Y-49149000D03*
X99949000Y-49149000D03*
X99949000Y-103251000D03*
D16*
X151765000Y-88900000D03*
D17*
X150495000Y-88900000D03*
X151765000Y-90170000D03*
X150495000Y-90170000D03*
X151765000Y-91440000D03*
X150495000Y-91440000D03*
X151765000Y-92710000D03*
X150495000Y-92710000D03*
X151765000Y-93980000D03*
X150495000Y-93980000D03*
D18*
X121666000Y-91694000D03*
X119380000Y-89408000D03*
X143002000Y-104013000D03*
X139700000Y-109601000D03*
X127000000Y-61214000D03*
X127000000Y-53848000D03*
X130683000Y-57531000D03*
X123317000Y-57531000D03*
X138049000Y-49911000D03*
X147701000Y-48895000D03*
X154686000Y-93218000D03*
X161671000Y-93218000D03*
X158242000Y-93218000D03*
X148463000Y-59182000D03*
X161671000Y-59182000D03*
X155067000Y-59182000D03*
X161671000Y-61976000D03*
X161671000Y-67564000D03*
X161671000Y-64770000D03*
X161671000Y-87630000D03*
X161671000Y-90424000D03*
X161671000Y-84836000D03*
X148082000Y-72136000D03*
X148082000Y-73914000D03*
X148082000Y-79375000D03*
X139319000Y-94742000D03*
X141986000Y-99568000D03*
X138684000Y-99568000D03*
X136779000Y-99568000D03*
X131572000Y-107696000D03*
X128905000Y-112903000D03*
X134239000Y-112903000D03*
X117983000Y-69850000D03*
X120269000Y-82042000D03*
X121539000Y-86487000D03*
X112268000Y-86360000D03*
X105156000Y-86995000D03*
X99949000Y-99441000D03*
X100584000Y-89408000D03*
X102235000Y-84201000D03*
X115951000Y-49911000D03*
X104521000Y-51054000D03*
X153162000Y-96139000D03*
X149987000Y-68580000D03*
X149987000Y-63500000D03*
X147320000Y-71247000D03*
X147066000Y-79883000D03*
X151892000Y-57658000D03*
X138811000Y-51181000D03*
X140843000Y-50546000D03*
X142367000Y-104648000D03*
X141732000Y-105283000D03*
X110109000Y-95377000D03*
X110109000Y-96266000D03*
X110363000Y-85725000D03*
X107823000Y-85979000D03*
X142621000Y-91440000D03*
X142621000Y-89027000D03*
X142240000Y-66294000D03*
X145542000Y-66294000D03*
X141986000Y-92075000D03*
X141986000Y-87884000D03*
X143256000Y-56388000D03*
X144526000Y-56388000D03*
X127000000Y-52451000D03*
X140716000Y-52451000D03*
X121412000Y-64008000D03*
X121412000Y-69850000D03*
X142240000Y-65024000D03*
X146812000Y-65024000D03*
X120269000Y-91948000D03*
X117729000Y-89408000D03*
X145542000Y-67183000D03*
X141732000Y-67183000D03*
X141732000Y-68072000D03*
X145542000Y-68072000D03*
X123825000Y-66040000D03*
X123825000Y-64770000D03*
X143891000Y-55753000D03*
X143891000Y-87630000D03*
X143891000Y-90551000D03*
X140716000Y-84963000D03*
X140589000Y-91567000D03*
X142748000Y-57023000D03*
X140081000Y-53721000D03*
X120523000Y-69850000D03*
X120777000Y-63373000D03*
X146177000Y-63754000D03*
X142240000Y-63754000D03*
X142240000Y-62484000D03*
X146177000Y-62484000D03*
X119634000Y-69850000D03*
X120269000Y-62611000D03*
X152908000Y-77597000D03*
X152146000Y-78486000D03*
X149098000Y-87376000D03*
X149479000Y-94996000D03*
X153797000Y-75565000D03*
X150495000Y-82931000D03*
X148590000Y-82931000D03*
X98044000Y-90789200D03*
X102616000Y-90805000D03*
X98044000Y-91989200D03*
X104140000Y-90170000D03*
X142240000Y-58674000D03*
X144526000Y-58674000D03*
X142240000Y-57658000D03*
X145161000Y-57658000D03*
X146177000Y-59944000D03*
X142240000Y-59944000D03*
D19*
X119380000Y-89408000D02*
X121666000Y-91694000D01*
D20*
X143032000Y-104043000D02*
X143032000Y-107188000D01*
X143002000Y-104013000D02*
X143032000Y-104043000D01*
D19*
X143032000Y-108809000D02*
X143032000Y-107188000D01*
X142240000Y-109601000D02*
X143032000Y-108809000D01*
X139700000Y-109601000D02*
X142240000Y-109601000D01*
D20*
X158242000Y-93218000D02*
X154686000Y-93218000D01*
X161671000Y-93218000D02*
X161671000Y-84836000D01*
X154686000Y-93218000D02*
X161671000Y-93218000D01*
X155067000Y-59182000D02*
X148463000Y-59182000D01*
X148463000Y-59182000D02*
X161671000Y-59182000D01*
X161671000Y-64770000D02*
X161671000Y-61976000D01*
X161671000Y-59182000D02*
X161671000Y-67564000D01*
X161671000Y-61976000D02*
X161671000Y-59182000D01*
X161671000Y-90424000D02*
X161671000Y-87630000D01*
X161671000Y-87630000D02*
X161671000Y-84836000D01*
X149987000Y-63500000D02*
X149987000Y-68580000D01*
X139446000Y-50546000D02*
X138811000Y-51181000D01*
X140843000Y-50546000D02*
X139446000Y-50546000D01*
X142382000Y-104663000D02*
X142382000Y-107188000D01*
X142367000Y-104648000D02*
X142382000Y-104663000D01*
X141732000Y-105283000D02*
X141732000Y-107188000D01*
X113157000Y-98298000D02*
X113157000Y-97790000D01*
X113157000Y-97790000D02*
X110744000Y-95377000D01*
X110744000Y-95377000D02*
X110109000Y-95377000D01*
X111887000Y-100838000D02*
X111887000Y-97409000D01*
X110744000Y-96266000D02*
X110109000Y-96266000D01*
X111887000Y-97409000D02*
X110744000Y-96266000D01*
X111887000Y-100838000D02*
X111252000Y-100838000D01*
X109347000Y-100838000D02*
X109347000Y-86741000D01*
X109347000Y-86741000D02*
X110363000Y-85725000D01*
X108077000Y-98298000D02*
X108077000Y-86233000D01*
X108077000Y-86233000D02*
X107823000Y-85979000D01*
X142621000Y-89027000D02*
X142621000Y-91440000D01*
X142240000Y-66294000D02*
X145542000Y-66294000D01*
X141986000Y-87884000D02*
X141986000Y-92075000D01*
X143256000Y-56388000D02*
X144526000Y-56388000D01*
X140716000Y-54991000D02*
X142113000Y-56388000D01*
X142113000Y-56388000D02*
X143256000Y-56388000D01*
X140716000Y-52451000D02*
X140716000Y-54991000D01*
X127000000Y-52451000D02*
X140716000Y-52451000D01*
X121412000Y-69850000D02*
X121412000Y-64008000D01*
X142240000Y-65024000D02*
X146812000Y-65024000D01*
X117729000Y-89408000D02*
X120269000Y-91948000D01*
X141732000Y-67183000D02*
X145542000Y-67183000D01*
X141732000Y-68072000D02*
X145542000Y-68072000D01*
X123825000Y-64770000D02*
X123825000Y-66040000D01*
X143891000Y-87630000D02*
X143891000Y-90551000D01*
X140716000Y-84963000D02*
X140589000Y-85090000D01*
X140589000Y-85090000D02*
X140589000Y-91567000D01*
X140081000Y-54991000D02*
X142113000Y-57023000D01*
X142113000Y-57023000D02*
X142748000Y-57023000D01*
X140081000Y-54991000D02*
X140081000Y-53721000D01*
X120523000Y-69850000D02*
X120523000Y-63627000D01*
X120523000Y-63627000D02*
X120777000Y-63373000D01*
X142240000Y-63754000D02*
X146177000Y-63754000D01*
X142240000Y-62484000D02*
X146177000Y-62484000D01*
X119634000Y-69850000D02*
X119634000Y-63246000D01*
X119634000Y-63246000D02*
X120269000Y-62611000D01*
X152908000Y-77597000D02*
X152908000Y-89789000D01*
X152527000Y-90170000D02*
X151765000Y-90170000D01*
X152908000Y-89789000D02*
X152527000Y-90170000D01*
X152146000Y-78486000D02*
X152146000Y-84328000D01*
X152146000Y-84328000D02*
X149098000Y-87376000D01*
X153797000Y-94107000D02*
X153797000Y-75565000D01*
X153797000Y-94107000D02*
X152908000Y-94996000D01*
X152908000Y-94996000D02*
X149479000Y-94996000D01*
X148590000Y-82931000D02*
X150495000Y-82931000D01*
X102616000Y-90805000D02*
X98059800Y-90805000D01*
X98044000Y-90789200D02*
X98059800Y-90805000D01*
X98572600Y-91460600D02*
X102849400Y-91460600D01*
X98044000Y-91989200D02*
X98572600Y-91460600D01*
X102849400Y-91460600D02*
X104140000Y-90170000D01*
X142240000Y-58674000D02*
X144526000Y-58674000D01*
X145161000Y-57658000D02*
X142240000Y-57658000D01*
X142240000Y-59944000D02*
X146177000Y-59944000D01*
G36*
X117500400Y-48514000D02*
X117507348Y-48550927D01*
X117529172Y-48584843D01*
X117562472Y-48607595D01*
X117602000Y-48615600D01*
X136398000Y-48615600D01*
X136434927Y-48608652D01*
X136468843Y-48586828D01*
X136491595Y-48553528D01*
X136499600Y-48514000D01*
X136499600Y-42670400D01*
X153883326Y-42670400D01*
X162155200Y-50942274D01*
X162155200Y-72034400D01*
X158750000Y-72034400D01*
X158713073Y-72041348D01*
X158679157Y-72063172D01*
X158656405Y-72096472D01*
X158648400Y-72136000D01*
X158648400Y-80264000D01*
X158655348Y-80300927D01*
X158677172Y-80334843D01*
X158710472Y-80357595D01*
X158750000Y-80365600D01*
X162155200Y-80365600D01*
X162155200Y-101584726D01*
X148943026Y-114796900D01*
X105056974Y-114796900D01*
X100800474Y-110540400D01*
X136922400Y-110540400D01*
X136922400Y-111090400D01*
X137072796Y-111541693D01*
X137384446Y-111901079D01*
X137793761Y-112099347D01*
X137979600Y-111984158D01*
X137979600Y-110540400D01*
X138284400Y-110540400D01*
X138284400Y-111984158D01*
X138470239Y-112099347D01*
X138879554Y-111901079D01*
X139191204Y-111541693D01*
X139341600Y-111090400D01*
X139341600Y-110540400D01*
X144122400Y-110540400D01*
X144122400Y-111090400D01*
X144272796Y-111541693D01*
X144584446Y-111901079D01*
X144993761Y-112099347D01*
X145179600Y-111984158D01*
X145179600Y-110540400D01*
X145484400Y-110540400D01*
X145484400Y-111984158D01*
X145670239Y-112099347D01*
X146079554Y-111901079D01*
X146391204Y-111541693D01*
X146541600Y-111090400D01*
X146541600Y-110540400D01*
X145484400Y-110540400D01*
X145179600Y-110540400D01*
X144122400Y-110540400D01*
X139341600Y-110540400D01*
X138284400Y-110540400D01*
X137979600Y-110540400D01*
X136922400Y-110540400D01*
X100800474Y-110540400D01*
X99945674Y-109685600D01*
X136922400Y-109685600D01*
X136922400Y-110235600D01*
X137979600Y-110235600D01*
X137979600Y-108791842D01*
X138284400Y-108791842D01*
X138284400Y-110235600D01*
X139341600Y-110235600D01*
X139341600Y-110122808D01*
X139347035Y-110128253D01*
X139575674Y-110223192D01*
X139823240Y-110223408D01*
X139977183Y-110159800D01*
X142240000Y-110159800D01*
X142453844Y-110117264D01*
X142635131Y-109996131D01*
X142945662Y-109685600D01*
X144122400Y-109685600D01*
X144122400Y-110235600D01*
X145179600Y-110235600D01*
X145179600Y-108791842D01*
X145484400Y-108791842D01*
X145484400Y-110235600D01*
X146541600Y-110235600D01*
X146541600Y-109685600D01*
X146391204Y-109234307D01*
X146079554Y-108874921D01*
X145670239Y-108676653D01*
X145484400Y-108791842D01*
X145179600Y-108791842D01*
X144993761Y-108676653D01*
X144584446Y-108874921D01*
X144272796Y-109234307D01*
X144122400Y-109685600D01*
X142945662Y-109685600D01*
X143427131Y-109204131D01*
X143501742Y-109092468D01*
X143548264Y-109022844D01*
X143590800Y-108809000D01*
X143590800Y-108047733D01*
X143592771Y-108038000D01*
X143592771Y-106990400D01*
X144122400Y-106990400D01*
X144122400Y-107540400D01*
X144272796Y-107991693D01*
X144584446Y-108351079D01*
X144993761Y-108549347D01*
X145179600Y-108434158D01*
X145179600Y-106990400D01*
X145484400Y-106990400D01*
X145484400Y-108434158D01*
X145670239Y-108549347D01*
X146079554Y-108351079D01*
X146391204Y-107991693D01*
X146541600Y-107540400D01*
X146541600Y-106990400D01*
X145484400Y-106990400D01*
X145179600Y-106990400D01*
X144122400Y-106990400D01*
X143592771Y-106990400D01*
X143592771Y-106338000D01*
X143571518Y-106225048D01*
X143513960Y-106135600D01*
X144122400Y-106135600D01*
X144122400Y-106685600D01*
X145179600Y-106685600D01*
X145179600Y-105241842D01*
X145484400Y-105241842D01*
X145484400Y-106685600D01*
X146541600Y-106685600D01*
X146541600Y-106135600D01*
X146391204Y-105684307D01*
X146079554Y-105324921D01*
X145670239Y-105126653D01*
X145484400Y-105241842D01*
X145179600Y-105241842D01*
X144993761Y-105126653D01*
X144584446Y-105324921D01*
X144272796Y-105684307D01*
X144122400Y-106135600D01*
X143513960Y-106135600D01*
X143504763Y-106121308D01*
X143438400Y-106075964D01*
X143438400Y-104456659D01*
X143529253Y-104365965D01*
X143624192Y-104137326D01*
X143624408Y-103889760D01*
X143593263Y-103814383D01*
X151205707Y-103814383D01*
X151637890Y-104860345D01*
X152437446Y-105661298D01*
X153482652Y-106095305D01*
X154614383Y-106096293D01*
X155660345Y-105664110D01*
X156461298Y-104864554D01*
X156895305Y-103819348D01*
X156896293Y-102687617D01*
X156464110Y-101641655D01*
X155664554Y-100840702D01*
X154619348Y-100406695D01*
X153487617Y-100405707D01*
X152441655Y-100837890D01*
X151640702Y-101637446D01*
X151206695Y-102682652D01*
X151205707Y-103814383D01*
X143593263Y-103814383D01*
X143529868Y-103660956D01*
X143354965Y-103485747D01*
X143126326Y-103390808D01*
X142878760Y-103390592D01*
X142649956Y-103485132D01*
X142474747Y-103660035D01*
X142379808Y-103888674D01*
X142379688Y-104025711D01*
X142243760Y-104025592D01*
X142014956Y-104120132D01*
X141839747Y-104295035D01*
X141744808Y-104523674D01*
X141744688Y-104660711D01*
X141608760Y-104660592D01*
X141379956Y-104755132D01*
X141204747Y-104930035D01*
X141109808Y-105158674D01*
X141109592Y-105406240D01*
X141204132Y-105635044D01*
X141325600Y-105756725D01*
X141325600Y-106027229D01*
X141213101Y-106027229D01*
X141198794Y-105992689D01*
X141027311Y-105821206D01*
X140803257Y-105728400D01*
X140709400Y-105728400D01*
X140557000Y-105880800D01*
X140557000Y-106200574D01*
X140545713Y-106217093D01*
X140521229Y-106338000D01*
X140521229Y-108038000D01*
X140542482Y-108150952D01*
X140557000Y-108173514D01*
X140557000Y-108495200D01*
X140709400Y-108647600D01*
X140803257Y-108647600D01*
X141027311Y-108554794D01*
X141198794Y-108383311D01*
X141213101Y-108348771D01*
X141332000Y-108348771D01*
X141409754Y-108334141D01*
X141482000Y-108348771D01*
X141982000Y-108348771D01*
X142059754Y-108334141D01*
X142132000Y-108348771D01*
X142473200Y-108348771D01*
X142473200Y-108577538D01*
X142008538Y-109042200D01*
X139976991Y-109042200D01*
X139824326Y-108978808D01*
X139576760Y-108978592D01*
X139347956Y-109073132D01*
X139189021Y-109231790D01*
X138879554Y-108874921D01*
X138470239Y-108676653D01*
X138284400Y-108791842D01*
X137979600Y-108791842D01*
X137793761Y-108676653D01*
X137384446Y-108874921D01*
X137072796Y-109234307D01*
X136922400Y-109685600D01*
X99945674Y-109685600D01*
X94074457Y-103814383D01*
X97103707Y-103814383D01*
X97535890Y-104860345D01*
X98335446Y-105661298D01*
X99380652Y-106095305D01*
X100512383Y-106096293D01*
X101558345Y-105664110D01*
X101780349Y-105442493D01*
X103683033Y-105442493D01*
X103810597Y-105720537D01*
X104489390Y-105967986D01*
X105211207Y-105936837D01*
X105472707Y-105828521D01*
X105193131Y-106107609D01*
X104902532Y-106807450D01*
X104901870Y-107565226D01*
X105191248Y-108265573D01*
X105726609Y-108801869D01*
X106426450Y-109092468D01*
X107184226Y-109093130D01*
X107884573Y-108803752D01*
X108420869Y-108268391D01*
X108711468Y-107568550D01*
X108711470Y-107565226D01*
X116331870Y-107565226D01*
X116621248Y-108265573D01*
X117156609Y-108801869D01*
X117856450Y-109092468D01*
X118614226Y-109093130D01*
X119314573Y-108803752D01*
X119850869Y-108268391D01*
X120141468Y-107568550D01*
X120141973Y-106990400D01*
X136922400Y-106990400D01*
X136922400Y-107540400D01*
X137072796Y-107991693D01*
X137384446Y-108351079D01*
X137793761Y-108549347D01*
X137979600Y-108434158D01*
X137979600Y-106990400D01*
X138284400Y-106990400D01*
X138284400Y-108434158D01*
X138470239Y-108549347D01*
X138879554Y-108351079D01*
X139191204Y-107991693D01*
X139341600Y-107540400D01*
X139341600Y-107492800D01*
X139572400Y-107492800D01*
X139572400Y-108159257D01*
X139665206Y-108383311D01*
X139836689Y-108554794D01*
X140060743Y-108647600D01*
X140154600Y-108647600D01*
X140307000Y-108495200D01*
X140307000Y-107340400D01*
X139724800Y-107340400D01*
X139572400Y-107492800D01*
X139341600Y-107492800D01*
X139341600Y-106990400D01*
X138284400Y-106990400D01*
X137979600Y-106990400D01*
X136922400Y-106990400D01*
X120141973Y-106990400D01*
X120142130Y-106810774D01*
X119863154Y-106135600D01*
X136922400Y-106135600D01*
X136922400Y-106685600D01*
X137979600Y-106685600D01*
X137979600Y-105241842D01*
X138284400Y-105241842D01*
X138284400Y-106685600D01*
X139341600Y-106685600D01*
X139341600Y-106216743D01*
X139572400Y-106216743D01*
X139572400Y-106883200D01*
X139724800Y-107035600D01*
X140307000Y-107035600D01*
X140307000Y-105880800D01*
X140154600Y-105728400D01*
X140060743Y-105728400D01*
X139836689Y-105821206D01*
X139665206Y-105992689D01*
X139572400Y-106216743D01*
X139341600Y-106216743D01*
X139341600Y-106135600D01*
X139191204Y-105684307D01*
X138879554Y-105324921D01*
X138470239Y-105126653D01*
X138284400Y-105241842D01*
X137979600Y-105241842D01*
X137793761Y-105126653D01*
X137384446Y-105324921D01*
X137072796Y-105684307D01*
X136922400Y-106135600D01*
X119863154Y-106135600D01*
X119852752Y-106110427D01*
X119551041Y-105808189D01*
X119989390Y-105967986D01*
X120711207Y-105936837D01*
X121233403Y-105720537D01*
X121360967Y-105442493D01*
X120272000Y-104353526D01*
X120257858Y-104367669D01*
X120042332Y-104152143D01*
X120056474Y-104138000D01*
X120487526Y-104138000D01*
X121576493Y-105226967D01*
X121854537Y-105099403D01*
X122101986Y-104420610D01*
X122070837Y-103698793D01*
X121854537Y-103176597D01*
X121576493Y-103049033D01*
X120487526Y-104138000D01*
X120056474Y-104138000D01*
X118967507Y-103049033D01*
X118689463Y-103176597D01*
X118442014Y-103855390D01*
X118473163Y-104577207D01*
X118689463Y-105099403D01*
X118967505Y-105226966D01*
X118856308Y-105338163D01*
X118932424Y-105414279D01*
X118617550Y-105283532D01*
X117859774Y-105282870D01*
X117159427Y-105572248D01*
X116623131Y-106107609D01*
X116332532Y-106807450D01*
X116331870Y-107565226D01*
X108711470Y-107565226D01*
X108712130Y-106810774D01*
X108422752Y-106110427D01*
X107887391Y-105574131D01*
X107187550Y-105283532D01*
X106429774Y-105282870D01*
X106111461Y-105414394D01*
X106187692Y-105338163D01*
X106076495Y-105226966D01*
X106354537Y-105099403D01*
X106601986Y-104420610D01*
X106570837Y-103698793D01*
X106354537Y-103176597D01*
X106076493Y-103049033D01*
X104987526Y-104138000D01*
X105001669Y-104152143D01*
X104786143Y-104367669D01*
X104772000Y-104353526D01*
X103683033Y-105442493D01*
X101780349Y-105442493D01*
X102359298Y-104864554D01*
X102778339Y-103855390D01*
X102942014Y-103855390D01*
X102973163Y-104577207D01*
X103189463Y-105099403D01*
X103467507Y-105226967D01*
X104556474Y-104138000D01*
X103467507Y-103049033D01*
X103189463Y-103176597D01*
X102942014Y-103855390D01*
X102778339Y-103855390D01*
X102793305Y-103819348D01*
X102794165Y-102833507D01*
X103683033Y-102833507D01*
X104772000Y-103922474D01*
X105860967Y-102833507D01*
X119183033Y-102833507D01*
X120272000Y-103922474D01*
X121360967Y-102833507D01*
X121233403Y-102555463D01*
X120554610Y-102308014D01*
X119832793Y-102339163D01*
X119310597Y-102555463D01*
X119183033Y-102833507D01*
X105860967Y-102833507D01*
X105733403Y-102555463D01*
X105054610Y-102308014D01*
X104332793Y-102339163D01*
X103810597Y-102555463D01*
X103683033Y-102833507D01*
X102794165Y-102833507D01*
X102794293Y-102687617D01*
X102362110Y-101641655D01*
X101562554Y-100840702D01*
X100517348Y-100406695D01*
X99385617Y-100405707D01*
X98339655Y-100837890D01*
X97538702Y-101637446D01*
X97104695Y-102682652D01*
X97103707Y-103814383D01*
X94074457Y-103814383D01*
X91844800Y-101584726D01*
X91844800Y-98496693D01*
X107073526Y-98496693D01*
X107225948Y-98865581D01*
X107507934Y-99148061D01*
X107876556Y-99301126D01*
X108275693Y-99301474D01*
X108644581Y-99149052D01*
X108927061Y-98867066D01*
X108940600Y-98834460D01*
X108940600Y-99920349D01*
X108779419Y-99986948D01*
X108496939Y-100268934D01*
X108343874Y-100637556D01*
X108343526Y-101036693D01*
X108495948Y-101405581D01*
X108777934Y-101688061D01*
X109146556Y-101841126D01*
X109545693Y-101841474D01*
X109914581Y-101689052D01*
X110197061Y-101407066D01*
X110350126Y-101038444D01*
X110350474Y-100639307D01*
X110198052Y-100270419D01*
X109916066Y-99987939D01*
X109753400Y-99920394D01*
X109753400Y-98835213D01*
X109765948Y-98865581D01*
X110047934Y-99148061D01*
X110416556Y-99301126D01*
X110815693Y-99301474D01*
X111184581Y-99149052D01*
X111467061Y-98867066D01*
X111480600Y-98834460D01*
X111480600Y-99920349D01*
X111319419Y-99986948D01*
X111036939Y-100268934D01*
X110883874Y-100637556D01*
X110883844Y-100671538D01*
X110876535Y-100682477D01*
X110845600Y-100838000D01*
X110876535Y-100993523D01*
X110883554Y-101004028D01*
X110883526Y-101036693D01*
X111035948Y-101405581D01*
X111317934Y-101688061D01*
X111686556Y-101841126D01*
X112085693Y-101841474D01*
X112454581Y-101689052D01*
X112737061Y-101407066D01*
X112890126Y-101038444D01*
X112890127Y-101036693D01*
X113423526Y-101036693D01*
X113575948Y-101405581D01*
X113857934Y-101688061D01*
X114226556Y-101841126D01*
X114625693Y-101841474D01*
X114994581Y-101689052D01*
X115277061Y-101407066D01*
X115430126Y-101038444D01*
X115430127Y-101036693D01*
X115963526Y-101036693D01*
X116115948Y-101405581D01*
X116397934Y-101688061D01*
X116766556Y-101841126D01*
X117165693Y-101841474D01*
X117534581Y-101689052D01*
X117817061Y-101407066D01*
X117970126Y-101038444D01*
X117970474Y-100639307D01*
X117818052Y-100270419D01*
X117536066Y-99987939D01*
X117167444Y-99834874D01*
X116768307Y-99834526D01*
X116399419Y-99986948D01*
X116116939Y-100268934D01*
X115963874Y-100637556D01*
X115963526Y-101036693D01*
X115430127Y-101036693D01*
X115430474Y-100639307D01*
X115278052Y-100270419D01*
X114996066Y-99987939D01*
X114627444Y-99834874D01*
X114228307Y-99834526D01*
X113859419Y-99986948D01*
X113576939Y-100268934D01*
X113423874Y-100637556D01*
X113423526Y-101036693D01*
X112890127Y-101036693D01*
X112890474Y-100639307D01*
X112738052Y-100270419D01*
X112456066Y-99987939D01*
X112293400Y-99920394D01*
X112293400Y-98835213D01*
X112305948Y-98865581D01*
X112587934Y-99148061D01*
X112956556Y-99301126D01*
X113355693Y-99301474D01*
X113518732Y-99234107D01*
X114976419Y-99234107D01*
X115041484Y-99459519D01*
X115535876Y-99621958D01*
X116054798Y-99582838D01*
X116352516Y-99459519D01*
X116417581Y-99234107D01*
X115697000Y-98513526D01*
X114976419Y-99234107D01*
X113518732Y-99234107D01*
X113724581Y-99149052D01*
X114007061Y-98867066D01*
X114160126Y-98498444D01*
X114160441Y-98136876D01*
X114373042Y-98136876D01*
X114412162Y-98655798D01*
X114535481Y-98953516D01*
X114760893Y-99018581D01*
X115481474Y-98298000D01*
X115912526Y-98298000D01*
X116633107Y-99018581D01*
X116858519Y-98953516D01*
X117020958Y-98459124D01*
X116981838Y-97940202D01*
X116858519Y-97642484D01*
X116633107Y-97577419D01*
X115912526Y-98298000D01*
X115481474Y-98298000D01*
X114760893Y-97577419D01*
X114535481Y-97642484D01*
X114373042Y-98136876D01*
X114160441Y-98136876D01*
X114160474Y-98099307D01*
X114008052Y-97730419D01*
X113726066Y-97447939D01*
X113518844Y-97361893D01*
X114976419Y-97361893D01*
X115697000Y-98082474D01*
X116417581Y-97361893D01*
X116352516Y-97136481D01*
X115858124Y-96974042D01*
X115339202Y-97013162D01*
X115041484Y-97136481D01*
X114976419Y-97361893D01*
X113518844Y-97361893D01*
X113357444Y-97294874D01*
X113236505Y-97294769D01*
X112203976Y-96262240D01*
X152539592Y-96262240D01*
X152634132Y-96491044D01*
X152809035Y-96666253D01*
X153037674Y-96761192D01*
X153285240Y-96761408D01*
X153514044Y-96666868D01*
X153689253Y-96491965D01*
X153784192Y-96263326D01*
X153784408Y-96015760D01*
X153689868Y-95786956D01*
X153514965Y-95611747D01*
X153286326Y-95516808D01*
X153038760Y-95516592D01*
X152809956Y-95611132D01*
X152634747Y-95786035D01*
X152539808Y-96014674D01*
X152539592Y-96262240D01*
X112203976Y-96262240D01*
X111031368Y-95089632D01*
X110899523Y-95001535D01*
X110744000Y-94970600D01*
X110582607Y-94970600D01*
X110461965Y-94849747D01*
X110233326Y-94754808D01*
X109985760Y-94754592D01*
X109756956Y-94849132D01*
X109753400Y-94852682D01*
X109753400Y-89531240D01*
X117106592Y-89531240D01*
X117201132Y-89760044D01*
X117376035Y-89935253D01*
X117604674Y-90030192D01*
X117776606Y-90030342D01*
X119646741Y-91900478D01*
X119646592Y-92071240D01*
X119741132Y-92300044D01*
X119916035Y-92475253D01*
X120144674Y-92570192D01*
X120392240Y-92570408D01*
X120621044Y-92475868D01*
X120796253Y-92300965D01*
X120891192Y-92072326D01*
X120891408Y-91824760D01*
X120810369Y-91628631D01*
X121075006Y-91893268D01*
X121138132Y-92046044D01*
X121313035Y-92221253D01*
X121541674Y-92316192D01*
X121789240Y-92316408D01*
X122018044Y-92221868D01*
X122193253Y-92046965D01*
X122288192Y-91818326D01*
X122288303Y-91690240D01*
X139966592Y-91690240D01*
X140061132Y-91919044D01*
X140236035Y-92094253D01*
X140464674Y-92189192D01*
X140712240Y-92189408D01*
X140941044Y-92094868D01*
X141116253Y-91919965D01*
X141211192Y-91691326D01*
X141211408Y-91443760D01*
X141116868Y-91214956D01*
X140995400Y-91093275D01*
X140995400Y-88007240D01*
X141363592Y-88007240D01*
X141458132Y-88236044D01*
X141579600Y-88357725D01*
X141579600Y-91601393D01*
X141458747Y-91722035D01*
X141363808Y-91950674D01*
X141363592Y-92198240D01*
X141458132Y-92427044D01*
X141633035Y-92602253D01*
X141861674Y-92697192D01*
X142109240Y-92697408D01*
X142338044Y-92602868D01*
X142513253Y-92427965D01*
X142608192Y-92199326D01*
X142608312Y-92062289D01*
X142744240Y-92062408D01*
X142973044Y-91967868D01*
X143148253Y-91792965D01*
X143243192Y-91564326D01*
X143243408Y-91316760D01*
X143148868Y-91087956D01*
X143027400Y-90966275D01*
X143027400Y-89500607D01*
X143148253Y-89379965D01*
X143243192Y-89151326D01*
X143243408Y-88903760D01*
X143148868Y-88674956D01*
X142973965Y-88499747D01*
X142745326Y-88404808D01*
X142497760Y-88404592D01*
X142392400Y-88448126D01*
X142392400Y-88357607D01*
X142513253Y-88236965D01*
X142608192Y-88008326D01*
X142608408Y-87760760D01*
X142605301Y-87753240D01*
X143268592Y-87753240D01*
X143363132Y-87982044D01*
X143484600Y-88103725D01*
X143484600Y-90077393D01*
X143363747Y-90198035D01*
X143268808Y-90426674D01*
X143268592Y-90674240D01*
X143363132Y-90903044D01*
X143538035Y-91078253D01*
X143766674Y-91173192D01*
X144014240Y-91173408D01*
X144243044Y-91078868D01*
X144418253Y-90903965D01*
X144513192Y-90675326D01*
X144513408Y-90427760D01*
X144418868Y-90198956D01*
X144297400Y-90077275D01*
X144297400Y-88784570D01*
X149361367Y-88784570D01*
X149403487Y-89227179D01*
X149491833Y-89440466D01*
X149697625Y-89481849D01*
X150279474Y-88900000D01*
X149697625Y-88318151D01*
X149491833Y-88359534D01*
X149361367Y-88784570D01*
X144297400Y-88784570D01*
X144297400Y-88103607D01*
X144418253Y-87982965D01*
X144513192Y-87754326D01*
X144513408Y-87506760D01*
X144510301Y-87499240D01*
X148475592Y-87499240D01*
X148570132Y-87728044D01*
X148745035Y-87903253D01*
X148973674Y-87998192D01*
X149221240Y-87998408D01*
X149450044Y-87903868D01*
X149625253Y-87728965D01*
X149720192Y-87500326D01*
X149720342Y-87328394D01*
X152433368Y-84615368D01*
X152436931Y-84610035D01*
X152501600Y-84513253D01*
X152501600Y-88184379D01*
X152495763Y-88175308D01*
X152393907Y-88105713D01*
X152273000Y-88081229D01*
X151284904Y-88081229D01*
X151191573Y-87987898D01*
X151076848Y-88102623D01*
X151035466Y-87896833D01*
X150610430Y-87766367D01*
X150167821Y-87808487D01*
X149954534Y-87896833D01*
X149913151Y-88102625D01*
X150495000Y-88684474D01*
X150509143Y-88670332D01*
X150724669Y-88885858D01*
X150710526Y-88900000D01*
X150724669Y-88914143D01*
X150509143Y-89129669D01*
X150495000Y-89115526D01*
X150196737Y-89413789D01*
X150035187Y-89480540D01*
X149806343Y-89708984D01*
X149682341Y-90007615D01*
X149682059Y-90330967D01*
X149805540Y-90629813D01*
X149980526Y-90805105D01*
X149806343Y-90978984D01*
X149682341Y-91277615D01*
X149682059Y-91600967D01*
X149805540Y-91899813D01*
X149980526Y-92075105D01*
X149806343Y-92248984D01*
X149682341Y-92547615D01*
X149682059Y-92870967D01*
X149805540Y-93169813D01*
X149980526Y-93345105D01*
X149806343Y-93518984D01*
X149682341Y-93817615D01*
X149682059Y-94140967D01*
X149805540Y-94439813D01*
X149955065Y-94589600D01*
X149952607Y-94589600D01*
X149831965Y-94468747D01*
X149603326Y-94373808D01*
X149355760Y-94373592D01*
X149126956Y-94468132D01*
X148951747Y-94643035D01*
X148856808Y-94871674D01*
X148856592Y-95119240D01*
X148951132Y-95348044D01*
X149126035Y-95523253D01*
X149354674Y-95618192D01*
X149602240Y-95618408D01*
X149831044Y-95523868D01*
X149952725Y-95402400D01*
X152908000Y-95402400D01*
X153063523Y-95371465D01*
X153195368Y-95283368D01*
X154084368Y-94394368D01*
X154098250Y-94373592D01*
X154172465Y-94262523D01*
X154203400Y-94107000D01*
X154203400Y-76038607D01*
X154324253Y-75917965D01*
X154419192Y-75689326D01*
X154419408Y-75441760D01*
X154324868Y-75212956D01*
X154149965Y-75037747D01*
X153921326Y-74942808D01*
X153673760Y-74942592D01*
X153444956Y-75037132D01*
X153269747Y-75212035D01*
X153174808Y-75440674D01*
X153174592Y-75688240D01*
X153269132Y-75917044D01*
X153390600Y-76038725D01*
X153390600Y-77199609D01*
X153260965Y-77069747D01*
X153032326Y-76974808D01*
X152784760Y-76974592D01*
X152555956Y-77069132D01*
X152380747Y-77244035D01*
X152285808Y-77472674D01*
X152285592Y-77720240D01*
X152360361Y-77901194D01*
X152270326Y-77863808D01*
X152022760Y-77863592D01*
X151793956Y-77958132D01*
X151618747Y-78133035D01*
X151523808Y-78361674D01*
X151523592Y-78609240D01*
X151618132Y-78838044D01*
X151739600Y-78959725D01*
X151739600Y-84159664D01*
X149145523Y-86753741D01*
X148974760Y-86753592D01*
X148745956Y-86848132D01*
X148570747Y-87023035D01*
X148475808Y-87251674D01*
X148475592Y-87499240D01*
X144510301Y-87499240D01*
X144418868Y-87277956D01*
X144243965Y-87102747D01*
X144015326Y-87007808D01*
X143767760Y-87007592D01*
X143538956Y-87102132D01*
X143363747Y-87277035D01*
X143268808Y-87505674D01*
X143268592Y-87753240D01*
X142605301Y-87753240D01*
X142513868Y-87531956D01*
X142338965Y-87356747D01*
X142110326Y-87261808D01*
X141862760Y-87261592D01*
X141633956Y-87356132D01*
X141458747Y-87531035D01*
X141363808Y-87759674D01*
X141363592Y-88007240D01*
X140995400Y-88007240D01*
X140995400Y-85520884D01*
X141068044Y-85490868D01*
X141243253Y-85315965D01*
X141338192Y-85087326D01*
X141338408Y-84839760D01*
X141243868Y-84610956D01*
X141068965Y-84435747D01*
X140840326Y-84340808D01*
X140592760Y-84340592D01*
X140363956Y-84435132D01*
X140188747Y-84610035D01*
X140093808Y-84838674D01*
X140093592Y-85086240D01*
X140182600Y-85301656D01*
X140182600Y-91093393D01*
X140061747Y-91214035D01*
X139966808Y-91442674D01*
X139966592Y-91690240D01*
X122288303Y-91690240D01*
X122288408Y-91570760D01*
X122193868Y-91341956D01*
X122018965Y-91166747D01*
X121865132Y-91102870D01*
X119970994Y-89208732D01*
X119907868Y-89055956D01*
X119732965Y-88880747D01*
X119504326Y-88785808D01*
X119256760Y-88785592D01*
X119027956Y-88880132D01*
X118852747Y-89055035D01*
X118757808Y-89283674D01*
X118757592Y-89531240D01*
X118852132Y-89760044D01*
X119027035Y-89935253D01*
X119180868Y-89999130D01*
X120588652Y-91406914D01*
X120393326Y-91325808D01*
X120221395Y-91325658D01*
X118351259Y-89455523D01*
X118351408Y-89284760D01*
X118256868Y-89055956D01*
X118081965Y-88880747D01*
X117853326Y-88785808D01*
X117605760Y-88785592D01*
X117376956Y-88880132D01*
X117201747Y-89055035D01*
X117106808Y-89283674D01*
X117106592Y-89531240D01*
X109753400Y-89531240D01*
X109753400Y-86909336D01*
X110315477Y-86347259D01*
X110486240Y-86347408D01*
X110715044Y-86252868D01*
X110890253Y-86077965D01*
X110985192Y-85849326D01*
X110985408Y-85601760D01*
X110890868Y-85372956D01*
X110715965Y-85197747D01*
X110487326Y-85102808D01*
X110239760Y-85102592D01*
X110010956Y-85197132D01*
X109835747Y-85372035D01*
X109740808Y-85600674D01*
X109740658Y-85772606D01*
X109059632Y-86453632D01*
X108971535Y-86585477D01*
X108940600Y-86741000D01*
X108940600Y-97760787D01*
X108928052Y-97730419D01*
X108646066Y-97447939D01*
X108483400Y-97380394D01*
X108483400Y-86233000D01*
X108452465Y-86077477D01*
X108445224Y-86066640D01*
X108445408Y-85855760D01*
X108350868Y-85626956D01*
X108175965Y-85451747D01*
X107947326Y-85356808D01*
X107699760Y-85356592D01*
X107470956Y-85451132D01*
X107295747Y-85626035D01*
X107200808Y-85854674D01*
X107200592Y-86102240D01*
X107295132Y-86331044D01*
X107470035Y-86506253D01*
X107670600Y-86589535D01*
X107670600Y-97380349D01*
X107509419Y-97446948D01*
X107226939Y-97728934D01*
X107073874Y-98097556D01*
X107073526Y-98496693D01*
X91844800Y-98496693D01*
X91844800Y-93470755D01*
X97281890Y-93470755D01*
X97378360Y-93704228D01*
X97556832Y-93883013D01*
X97790137Y-93979889D01*
X98042755Y-93980110D01*
X98276228Y-93883640D01*
X98455013Y-93705168D01*
X98551889Y-93471863D01*
X98552110Y-93219245D01*
X98455640Y-92985772D01*
X98277168Y-92806987D01*
X98043863Y-92710111D01*
X97791245Y-92709890D01*
X97557772Y-92806360D01*
X97378987Y-92984832D01*
X97282111Y-93218137D01*
X97281890Y-93470755D01*
X91844800Y-93470755D01*
X91844800Y-90912440D01*
X97421592Y-90912440D01*
X97516132Y-91141244D01*
X97691035Y-91316453D01*
X97866379Y-91389262D01*
X97691956Y-91461332D01*
X97516747Y-91636235D01*
X97421808Y-91864874D01*
X97421592Y-92112440D01*
X97516132Y-92341244D01*
X97691035Y-92516453D01*
X97919674Y-92611392D01*
X98167240Y-92611608D01*
X98396044Y-92517068D01*
X98571253Y-92342165D01*
X98666192Y-92113526D01*
X98666342Y-91941594D01*
X98740936Y-91867000D01*
X102849400Y-91867000D01*
X103004923Y-91836065D01*
X103136768Y-91747968D01*
X104092477Y-90792259D01*
X104263240Y-90792408D01*
X104492044Y-90697868D01*
X104667253Y-90522965D01*
X104762192Y-90294326D01*
X104762408Y-90046760D01*
X104667868Y-89817956D01*
X104492965Y-89642747D01*
X104264326Y-89547808D01*
X104016760Y-89547592D01*
X103787956Y-89642132D01*
X103612747Y-89817035D01*
X103517808Y-90045674D01*
X103517658Y-90217606D01*
X103184345Y-90550919D01*
X103143868Y-90452956D01*
X102968965Y-90277747D01*
X102740326Y-90182808D01*
X102492760Y-90182592D01*
X102263956Y-90277132D01*
X102142275Y-90398600D01*
X98533379Y-90398600D01*
X98396965Y-90261947D01*
X98168326Y-90167008D01*
X97920760Y-90166792D01*
X97691956Y-90261332D01*
X97516747Y-90436235D01*
X97421808Y-90664874D01*
X97421592Y-90912440D01*
X91844800Y-90912440D01*
X91844800Y-89406755D01*
X101345890Y-89406755D01*
X101442360Y-89640228D01*
X101620832Y-89819013D01*
X101854137Y-89915889D01*
X102106755Y-89916110D01*
X102340228Y-89819640D01*
X102519013Y-89641168D01*
X102615889Y-89407863D01*
X102616110Y-89155245D01*
X102519640Y-88921772D01*
X102341168Y-88742987D01*
X102107863Y-88646111D01*
X101855245Y-88645890D01*
X101621772Y-88742360D01*
X101442987Y-88920832D01*
X101346111Y-89154137D01*
X101345890Y-89406755D01*
X91844800Y-89406755D01*
X91844800Y-83054240D01*
X147967592Y-83054240D01*
X148062132Y-83283044D01*
X148237035Y-83458253D01*
X148465674Y-83553192D01*
X148713240Y-83553408D01*
X148942044Y-83458868D01*
X149063725Y-83337400D01*
X150021393Y-83337400D01*
X150142035Y-83458253D01*
X150370674Y-83553192D01*
X150618240Y-83553408D01*
X150847044Y-83458868D01*
X151022253Y-83283965D01*
X151117192Y-83055326D01*
X151117408Y-82807760D01*
X151022868Y-82578956D01*
X150847965Y-82403747D01*
X150619326Y-82308808D01*
X150371760Y-82308592D01*
X150142956Y-82403132D01*
X150021275Y-82524600D01*
X149063607Y-82524600D01*
X148942965Y-82403747D01*
X148714326Y-82308808D01*
X148466760Y-82308592D01*
X148237956Y-82403132D01*
X148062747Y-82578035D01*
X147967808Y-82806674D01*
X147967592Y-83054240D01*
X91844800Y-83054240D01*
X91844800Y-80006240D01*
X146443592Y-80006240D01*
X146538132Y-80235044D01*
X146713035Y-80410253D01*
X146941674Y-80505192D01*
X147189240Y-80505408D01*
X147418044Y-80410868D01*
X147593253Y-80235965D01*
X147688192Y-80007326D01*
X147688408Y-79759760D01*
X147593868Y-79530956D01*
X147418965Y-79355747D01*
X147190326Y-79260808D01*
X146942760Y-79260592D01*
X146713956Y-79355132D01*
X146538747Y-79530035D01*
X146443808Y-79758674D01*
X146443592Y-80006240D01*
X91844800Y-80006240D01*
X91844800Y-73277755D01*
X97154890Y-73277755D01*
X97251360Y-73511228D01*
X97429832Y-73690013D01*
X97663137Y-73786889D01*
X97915755Y-73787110D01*
X98149228Y-73690640D01*
X98328013Y-73512168D01*
X98424889Y-73278863D01*
X98425110Y-73026245D01*
X98328640Y-72792772D01*
X98150168Y-72613987D01*
X97916863Y-72517111D01*
X97664245Y-72516890D01*
X97430772Y-72613360D01*
X97251987Y-72791832D01*
X97155111Y-73025137D01*
X97154890Y-73277755D01*
X91844800Y-73277755D01*
X91844800Y-71370240D01*
X146697592Y-71370240D01*
X146792132Y-71599044D01*
X146967035Y-71774253D01*
X147195674Y-71869192D01*
X147443240Y-71869408D01*
X147672044Y-71774868D01*
X147847253Y-71599965D01*
X147942192Y-71371326D01*
X147942408Y-71123760D01*
X147847868Y-70894956D01*
X147672965Y-70719747D01*
X147444326Y-70624808D01*
X147196760Y-70624592D01*
X146967956Y-70719132D01*
X146792747Y-70894035D01*
X146697808Y-71122674D01*
X146697592Y-71370240D01*
X91844800Y-71370240D01*
X91844800Y-69973240D01*
X119011592Y-69973240D01*
X119106132Y-70202044D01*
X119281035Y-70377253D01*
X119509674Y-70472192D01*
X119757240Y-70472408D01*
X119986044Y-70377868D01*
X120078508Y-70285566D01*
X120170035Y-70377253D01*
X120398674Y-70472192D01*
X120646240Y-70472408D01*
X120875044Y-70377868D01*
X120967508Y-70285566D01*
X121059035Y-70377253D01*
X121287674Y-70472192D01*
X121535240Y-70472408D01*
X121764044Y-70377868D01*
X121939253Y-70202965D01*
X122034192Y-69974326D01*
X122034408Y-69726760D01*
X121939868Y-69497956D01*
X121818400Y-69376275D01*
X121818400Y-67306240D01*
X141109592Y-67306240D01*
X141204132Y-67535044D01*
X141296434Y-67627508D01*
X141204747Y-67719035D01*
X141109808Y-67947674D01*
X141109592Y-68195240D01*
X141204132Y-68424044D01*
X141379035Y-68599253D01*
X141607674Y-68694192D01*
X141855240Y-68694408D01*
X142084044Y-68599868D01*
X142205725Y-68478400D01*
X145068393Y-68478400D01*
X145189035Y-68599253D01*
X145417674Y-68694192D01*
X145665240Y-68694408D01*
X145894044Y-68599868D01*
X146069253Y-68424965D01*
X146164192Y-68196326D01*
X146164408Y-67948760D01*
X146069868Y-67719956D01*
X145977566Y-67627492D01*
X146069253Y-67535965D01*
X146164192Y-67307326D01*
X146164408Y-67059760D01*
X146069868Y-66830956D01*
X145977566Y-66738492D01*
X146069253Y-66646965D01*
X146164192Y-66418326D01*
X146164408Y-66170760D01*
X146069868Y-65941956D01*
X145894965Y-65766747D01*
X145666326Y-65671808D01*
X145418760Y-65671592D01*
X145189956Y-65766132D01*
X145068275Y-65887600D01*
X142713607Y-65887600D01*
X142592965Y-65766747D01*
X142364326Y-65671808D01*
X142116760Y-65671592D01*
X141887956Y-65766132D01*
X141712747Y-65941035D01*
X141617808Y-66169674D01*
X141617592Y-66417240D01*
X141676848Y-66560651D01*
X141608760Y-66560592D01*
X141379956Y-66655132D01*
X141204747Y-66830035D01*
X141109808Y-67058674D01*
X141109592Y-67306240D01*
X121818400Y-67306240D01*
X121818400Y-64893240D01*
X123202592Y-64893240D01*
X123297132Y-65122044D01*
X123418600Y-65243725D01*
X123418600Y-65566393D01*
X123297747Y-65687035D01*
X123202808Y-65915674D01*
X123202592Y-66163240D01*
X123297132Y-66392044D01*
X123472035Y-66567253D01*
X123700674Y-66662192D01*
X123948240Y-66662408D01*
X124177044Y-66567868D01*
X124352253Y-66392965D01*
X124447192Y-66164326D01*
X124447408Y-65916760D01*
X124352868Y-65687956D01*
X124231400Y-65566275D01*
X124231400Y-65243607D01*
X124327935Y-65147240D01*
X141617592Y-65147240D01*
X141712132Y-65376044D01*
X141887035Y-65551253D01*
X142115674Y-65646192D01*
X142363240Y-65646408D01*
X142592044Y-65551868D01*
X142713725Y-65430400D01*
X146338393Y-65430400D01*
X146459035Y-65551253D01*
X146687674Y-65646192D01*
X146935240Y-65646408D01*
X147164044Y-65551868D01*
X147339253Y-65376965D01*
X147434192Y-65148326D01*
X147434408Y-64900760D01*
X147339868Y-64671956D01*
X147164965Y-64496747D01*
X146936326Y-64401808D01*
X146688760Y-64401592D01*
X146459956Y-64496132D01*
X146338275Y-64617600D01*
X142713607Y-64617600D01*
X142592965Y-64496747D01*
X142364326Y-64401808D01*
X142116760Y-64401592D01*
X141887956Y-64496132D01*
X141712747Y-64671035D01*
X141617808Y-64899674D01*
X141617592Y-65147240D01*
X124327935Y-65147240D01*
X124352253Y-65122965D01*
X124447192Y-64894326D01*
X124447408Y-64646760D01*
X124352868Y-64417956D01*
X124177965Y-64242747D01*
X123949326Y-64147808D01*
X123701760Y-64147592D01*
X123472956Y-64242132D01*
X123297747Y-64417035D01*
X123202808Y-64645674D01*
X123202592Y-64893240D01*
X121818400Y-64893240D01*
X121818400Y-64481607D01*
X121939253Y-64360965D01*
X122034192Y-64132326D01*
X122034408Y-63884760D01*
X122031301Y-63877240D01*
X141617592Y-63877240D01*
X141712132Y-64106044D01*
X141887035Y-64281253D01*
X142115674Y-64376192D01*
X142363240Y-64376408D01*
X142592044Y-64281868D01*
X142713725Y-64160400D01*
X145703393Y-64160400D01*
X145824035Y-64281253D01*
X146052674Y-64376192D01*
X146300240Y-64376408D01*
X146529044Y-64281868D01*
X146704253Y-64106965D01*
X146799192Y-63878326D01*
X146799408Y-63630760D01*
X146796301Y-63623240D01*
X149364592Y-63623240D01*
X149459132Y-63852044D01*
X149580600Y-63973725D01*
X149580600Y-68106393D01*
X149459747Y-68227035D01*
X149364808Y-68455674D01*
X149364592Y-68703240D01*
X149459132Y-68932044D01*
X149634035Y-69107253D01*
X149862674Y-69202192D01*
X150110240Y-69202408D01*
X150339044Y-69107868D01*
X150514253Y-68932965D01*
X150609192Y-68704326D01*
X150609408Y-68456760D01*
X150514868Y-68227956D01*
X150393400Y-68106275D01*
X150393400Y-63973607D01*
X150514253Y-63852965D01*
X150609192Y-63624326D01*
X150609408Y-63376760D01*
X150514868Y-63147956D01*
X150339965Y-62972747D01*
X150111326Y-62877808D01*
X149863760Y-62877592D01*
X149634956Y-62972132D01*
X149459747Y-63147035D01*
X149364808Y-63375674D01*
X149364592Y-63623240D01*
X146796301Y-63623240D01*
X146704868Y-63401956D01*
X146529965Y-63226747D01*
X146301326Y-63131808D01*
X146053760Y-63131592D01*
X145824956Y-63226132D01*
X145703275Y-63347600D01*
X142713607Y-63347600D01*
X142592965Y-63226747D01*
X142364326Y-63131808D01*
X142116760Y-63131592D01*
X141887956Y-63226132D01*
X141712747Y-63401035D01*
X141617808Y-63629674D01*
X141617592Y-63877240D01*
X122031301Y-63877240D01*
X121939868Y-63655956D01*
X121764965Y-63480747D01*
X121536326Y-63385808D01*
X121399289Y-63385688D01*
X121399408Y-63249760D01*
X121304868Y-63020956D01*
X121129965Y-62845747D01*
X120901326Y-62750808D01*
X120884769Y-62750794D01*
X120891192Y-62735326D01*
X120891303Y-62607240D01*
X141617592Y-62607240D01*
X141712132Y-62836044D01*
X141887035Y-63011253D01*
X142115674Y-63106192D01*
X142363240Y-63106408D01*
X142592044Y-63011868D01*
X142713725Y-62890400D01*
X145703393Y-62890400D01*
X145824035Y-63011253D01*
X146052674Y-63106192D01*
X146300240Y-63106408D01*
X146529044Y-63011868D01*
X146704253Y-62836965D01*
X146799192Y-62608326D01*
X146799408Y-62360760D01*
X146704868Y-62131956D01*
X146529965Y-61956747D01*
X146301326Y-61861808D01*
X146053760Y-61861592D01*
X145824956Y-61956132D01*
X145703275Y-62077600D01*
X142713607Y-62077600D01*
X142592965Y-61956747D01*
X142364326Y-61861808D01*
X142116760Y-61861592D01*
X141887956Y-61956132D01*
X141712747Y-62131035D01*
X141617808Y-62359674D01*
X141617592Y-62607240D01*
X120891303Y-62607240D01*
X120891408Y-62487760D01*
X120796868Y-62258956D01*
X120621965Y-62083747D01*
X120393326Y-61988808D01*
X120145760Y-61988592D01*
X119916956Y-62083132D01*
X119741747Y-62258035D01*
X119646808Y-62486674D01*
X119646658Y-62658606D01*
X119346632Y-62958632D01*
X119258535Y-63090477D01*
X119227600Y-63246000D01*
X119227600Y-69376393D01*
X119106747Y-69497035D01*
X119011808Y-69725674D01*
X119011592Y-69973240D01*
X91844800Y-69973240D01*
X91844800Y-69213755D01*
X101218890Y-69213755D01*
X101315360Y-69447228D01*
X101493832Y-69626013D01*
X101727137Y-69722889D01*
X101979755Y-69723110D01*
X102213228Y-69626640D01*
X102392013Y-69448168D01*
X102488889Y-69214863D01*
X102489110Y-68962245D01*
X102392640Y-68728772D01*
X102214168Y-68549987D01*
X101980863Y-68453111D01*
X101728245Y-68452890D01*
X101494772Y-68549360D01*
X101315987Y-68727832D01*
X101219111Y-68961137D01*
X101218890Y-69213755D01*
X91844800Y-69213755D01*
X91844800Y-63117755D01*
X97281890Y-63117755D01*
X97378360Y-63351228D01*
X97556832Y-63530013D01*
X97790137Y-63626889D01*
X98042755Y-63627110D01*
X98276228Y-63530640D01*
X98455013Y-63352168D01*
X98551889Y-63118863D01*
X98552110Y-62866245D01*
X98455640Y-62632772D01*
X98277168Y-62453987D01*
X98043863Y-62357111D01*
X97791245Y-62356890D01*
X97557772Y-62453360D01*
X97378987Y-62631832D01*
X97282111Y-62865137D01*
X97281890Y-63117755D01*
X91844800Y-63117755D01*
X91844800Y-60067240D01*
X141617592Y-60067240D01*
X141712132Y-60296044D01*
X141887035Y-60471253D01*
X142115674Y-60566192D01*
X142363240Y-60566408D01*
X142592044Y-60471868D01*
X142713725Y-60350400D01*
X145703393Y-60350400D01*
X145824035Y-60471253D01*
X146052674Y-60566192D01*
X146300240Y-60566408D01*
X146529044Y-60471868D01*
X146704253Y-60296965D01*
X146799192Y-60068326D01*
X146799408Y-59820760D01*
X146704868Y-59591956D01*
X146529965Y-59416747D01*
X146301326Y-59321808D01*
X146053760Y-59321592D01*
X145824956Y-59416132D01*
X145703275Y-59537600D01*
X142713607Y-59537600D01*
X142592965Y-59416747D01*
X142364326Y-59321808D01*
X142116760Y-59321592D01*
X141887956Y-59416132D01*
X141712747Y-59591035D01*
X141617808Y-59819674D01*
X141617592Y-60067240D01*
X91844800Y-60067240D01*
X91844800Y-59053755D01*
X101345890Y-59053755D01*
X101442360Y-59287228D01*
X101620832Y-59466013D01*
X101854137Y-59562889D01*
X102106755Y-59563110D01*
X102340228Y-59466640D01*
X102519013Y-59288168D01*
X102615889Y-59054863D01*
X102616110Y-58802245D01*
X102519640Y-58568772D01*
X102341168Y-58389987D01*
X102107863Y-58293111D01*
X101855245Y-58292890D01*
X101621772Y-58389360D01*
X101442987Y-58567832D01*
X101346111Y-58801137D01*
X101345890Y-59053755D01*
X91844800Y-59053755D01*
X91844800Y-52574240D01*
X126377592Y-52574240D01*
X126472132Y-52803044D01*
X126647035Y-52978253D01*
X126875674Y-53073192D01*
X127123240Y-53073408D01*
X127352044Y-52978868D01*
X127473725Y-52857400D01*
X140242393Y-52857400D01*
X140309600Y-52924725D01*
X140309600Y-53142106D01*
X140205326Y-53098808D01*
X139957760Y-53098592D01*
X139728956Y-53193132D01*
X139553747Y-53368035D01*
X139458808Y-53596674D01*
X139458592Y-53844240D01*
X139553132Y-54073044D01*
X139674600Y-54194725D01*
X139674600Y-54991000D01*
X139705535Y-55146523D01*
X139793632Y-55278368D01*
X141766570Y-57251306D01*
X141712747Y-57305035D01*
X141617808Y-57533674D01*
X141617592Y-57781240D01*
X141712132Y-58010044D01*
X141867934Y-58166119D01*
X141712747Y-58321035D01*
X141617808Y-58549674D01*
X141617592Y-58797240D01*
X141712132Y-59026044D01*
X141887035Y-59201253D01*
X142115674Y-59296192D01*
X142363240Y-59296408D01*
X142592044Y-59201868D01*
X142713725Y-59080400D01*
X144052393Y-59080400D01*
X144173035Y-59201253D01*
X144401674Y-59296192D01*
X144649240Y-59296408D01*
X144878044Y-59201868D01*
X145053253Y-59026965D01*
X145148192Y-58798326D01*
X145148408Y-58550760D01*
X145053868Y-58321956D01*
X144994834Y-58262818D01*
X145036674Y-58280192D01*
X145284240Y-58280408D01*
X145513044Y-58185868D01*
X145688253Y-58010965D01*
X145783192Y-57782326D01*
X145783192Y-57781240D01*
X151269592Y-57781240D01*
X151364132Y-58010044D01*
X151539035Y-58185253D01*
X151767674Y-58280192D01*
X152015240Y-58280408D01*
X152244044Y-58185868D01*
X152419253Y-58010965D01*
X152514192Y-57782326D01*
X152514408Y-57534760D01*
X152419868Y-57305956D01*
X152244965Y-57130747D01*
X152016326Y-57035808D01*
X151768760Y-57035592D01*
X151539956Y-57130132D01*
X151364747Y-57305035D01*
X151269808Y-57533674D01*
X151269592Y-57781240D01*
X145783192Y-57781240D01*
X145783408Y-57534760D01*
X145688868Y-57305956D01*
X145513965Y-57130747D01*
X145285326Y-57035808D01*
X145037760Y-57035592D01*
X144808956Y-57130132D01*
X144687275Y-57251600D01*
X143326894Y-57251600D01*
X143370192Y-57147326D01*
X143370311Y-57010400D01*
X143379240Y-57010408D01*
X143608044Y-56915868D01*
X143729725Y-56794400D01*
X144052393Y-56794400D01*
X144173035Y-56915253D01*
X144401674Y-57010192D01*
X144649240Y-57010408D01*
X144878044Y-56915868D01*
X145053253Y-56740965D01*
X145148192Y-56512326D01*
X145148408Y-56264760D01*
X145053868Y-56035956D01*
X144878965Y-55860747D01*
X144650326Y-55765808D01*
X144513289Y-55765688D01*
X144513408Y-55629760D01*
X144418868Y-55400956D01*
X144243965Y-55225747D01*
X144015326Y-55130808D01*
X143767760Y-55130592D01*
X143538956Y-55225132D01*
X143363747Y-55400035D01*
X143268808Y-55628674D01*
X143268688Y-55765711D01*
X143132760Y-55765592D01*
X142903956Y-55860132D01*
X142782275Y-55981600D01*
X142281336Y-55981600D01*
X141859539Y-55559803D01*
X141941871Y-55593990D01*
X142535525Y-55594509D01*
X143084187Y-55367806D01*
X143504330Y-54948395D01*
X143731990Y-54400129D01*
X143731992Y-54397525D01*
X143922491Y-54397525D01*
X144149194Y-54946187D01*
X144568605Y-55366330D01*
X145116871Y-55593990D01*
X145710525Y-55594509D01*
X146259187Y-55367806D01*
X146679330Y-54948395D01*
X146906990Y-54400129D01*
X146907509Y-53806475D01*
X146680806Y-53257813D01*
X146261395Y-52837670D01*
X146017636Y-52736452D01*
X146519761Y-52736452D01*
X146641313Y-53030628D01*
X146866188Y-53255896D01*
X147160152Y-53377961D01*
X147478452Y-53378239D01*
X147772628Y-53256687D01*
X147997896Y-53031812D01*
X148119961Y-52737848D01*
X148120239Y-52419548D01*
X147998687Y-52125372D01*
X147773812Y-51900104D01*
X147479848Y-51778039D01*
X147161548Y-51777761D01*
X146867372Y-51899313D01*
X146642104Y-52124188D01*
X146520039Y-52418152D01*
X146519761Y-52736452D01*
X146017636Y-52736452D01*
X145713129Y-52610010D01*
X145119475Y-52609491D01*
X144570813Y-52836194D01*
X144150670Y-53255605D01*
X143923010Y-53803871D01*
X143922491Y-54397525D01*
X143731992Y-54397525D01*
X143732509Y-53806475D01*
X143505806Y-53257813D01*
X143086395Y-52837670D01*
X142538129Y-52610010D01*
X141944475Y-52609491D01*
X141395813Y-52836194D01*
X141122400Y-53109131D01*
X141122400Y-52924607D01*
X141243253Y-52803965D01*
X141338192Y-52575326D01*
X141338408Y-52327760D01*
X141243868Y-52098956D01*
X141068965Y-51923747D01*
X140840326Y-51828808D01*
X140592760Y-51828592D01*
X140363956Y-51923132D01*
X140242275Y-52044600D01*
X127473607Y-52044600D01*
X127352965Y-51923747D01*
X127124326Y-51828808D01*
X126876760Y-51828592D01*
X126647956Y-51923132D01*
X126472747Y-52098035D01*
X126377808Y-52326674D01*
X126377592Y-52574240D01*
X91844800Y-52574240D01*
X91844800Y-50942274D01*
X93074691Y-49712383D01*
X97103707Y-49712383D01*
X97535890Y-50758345D01*
X98335446Y-51559298D01*
X99380652Y-51993305D01*
X100512383Y-51994293D01*
X101558345Y-51562110D01*
X101816665Y-51304240D01*
X138188592Y-51304240D01*
X138283132Y-51533044D01*
X138458035Y-51708253D01*
X138686674Y-51803192D01*
X138934240Y-51803408D01*
X139135008Y-51720452D01*
X141439761Y-51720452D01*
X141561313Y-52014628D01*
X141786188Y-52239896D01*
X142080152Y-52361961D01*
X142398452Y-52362239D01*
X142692628Y-52240687D01*
X142917896Y-52015812D01*
X143039961Y-51721848D01*
X143040239Y-51403548D01*
X142918687Y-51109372D01*
X142693812Y-50884104D01*
X142399848Y-50762039D01*
X142081548Y-50761761D01*
X141787372Y-50883313D01*
X141562104Y-51108188D01*
X141440039Y-51402152D01*
X141439761Y-51720452D01*
X139135008Y-51720452D01*
X139163044Y-51708868D01*
X139338253Y-51533965D01*
X139433192Y-51305326D01*
X139433342Y-51133394D01*
X139614336Y-50952400D01*
X140369393Y-50952400D01*
X140490035Y-51073253D01*
X140718674Y-51168192D01*
X140966240Y-51168408D01*
X141195044Y-51073868D01*
X141370253Y-50898965D01*
X141451021Y-50704452D01*
X146519761Y-50704452D01*
X146641313Y-50998628D01*
X146866188Y-51223896D01*
X147160152Y-51345961D01*
X147478452Y-51346239D01*
X147772628Y-51224687D01*
X147997896Y-50999812D01*
X148119961Y-50705848D01*
X148120239Y-50387548D01*
X147998687Y-50093372D01*
X147773812Y-49868104D01*
X147479848Y-49746039D01*
X147161548Y-49745761D01*
X146867372Y-49867313D01*
X146642104Y-50092188D01*
X146520039Y-50386152D01*
X146519761Y-50704452D01*
X141451021Y-50704452D01*
X141465192Y-50670326D01*
X141465408Y-50422760D01*
X141412232Y-50294065D01*
X141941871Y-50513990D01*
X142535525Y-50514509D01*
X143084187Y-50287806D01*
X143504330Y-49868395D01*
X143731990Y-49320129D01*
X143731992Y-49317525D01*
X143922491Y-49317525D01*
X144149194Y-49866187D01*
X144568605Y-50286330D01*
X145116871Y-50513990D01*
X145710525Y-50514509D01*
X146259187Y-50287806D01*
X146679330Y-49868395D01*
X146744111Y-49712383D01*
X151205707Y-49712383D01*
X151637890Y-50758345D01*
X152437446Y-51559298D01*
X153482652Y-51993305D01*
X154614383Y-51994293D01*
X155660345Y-51562110D01*
X156461298Y-50762554D01*
X156895305Y-49717348D01*
X156896293Y-48585617D01*
X156464110Y-47539655D01*
X155664554Y-46738702D01*
X154619348Y-46304695D01*
X153487617Y-46303707D01*
X152441655Y-46735890D01*
X151640702Y-47535446D01*
X151206695Y-48580652D01*
X151205707Y-49712383D01*
X146744111Y-49712383D01*
X146906990Y-49320129D01*
X146907509Y-48726475D01*
X146680806Y-48177813D01*
X146261395Y-47757670D01*
X145713129Y-47530010D01*
X145119475Y-47529491D01*
X144570813Y-47756194D01*
X144150670Y-48175605D01*
X143923010Y-48723871D01*
X143922491Y-49317525D01*
X143731992Y-49317525D01*
X143732509Y-48726475D01*
X143505806Y-48177813D01*
X143086395Y-47757670D01*
X142538129Y-47530010D01*
X141944475Y-47529491D01*
X141395813Y-47756194D01*
X140975670Y-48175605D01*
X140748010Y-48723871D01*
X140747491Y-49317525D01*
X140974194Y-49866187D01*
X141077300Y-49969473D01*
X140967326Y-49923808D01*
X140719760Y-49923592D01*
X140490956Y-50018132D01*
X140369275Y-50139600D01*
X139446000Y-50139600D01*
X139290477Y-50170535D01*
X139158632Y-50258632D01*
X138858523Y-50558741D01*
X138687760Y-50558592D01*
X138458956Y-50653132D01*
X138283747Y-50828035D01*
X138188808Y-51056674D01*
X138188592Y-51304240D01*
X101816665Y-51304240D01*
X102359298Y-50762554D01*
X102793305Y-49717348D01*
X102794293Y-48585617D01*
X102362110Y-47539655D01*
X101562554Y-46738702D01*
X100517348Y-46304695D01*
X99385617Y-46303707D01*
X98339655Y-46735890D01*
X97538702Y-47535446D01*
X97104695Y-48580652D01*
X97103707Y-49712383D01*
X93074691Y-49712383D01*
X100116674Y-42670400D01*
X117500400Y-42670400D01*
X117500400Y-48514000D01*
X117500400Y-48514000D01*
G37*
X117500400Y-48514000D02*
X117507348Y-48550927D01*
X117529172Y-48584843D01*
X117562472Y-48607595D01*
X117602000Y-48615600D01*
X136398000Y-48615600D01*
X136434927Y-48608652D01*
X136468843Y-48586828D01*
X136491595Y-48553528D01*
X136499600Y-48514000D01*
X136499600Y-42670400D01*
X153883326Y-42670400D01*
X162155200Y-50942274D01*
X162155200Y-72034400D01*
X158750000Y-72034400D01*
X158713073Y-72041348D01*
X158679157Y-72063172D01*
X158656405Y-72096472D01*
X158648400Y-72136000D01*
X158648400Y-80264000D01*
X158655348Y-80300927D01*
X158677172Y-80334843D01*
X158710472Y-80357595D01*
X158750000Y-80365600D01*
X162155200Y-80365600D01*
X162155200Y-101584726D01*
X148943026Y-114796900D01*
X105056974Y-114796900D01*
X100800474Y-110540400D01*
X136922400Y-110540400D01*
X136922400Y-111090400D01*
X137072796Y-111541693D01*
X137384446Y-111901079D01*
X137793761Y-112099347D01*
X137979600Y-111984158D01*
X137979600Y-110540400D01*
X138284400Y-110540400D01*
X138284400Y-111984158D01*
X138470239Y-112099347D01*
X138879554Y-111901079D01*
X139191204Y-111541693D01*
X139341600Y-111090400D01*
X139341600Y-110540400D01*
X144122400Y-110540400D01*
X144122400Y-111090400D01*
X144272796Y-111541693D01*
X144584446Y-111901079D01*
X144993761Y-112099347D01*
X145179600Y-111984158D01*
X145179600Y-110540400D01*
X145484400Y-110540400D01*
X145484400Y-111984158D01*
X145670239Y-112099347D01*
X146079554Y-111901079D01*
X146391204Y-111541693D01*
X146541600Y-111090400D01*
X146541600Y-110540400D01*
X145484400Y-110540400D01*
X145179600Y-110540400D01*
X144122400Y-110540400D01*
X139341600Y-110540400D01*
X138284400Y-110540400D01*
X137979600Y-110540400D01*
X136922400Y-110540400D01*
X100800474Y-110540400D01*
X99945674Y-109685600D01*
X136922400Y-109685600D01*
X136922400Y-110235600D01*
X137979600Y-110235600D01*
X137979600Y-108791842D01*
X138284400Y-108791842D01*
X138284400Y-110235600D01*
X139341600Y-110235600D01*
X139341600Y-110122808D01*
X139347035Y-110128253D01*
X139575674Y-110223192D01*
X139823240Y-110223408D01*
X139977183Y-110159800D01*
X142240000Y-110159800D01*
X142453844Y-110117264D01*
X142635131Y-109996131D01*
X142945662Y-109685600D01*
X144122400Y-109685600D01*
X144122400Y-110235600D01*
X145179600Y-110235600D01*
X145179600Y-108791842D01*
X145484400Y-108791842D01*
X145484400Y-110235600D01*
X146541600Y-110235600D01*
X146541600Y-109685600D01*
X146391204Y-109234307D01*
X146079554Y-108874921D01*
X145670239Y-108676653D01*
X145484400Y-108791842D01*
X145179600Y-108791842D01*
X144993761Y-108676653D01*
X144584446Y-108874921D01*
X144272796Y-109234307D01*
X144122400Y-109685600D01*
X142945662Y-109685600D01*
X143427131Y-109204131D01*
X143501742Y-109092468D01*
X143548264Y-109022844D01*
X143590800Y-108809000D01*
X143590800Y-108047733D01*
X143592771Y-108038000D01*
X143592771Y-106990400D01*
X144122400Y-106990400D01*
X144122400Y-107540400D01*
X144272796Y-107991693D01*
X144584446Y-108351079D01*
X144993761Y-108549347D01*
X145179600Y-108434158D01*
X145179600Y-106990400D01*
X145484400Y-106990400D01*
X145484400Y-108434158D01*
X145670239Y-108549347D01*
X146079554Y-108351079D01*
X146391204Y-107991693D01*
X146541600Y-107540400D01*
X146541600Y-106990400D01*
X145484400Y-106990400D01*
X145179600Y-106990400D01*
X144122400Y-106990400D01*
X143592771Y-106990400D01*
X143592771Y-106338000D01*
X143571518Y-106225048D01*
X143513960Y-106135600D01*
X144122400Y-106135600D01*
X144122400Y-106685600D01*
X145179600Y-106685600D01*
X145179600Y-105241842D01*
X145484400Y-105241842D01*
X145484400Y-106685600D01*
X146541600Y-106685600D01*
X146541600Y-106135600D01*
X146391204Y-105684307D01*
X146079554Y-105324921D01*
X145670239Y-105126653D01*
X145484400Y-105241842D01*
X145179600Y-105241842D01*
X144993761Y-105126653D01*
X144584446Y-105324921D01*
X144272796Y-105684307D01*
X144122400Y-106135600D01*
X143513960Y-106135600D01*
X143504763Y-106121308D01*
X143438400Y-106075964D01*
X143438400Y-104456659D01*
X143529253Y-104365965D01*
X143624192Y-104137326D01*
X143624408Y-103889760D01*
X143593263Y-103814383D01*
X151205707Y-103814383D01*
X151637890Y-104860345D01*
X152437446Y-105661298D01*
X153482652Y-106095305D01*
X154614383Y-106096293D01*
X155660345Y-105664110D01*
X156461298Y-104864554D01*
X156895305Y-103819348D01*
X156896293Y-102687617D01*
X156464110Y-101641655D01*
X155664554Y-100840702D01*
X154619348Y-100406695D01*
X153487617Y-100405707D01*
X152441655Y-100837890D01*
X151640702Y-101637446D01*
X151206695Y-102682652D01*
X151205707Y-103814383D01*
X143593263Y-103814383D01*
X143529868Y-103660956D01*
X143354965Y-103485747D01*
X143126326Y-103390808D01*
X142878760Y-103390592D01*
X142649956Y-103485132D01*
X142474747Y-103660035D01*
X142379808Y-103888674D01*
X142379688Y-104025711D01*
X142243760Y-104025592D01*
X142014956Y-104120132D01*
X141839747Y-104295035D01*
X141744808Y-104523674D01*
X141744688Y-104660711D01*
X141608760Y-104660592D01*
X141379956Y-104755132D01*
X141204747Y-104930035D01*
X141109808Y-105158674D01*
X141109592Y-105406240D01*
X141204132Y-105635044D01*
X141325600Y-105756725D01*
X141325600Y-106027229D01*
X141213101Y-106027229D01*
X141198794Y-105992689D01*
X141027311Y-105821206D01*
X140803257Y-105728400D01*
X140709400Y-105728400D01*
X140557000Y-105880800D01*
X140557000Y-106200574D01*
X140545713Y-106217093D01*
X140521229Y-106338000D01*
X140521229Y-108038000D01*
X140542482Y-108150952D01*
X140557000Y-108173514D01*
X140557000Y-108495200D01*
X140709400Y-108647600D01*
X140803257Y-108647600D01*
X141027311Y-108554794D01*
X141198794Y-108383311D01*
X141213101Y-108348771D01*
X141332000Y-108348771D01*
X141409754Y-108334141D01*
X141482000Y-108348771D01*
X141982000Y-108348771D01*
X142059754Y-108334141D01*
X142132000Y-108348771D01*
X142473200Y-108348771D01*
X142473200Y-108577538D01*
X142008538Y-109042200D01*
X139976991Y-109042200D01*
X139824326Y-108978808D01*
X139576760Y-108978592D01*
X139347956Y-109073132D01*
X139189021Y-109231790D01*
X138879554Y-108874921D01*
X138470239Y-108676653D01*
X138284400Y-108791842D01*
X137979600Y-108791842D01*
X137793761Y-108676653D01*
X137384446Y-108874921D01*
X137072796Y-109234307D01*
X136922400Y-109685600D01*
X99945674Y-109685600D01*
X94074457Y-103814383D01*
X97103707Y-103814383D01*
X97535890Y-104860345D01*
X98335446Y-105661298D01*
X99380652Y-106095305D01*
X100512383Y-106096293D01*
X101558345Y-105664110D01*
X101780349Y-105442493D01*
X103683033Y-105442493D01*
X103810597Y-105720537D01*
X104489390Y-105967986D01*
X105211207Y-105936837D01*
X105472707Y-105828521D01*
X105193131Y-106107609D01*
X104902532Y-106807450D01*
X104901870Y-107565226D01*
X105191248Y-108265573D01*
X105726609Y-108801869D01*
X106426450Y-109092468D01*
X107184226Y-109093130D01*
X107884573Y-108803752D01*
X108420869Y-108268391D01*
X108711468Y-107568550D01*
X108711470Y-107565226D01*
X116331870Y-107565226D01*
X116621248Y-108265573D01*
X117156609Y-108801869D01*
X117856450Y-109092468D01*
X118614226Y-109093130D01*
X119314573Y-108803752D01*
X119850869Y-108268391D01*
X120141468Y-107568550D01*
X120141973Y-106990400D01*
X136922400Y-106990400D01*
X136922400Y-107540400D01*
X137072796Y-107991693D01*
X137384446Y-108351079D01*
X137793761Y-108549347D01*
X137979600Y-108434158D01*
X137979600Y-106990400D01*
X138284400Y-106990400D01*
X138284400Y-108434158D01*
X138470239Y-108549347D01*
X138879554Y-108351079D01*
X139191204Y-107991693D01*
X139341600Y-107540400D01*
X139341600Y-107492800D01*
X139572400Y-107492800D01*
X139572400Y-108159257D01*
X139665206Y-108383311D01*
X139836689Y-108554794D01*
X140060743Y-108647600D01*
X140154600Y-108647600D01*
X140307000Y-108495200D01*
X140307000Y-107340400D01*
X139724800Y-107340400D01*
X139572400Y-107492800D01*
X139341600Y-107492800D01*
X139341600Y-106990400D01*
X138284400Y-106990400D01*
X137979600Y-106990400D01*
X136922400Y-106990400D01*
X120141973Y-106990400D01*
X120142130Y-106810774D01*
X119863154Y-106135600D01*
X136922400Y-106135600D01*
X136922400Y-106685600D01*
X137979600Y-106685600D01*
X137979600Y-105241842D01*
X138284400Y-105241842D01*
X138284400Y-106685600D01*
X139341600Y-106685600D01*
X139341600Y-106216743D01*
X139572400Y-106216743D01*
X139572400Y-106883200D01*
X139724800Y-107035600D01*
X140307000Y-107035600D01*
X140307000Y-105880800D01*
X140154600Y-105728400D01*
X140060743Y-105728400D01*
X139836689Y-105821206D01*
X139665206Y-105992689D01*
X139572400Y-106216743D01*
X139341600Y-106216743D01*
X139341600Y-106135600D01*
X139191204Y-105684307D01*
X138879554Y-105324921D01*
X138470239Y-105126653D01*
X138284400Y-105241842D01*
X137979600Y-105241842D01*
X137793761Y-105126653D01*
X137384446Y-105324921D01*
X137072796Y-105684307D01*
X136922400Y-106135600D01*
X119863154Y-106135600D01*
X119852752Y-106110427D01*
X119551041Y-105808189D01*
X119989390Y-105967986D01*
X120711207Y-105936837D01*
X121233403Y-105720537D01*
X121360967Y-105442493D01*
X120272000Y-104353526D01*
X120257858Y-104367669D01*
X120042332Y-104152143D01*
X120056474Y-104138000D01*
X120487526Y-104138000D01*
X121576493Y-105226967D01*
X121854537Y-105099403D01*
X122101986Y-104420610D01*
X122070837Y-103698793D01*
X121854537Y-103176597D01*
X121576493Y-103049033D01*
X120487526Y-104138000D01*
X120056474Y-104138000D01*
X118967507Y-103049033D01*
X118689463Y-103176597D01*
X118442014Y-103855390D01*
X118473163Y-104577207D01*
X118689463Y-105099403D01*
X118967505Y-105226966D01*
X118856308Y-105338163D01*
X118932424Y-105414279D01*
X118617550Y-105283532D01*
X117859774Y-105282870D01*
X117159427Y-105572248D01*
X116623131Y-106107609D01*
X116332532Y-106807450D01*
X116331870Y-107565226D01*
X108711470Y-107565226D01*
X108712130Y-106810774D01*
X108422752Y-106110427D01*
X107887391Y-105574131D01*
X107187550Y-105283532D01*
X106429774Y-105282870D01*
X106111461Y-105414394D01*
X106187692Y-105338163D01*
X106076495Y-105226966D01*
X106354537Y-105099403D01*
X106601986Y-104420610D01*
X106570837Y-103698793D01*
X106354537Y-103176597D01*
X106076493Y-103049033D01*
X104987526Y-104138000D01*
X105001669Y-104152143D01*
X104786143Y-104367669D01*
X104772000Y-104353526D01*
X103683033Y-105442493D01*
X101780349Y-105442493D01*
X102359298Y-104864554D01*
X102778339Y-103855390D01*
X102942014Y-103855390D01*
X102973163Y-104577207D01*
X103189463Y-105099403D01*
X103467507Y-105226967D01*
X104556474Y-104138000D01*
X103467507Y-103049033D01*
X103189463Y-103176597D01*
X102942014Y-103855390D01*
X102778339Y-103855390D01*
X102793305Y-103819348D01*
X102794165Y-102833507D01*
X103683033Y-102833507D01*
X104772000Y-103922474D01*
X105860967Y-102833507D01*
X119183033Y-102833507D01*
X120272000Y-103922474D01*
X121360967Y-102833507D01*
X121233403Y-102555463D01*
X120554610Y-102308014D01*
X119832793Y-102339163D01*
X119310597Y-102555463D01*
X119183033Y-102833507D01*
X105860967Y-102833507D01*
X105733403Y-102555463D01*
X105054610Y-102308014D01*
X104332793Y-102339163D01*
X103810597Y-102555463D01*
X103683033Y-102833507D01*
X102794165Y-102833507D01*
X102794293Y-102687617D01*
X102362110Y-101641655D01*
X101562554Y-100840702D01*
X100517348Y-100406695D01*
X99385617Y-100405707D01*
X98339655Y-100837890D01*
X97538702Y-101637446D01*
X97104695Y-102682652D01*
X97103707Y-103814383D01*
X94074457Y-103814383D01*
X91844800Y-101584726D01*
X91844800Y-98496693D01*
X107073526Y-98496693D01*
X107225948Y-98865581D01*
X107507934Y-99148061D01*
X107876556Y-99301126D01*
X108275693Y-99301474D01*
X108644581Y-99149052D01*
X108927061Y-98867066D01*
X108940600Y-98834460D01*
X108940600Y-99920349D01*
X108779419Y-99986948D01*
X108496939Y-100268934D01*
X108343874Y-100637556D01*
X108343526Y-101036693D01*
X108495948Y-101405581D01*
X108777934Y-101688061D01*
X109146556Y-101841126D01*
X109545693Y-101841474D01*
X109914581Y-101689052D01*
X110197061Y-101407066D01*
X110350126Y-101038444D01*
X110350474Y-100639307D01*
X110198052Y-100270419D01*
X109916066Y-99987939D01*
X109753400Y-99920394D01*
X109753400Y-98835213D01*
X109765948Y-98865581D01*
X110047934Y-99148061D01*
X110416556Y-99301126D01*
X110815693Y-99301474D01*
X111184581Y-99149052D01*
X111467061Y-98867066D01*
X111480600Y-98834460D01*
X111480600Y-99920349D01*
X111319419Y-99986948D01*
X111036939Y-100268934D01*
X110883874Y-100637556D01*
X110883844Y-100671538D01*
X110876535Y-100682477D01*
X110845600Y-100838000D01*
X110876535Y-100993523D01*
X110883554Y-101004028D01*
X110883526Y-101036693D01*
X111035948Y-101405581D01*
X111317934Y-101688061D01*
X111686556Y-101841126D01*
X112085693Y-101841474D01*
X112454581Y-101689052D01*
X112737061Y-101407066D01*
X112890126Y-101038444D01*
X112890127Y-101036693D01*
X113423526Y-101036693D01*
X113575948Y-101405581D01*
X113857934Y-101688061D01*
X114226556Y-101841126D01*
X114625693Y-101841474D01*
X114994581Y-101689052D01*
X115277061Y-101407066D01*
X115430126Y-101038444D01*
X115430127Y-101036693D01*
X115963526Y-101036693D01*
X116115948Y-101405581D01*
X116397934Y-101688061D01*
X116766556Y-101841126D01*
X117165693Y-101841474D01*
X117534581Y-101689052D01*
X117817061Y-101407066D01*
X117970126Y-101038444D01*
X117970474Y-100639307D01*
X117818052Y-100270419D01*
X117536066Y-99987939D01*
X117167444Y-99834874D01*
X116768307Y-99834526D01*
X116399419Y-99986948D01*
X116116939Y-100268934D01*
X115963874Y-100637556D01*
X115963526Y-101036693D01*
X115430127Y-101036693D01*
X115430474Y-100639307D01*
X115278052Y-100270419D01*
X114996066Y-99987939D01*
X114627444Y-99834874D01*
X114228307Y-99834526D01*
X113859419Y-99986948D01*
X113576939Y-100268934D01*
X113423874Y-100637556D01*
X113423526Y-101036693D01*
X112890127Y-101036693D01*
X112890474Y-100639307D01*
X112738052Y-100270419D01*
X112456066Y-99987939D01*
X112293400Y-99920394D01*
X112293400Y-98835213D01*
X112305948Y-98865581D01*
X112587934Y-99148061D01*
X112956556Y-99301126D01*
X113355693Y-99301474D01*
X113518732Y-99234107D01*
X114976419Y-99234107D01*
X115041484Y-99459519D01*
X115535876Y-99621958D01*
X116054798Y-99582838D01*
X116352516Y-99459519D01*
X116417581Y-99234107D01*
X115697000Y-98513526D01*
X114976419Y-99234107D01*
X113518732Y-99234107D01*
X113724581Y-99149052D01*
X114007061Y-98867066D01*
X114160126Y-98498444D01*
X114160441Y-98136876D01*
X114373042Y-98136876D01*
X114412162Y-98655798D01*
X114535481Y-98953516D01*
X114760893Y-99018581D01*
X115481474Y-98298000D01*
X115912526Y-98298000D01*
X116633107Y-99018581D01*
X116858519Y-98953516D01*
X117020958Y-98459124D01*
X116981838Y-97940202D01*
X116858519Y-97642484D01*
X116633107Y-97577419D01*
X115912526Y-98298000D01*
X115481474Y-98298000D01*
X114760893Y-97577419D01*
X114535481Y-97642484D01*
X114373042Y-98136876D01*
X114160441Y-98136876D01*
X114160474Y-98099307D01*
X114008052Y-97730419D01*
X113726066Y-97447939D01*
X113518844Y-97361893D01*
X114976419Y-97361893D01*
X115697000Y-98082474D01*
X116417581Y-97361893D01*
X116352516Y-97136481D01*
X115858124Y-96974042D01*
X115339202Y-97013162D01*
X115041484Y-97136481D01*
X114976419Y-97361893D01*
X113518844Y-97361893D01*
X113357444Y-97294874D01*
X113236505Y-97294769D01*
X112203976Y-96262240D01*
X152539592Y-96262240D01*
X152634132Y-96491044D01*
X152809035Y-96666253D01*
X153037674Y-96761192D01*
X153285240Y-96761408D01*
X153514044Y-96666868D01*
X153689253Y-96491965D01*
X153784192Y-96263326D01*
X153784408Y-96015760D01*
X153689868Y-95786956D01*
X153514965Y-95611747D01*
X153286326Y-95516808D01*
X153038760Y-95516592D01*
X152809956Y-95611132D01*
X152634747Y-95786035D01*
X152539808Y-96014674D01*
X152539592Y-96262240D01*
X112203976Y-96262240D01*
X111031368Y-95089632D01*
X110899523Y-95001535D01*
X110744000Y-94970600D01*
X110582607Y-94970600D01*
X110461965Y-94849747D01*
X110233326Y-94754808D01*
X109985760Y-94754592D01*
X109756956Y-94849132D01*
X109753400Y-94852682D01*
X109753400Y-89531240D01*
X117106592Y-89531240D01*
X117201132Y-89760044D01*
X117376035Y-89935253D01*
X117604674Y-90030192D01*
X117776606Y-90030342D01*
X119646741Y-91900478D01*
X119646592Y-92071240D01*
X119741132Y-92300044D01*
X119916035Y-92475253D01*
X120144674Y-92570192D01*
X120392240Y-92570408D01*
X120621044Y-92475868D01*
X120796253Y-92300965D01*
X120891192Y-92072326D01*
X120891408Y-91824760D01*
X120810369Y-91628631D01*
X121075006Y-91893268D01*
X121138132Y-92046044D01*
X121313035Y-92221253D01*
X121541674Y-92316192D01*
X121789240Y-92316408D01*
X122018044Y-92221868D01*
X122193253Y-92046965D01*
X122288192Y-91818326D01*
X122288303Y-91690240D01*
X139966592Y-91690240D01*
X140061132Y-91919044D01*
X140236035Y-92094253D01*
X140464674Y-92189192D01*
X140712240Y-92189408D01*
X140941044Y-92094868D01*
X141116253Y-91919965D01*
X141211192Y-91691326D01*
X141211408Y-91443760D01*
X141116868Y-91214956D01*
X140995400Y-91093275D01*
X140995400Y-88007240D01*
X141363592Y-88007240D01*
X141458132Y-88236044D01*
X141579600Y-88357725D01*
X141579600Y-91601393D01*
X141458747Y-91722035D01*
X141363808Y-91950674D01*
X141363592Y-92198240D01*
X141458132Y-92427044D01*
X141633035Y-92602253D01*
X141861674Y-92697192D01*
X142109240Y-92697408D01*
X142338044Y-92602868D01*
X142513253Y-92427965D01*
X142608192Y-92199326D01*
X142608312Y-92062289D01*
X142744240Y-92062408D01*
X142973044Y-91967868D01*
X143148253Y-91792965D01*
X143243192Y-91564326D01*
X143243408Y-91316760D01*
X143148868Y-91087956D01*
X143027400Y-90966275D01*
X143027400Y-89500607D01*
X143148253Y-89379965D01*
X143243192Y-89151326D01*
X143243408Y-88903760D01*
X143148868Y-88674956D01*
X142973965Y-88499747D01*
X142745326Y-88404808D01*
X142497760Y-88404592D01*
X142392400Y-88448126D01*
X142392400Y-88357607D01*
X142513253Y-88236965D01*
X142608192Y-88008326D01*
X142608408Y-87760760D01*
X142605301Y-87753240D01*
X143268592Y-87753240D01*
X143363132Y-87982044D01*
X143484600Y-88103725D01*
X143484600Y-90077393D01*
X143363747Y-90198035D01*
X143268808Y-90426674D01*
X143268592Y-90674240D01*
X143363132Y-90903044D01*
X143538035Y-91078253D01*
X143766674Y-91173192D01*
X144014240Y-91173408D01*
X144243044Y-91078868D01*
X144418253Y-90903965D01*
X144513192Y-90675326D01*
X144513408Y-90427760D01*
X144418868Y-90198956D01*
X144297400Y-90077275D01*
X144297400Y-88784570D01*
X149361367Y-88784570D01*
X149403487Y-89227179D01*
X149491833Y-89440466D01*
X149697625Y-89481849D01*
X150279474Y-88900000D01*
X149697625Y-88318151D01*
X149491833Y-88359534D01*
X149361367Y-88784570D01*
X144297400Y-88784570D01*
X144297400Y-88103607D01*
X144418253Y-87982965D01*
X144513192Y-87754326D01*
X144513408Y-87506760D01*
X144510301Y-87499240D01*
X148475592Y-87499240D01*
X148570132Y-87728044D01*
X148745035Y-87903253D01*
X148973674Y-87998192D01*
X149221240Y-87998408D01*
X149450044Y-87903868D01*
X149625253Y-87728965D01*
X149720192Y-87500326D01*
X149720342Y-87328394D01*
X152433368Y-84615368D01*
X152436931Y-84610035D01*
X152501600Y-84513253D01*
X152501600Y-88184379D01*
X152495763Y-88175308D01*
X152393907Y-88105713D01*
X152273000Y-88081229D01*
X151284904Y-88081229D01*
X151191573Y-87987898D01*
X151076848Y-88102623D01*
X151035466Y-87896833D01*
X150610430Y-87766367D01*
X150167821Y-87808487D01*
X149954534Y-87896833D01*
X149913151Y-88102625D01*
X150495000Y-88684474D01*
X150509143Y-88670332D01*
X150724669Y-88885858D01*
X150710526Y-88900000D01*
X150724669Y-88914143D01*
X150509143Y-89129669D01*
X150495000Y-89115526D01*
X150196737Y-89413789D01*
X150035187Y-89480540D01*
X149806343Y-89708984D01*
X149682341Y-90007615D01*
X149682059Y-90330967D01*
X149805540Y-90629813D01*
X149980526Y-90805105D01*
X149806343Y-90978984D01*
X149682341Y-91277615D01*
X149682059Y-91600967D01*
X149805540Y-91899813D01*
X149980526Y-92075105D01*
X149806343Y-92248984D01*
X149682341Y-92547615D01*
X149682059Y-92870967D01*
X149805540Y-93169813D01*
X149980526Y-93345105D01*
X149806343Y-93518984D01*
X149682341Y-93817615D01*
X149682059Y-94140967D01*
X149805540Y-94439813D01*
X149955065Y-94589600D01*
X149952607Y-94589600D01*
X149831965Y-94468747D01*
X149603326Y-94373808D01*
X149355760Y-94373592D01*
X149126956Y-94468132D01*
X148951747Y-94643035D01*
X148856808Y-94871674D01*
X148856592Y-95119240D01*
X148951132Y-95348044D01*
X149126035Y-95523253D01*
X149354674Y-95618192D01*
X149602240Y-95618408D01*
X149831044Y-95523868D01*
X149952725Y-95402400D01*
X152908000Y-95402400D01*
X153063523Y-95371465D01*
X153195368Y-95283368D01*
X154084368Y-94394368D01*
X154098250Y-94373592D01*
X154172465Y-94262523D01*
X154203400Y-94107000D01*
X154203400Y-76038607D01*
X154324253Y-75917965D01*
X154419192Y-75689326D01*
X154419408Y-75441760D01*
X154324868Y-75212956D01*
X154149965Y-75037747D01*
X153921326Y-74942808D01*
X153673760Y-74942592D01*
X153444956Y-75037132D01*
X153269747Y-75212035D01*
X153174808Y-75440674D01*
X153174592Y-75688240D01*
X153269132Y-75917044D01*
X153390600Y-76038725D01*
X153390600Y-77199609D01*
X153260965Y-77069747D01*
X153032326Y-76974808D01*
X152784760Y-76974592D01*
X152555956Y-77069132D01*
X152380747Y-77244035D01*
X152285808Y-77472674D01*
X152285592Y-77720240D01*
X152360361Y-77901194D01*
X152270326Y-77863808D01*
X152022760Y-77863592D01*
X151793956Y-77958132D01*
X151618747Y-78133035D01*
X151523808Y-78361674D01*
X151523592Y-78609240D01*
X151618132Y-78838044D01*
X151739600Y-78959725D01*
X151739600Y-84159664D01*
X149145523Y-86753741D01*
X148974760Y-86753592D01*
X148745956Y-86848132D01*
X148570747Y-87023035D01*
X148475808Y-87251674D01*
X148475592Y-87499240D01*
X144510301Y-87499240D01*
X144418868Y-87277956D01*
X144243965Y-87102747D01*
X144015326Y-87007808D01*
X143767760Y-87007592D01*
X143538956Y-87102132D01*
X143363747Y-87277035D01*
X143268808Y-87505674D01*
X143268592Y-87753240D01*
X142605301Y-87753240D01*
X142513868Y-87531956D01*
X142338965Y-87356747D01*
X142110326Y-87261808D01*
X141862760Y-87261592D01*
X141633956Y-87356132D01*
X141458747Y-87531035D01*
X141363808Y-87759674D01*
X141363592Y-88007240D01*
X140995400Y-88007240D01*
X140995400Y-85520884D01*
X141068044Y-85490868D01*
X141243253Y-85315965D01*
X141338192Y-85087326D01*
X141338408Y-84839760D01*
X141243868Y-84610956D01*
X141068965Y-84435747D01*
X140840326Y-84340808D01*
X140592760Y-84340592D01*
X140363956Y-84435132D01*
X140188747Y-84610035D01*
X140093808Y-84838674D01*
X140093592Y-85086240D01*
X140182600Y-85301656D01*
X140182600Y-91093393D01*
X140061747Y-91214035D01*
X139966808Y-91442674D01*
X139966592Y-91690240D01*
X122288303Y-91690240D01*
X122288408Y-91570760D01*
X122193868Y-91341956D01*
X122018965Y-91166747D01*
X121865132Y-91102870D01*
X119970994Y-89208732D01*
X119907868Y-89055956D01*
X119732965Y-88880747D01*
X119504326Y-88785808D01*
X119256760Y-88785592D01*
X119027956Y-88880132D01*
X118852747Y-89055035D01*
X118757808Y-89283674D01*
X118757592Y-89531240D01*
X118852132Y-89760044D01*
X119027035Y-89935253D01*
X119180868Y-89999130D01*
X120588652Y-91406914D01*
X120393326Y-91325808D01*
X120221395Y-91325658D01*
X118351259Y-89455523D01*
X118351408Y-89284760D01*
X118256868Y-89055956D01*
X118081965Y-88880747D01*
X117853326Y-88785808D01*
X117605760Y-88785592D01*
X117376956Y-88880132D01*
X117201747Y-89055035D01*
X117106808Y-89283674D01*
X117106592Y-89531240D01*
X109753400Y-89531240D01*
X109753400Y-86909336D01*
X110315477Y-86347259D01*
X110486240Y-86347408D01*
X110715044Y-86252868D01*
X110890253Y-86077965D01*
X110985192Y-85849326D01*
X110985408Y-85601760D01*
X110890868Y-85372956D01*
X110715965Y-85197747D01*
X110487326Y-85102808D01*
X110239760Y-85102592D01*
X110010956Y-85197132D01*
X109835747Y-85372035D01*
X109740808Y-85600674D01*
X109740658Y-85772606D01*
X109059632Y-86453632D01*
X108971535Y-86585477D01*
X108940600Y-86741000D01*
X108940600Y-97760787D01*
X108928052Y-97730419D01*
X108646066Y-97447939D01*
X108483400Y-97380394D01*
X108483400Y-86233000D01*
X108452465Y-86077477D01*
X108445224Y-86066640D01*
X108445408Y-85855760D01*
X108350868Y-85626956D01*
X108175965Y-85451747D01*
X107947326Y-85356808D01*
X107699760Y-85356592D01*
X107470956Y-85451132D01*
X107295747Y-85626035D01*
X107200808Y-85854674D01*
X107200592Y-86102240D01*
X107295132Y-86331044D01*
X107470035Y-86506253D01*
X107670600Y-86589535D01*
X107670600Y-97380349D01*
X107509419Y-97446948D01*
X107226939Y-97728934D01*
X107073874Y-98097556D01*
X107073526Y-98496693D01*
X91844800Y-98496693D01*
X91844800Y-93470755D01*
X97281890Y-93470755D01*
X97378360Y-93704228D01*
X97556832Y-93883013D01*
X97790137Y-93979889D01*
X98042755Y-93980110D01*
X98276228Y-93883640D01*
X98455013Y-93705168D01*
X98551889Y-93471863D01*
X98552110Y-93219245D01*
X98455640Y-92985772D01*
X98277168Y-92806987D01*
X98043863Y-92710111D01*
X97791245Y-92709890D01*
X97557772Y-92806360D01*
X97378987Y-92984832D01*
X97282111Y-93218137D01*
X97281890Y-93470755D01*
X91844800Y-93470755D01*
X91844800Y-90912440D01*
X97421592Y-90912440D01*
X97516132Y-91141244D01*
X97691035Y-91316453D01*
X97866379Y-91389262D01*
X97691956Y-91461332D01*
X97516747Y-91636235D01*
X97421808Y-91864874D01*
X97421592Y-92112440D01*
X97516132Y-92341244D01*
X97691035Y-92516453D01*
X97919674Y-92611392D01*
X98167240Y-92611608D01*
X98396044Y-92517068D01*
X98571253Y-92342165D01*
X98666192Y-92113526D01*
X98666342Y-91941594D01*
X98740936Y-91867000D01*
X102849400Y-91867000D01*
X103004923Y-91836065D01*
X103136768Y-91747968D01*
X104092477Y-90792259D01*
X104263240Y-90792408D01*
X104492044Y-90697868D01*
X104667253Y-90522965D01*
X104762192Y-90294326D01*
X104762408Y-90046760D01*
X104667868Y-89817956D01*
X104492965Y-89642747D01*
X104264326Y-89547808D01*
X104016760Y-89547592D01*
X103787956Y-89642132D01*
X103612747Y-89817035D01*
X103517808Y-90045674D01*
X103517658Y-90217606D01*
X103184345Y-90550919D01*
X103143868Y-90452956D01*
X102968965Y-90277747D01*
X102740326Y-90182808D01*
X102492760Y-90182592D01*
X102263956Y-90277132D01*
X102142275Y-90398600D01*
X98533379Y-90398600D01*
X98396965Y-90261947D01*
X98168326Y-90167008D01*
X97920760Y-90166792D01*
X97691956Y-90261332D01*
X97516747Y-90436235D01*
X97421808Y-90664874D01*
X97421592Y-90912440D01*
X91844800Y-90912440D01*
X91844800Y-89406755D01*
X101345890Y-89406755D01*
X101442360Y-89640228D01*
X101620832Y-89819013D01*
X101854137Y-89915889D01*
X102106755Y-89916110D01*
X102340228Y-89819640D01*
X102519013Y-89641168D01*
X102615889Y-89407863D01*
X102616110Y-89155245D01*
X102519640Y-88921772D01*
X102341168Y-88742987D01*
X102107863Y-88646111D01*
X101855245Y-88645890D01*
X101621772Y-88742360D01*
X101442987Y-88920832D01*
X101346111Y-89154137D01*
X101345890Y-89406755D01*
X91844800Y-89406755D01*
X91844800Y-83054240D01*
X147967592Y-83054240D01*
X148062132Y-83283044D01*
X148237035Y-83458253D01*
X148465674Y-83553192D01*
X148713240Y-83553408D01*
X148942044Y-83458868D01*
X149063725Y-83337400D01*
X150021393Y-83337400D01*
X150142035Y-83458253D01*
X150370674Y-83553192D01*
X150618240Y-83553408D01*
X150847044Y-83458868D01*
X151022253Y-83283965D01*
X151117192Y-83055326D01*
X151117408Y-82807760D01*
X151022868Y-82578956D01*
X150847965Y-82403747D01*
X150619326Y-82308808D01*
X150371760Y-82308592D01*
X150142956Y-82403132D01*
X150021275Y-82524600D01*
X149063607Y-82524600D01*
X148942965Y-82403747D01*
X148714326Y-82308808D01*
X148466760Y-82308592D01*
X148237956Y-82403132D01*
X148062747Y-82578035D01*
X147967808Y-82806674D01*
X147967592Y-83054240D01*
X91844800Y-83054240D01*
X91844800Y-80006240D01*
X146443592Y-80006240D01*
X146538132Y-80235044D01*
X146713035Y-80410253D01*
X146941674Y-80505192D01*
X147189240Y-80505408D01*
X147418044Y-80410868D01*
X147593253Y-80235965D01*
X147688192Y-80007326D01*
X147688408Y-79759760D01*
X147593868Y-79530956D01*
X147418965Y-79355747D01*
X147190326Y-79260808D01*
X146942760Y-79260592D01*
X146713956Y-79355132D01*
X146538747Y-79530035D01*
X146443808Y-79758674D01*
X146443592Y-80006240D01*
X91844800Y-80006240D01*
X91844800Y-73277755D01*
X97154890Y-73277755D01*
X97251360Y-73511228D01*
X97429832Y-73690013D01*
X97663137Y-73786889D01*
X97915755Y-73787110D01*
X98149228Y-73690640D01*
X98328013Y-73512168D01*
X98424889Y-73278863D01*
X98425110Y-73026245D01*
X98328640Y-72792772D01*
X98150168Y-72613987D01*
X97916863Y-72517111D01*
X97664245Y-72516890D01*
X97430772Y-72613360D01*
X97251987Y-72791832D01*
X97155111Y-73025137D01*
X97154890Y-73277755D01*
X91844800Y-73277755D01*
X91844800Y-71370240D01*
X146697592Y-71370240D01*
X146792132Y-71599044D01*
X146967035Y-71774253D01*
X147195674Y-71869192D01*
X147443240Y-71869408D01*
X147672044Y-71774868D01*
X147847253Y-71599965D01*
X147942192Y-71371326D01*
X147942408Y-71123760D01*
X147847868Y-70894956D01*
X147672965Y-70719747D01*
X147444326Y-70624808D01*
X147196760Y-70624592D01*
X146967956Y-70719132D01*
X146792747Y-70894035D01*
X146697808Y-71122674D01*
X146697592Y-71370240D01*
X91844800Y-71370240D01*
X91844800Y-69973240D01*
X119011592Y-69973240D01*
X119106132Y-70202044D01*
X119281035Y-70377253D01*
X119509674Y-70472192D01*
X119757240Y-70472408D01*
X119986044Y-70377868D01*
X120078508Y-70285566D01*
X120170035Y-70377253D01*
X120398674Y-70472192D01*
X120646240Y-70472408D01*
X120875044Y-70377868D01*
X120967508Y-70285566D01*
X121059035Y-70377253D01*
X121287674Y-70472192D01*
X121535240Y-70472408D01*
X121764044Y-70377868D01*
X121939253Y-70202965D01*
X122034192Y-69974326D01*
X122034408Y-69726760D01*
X121939868Y-69497956D01*
X121818400Y-69376275D01*
X121818400Y-67306240D01*
X141109592Y-67306240D01*
X141204132Y-67535044D01*
X141296434Y-67627508D01*
X141204747Y-67719035D01*
X141109808Y-67947674D01*
X141109592Y-68195240D01*
X141204132Y-68424044D01*
X141379035Y-68599253D01*
X141607674Y-68694192D01*
X141855240Y-68694408D01*
X142084044Y-68599868D01*
X142205725Y-68478400D01*
X145068393Y-68478400D01*
X145189035Y-68599253D01*
X145417674Y-68694192D01*
X145665240Y-68694408D01*
X145894044Y-68599868D01*
X146069253Y-68424965D01*
X146164192Y-68196326D01*
X146164408Y-67948760D01*
X146069868Y-67719956D01*
X145977566Y-67627492D01*
X146069253Y-67535965D01*
X146164192Y-67307326D01*
X146164408Y-67059760D01*
X146069868Y-66830956D01*
X145977566Y-66738492D01*
X146069253Y-66646965D01*
X146164192Y-66418326D01*
X146164408Y-66170760D01*
X146069868Y-65941956D01*
X145894965Y-65766747D01*
X145666326Y-65671808D01*
X145418760Y-65671592D01*
X145189956Y-65766132D01*
X145068275Y-65887600D01*
X142713607Y-65887600D01*
X142592965Y-65766747D01*
X142364326Y-65671808D01*
X142116760Y-65671592D01*
X141887956Y-65766132D01*
X141712747Y-65941035D01*
X141617808Y-66169674D01*
X141617592Y-66417240D01*
X141676848Y-66560651D01*
X141608760Y-66560592D01*
X141379956Y-66655132D01*
X141204747Y-66830035D01*
X141109808Y-67058674D01*
X141109592Y-67306240D01*
X121818400Y-67306240D01*
X121818400Y-64893240D01*
X123202592Y-64893240D01*
X123297132Y-65122044D01*
X123418600Y-65243725D01*
X123418600Y-65566393D01*
X123297747Y-65687035D01*
X123202808Y-65915674D01*
X123202592Y-66163240D01*
X123297132Y-66392044D01*
X123472035Y-66567253D01*
X123700674Y-66662192D01*
X123948240Y-66662408D01*
X124177044Y-66567868D01*
X124352253Y-66392965D01*
X124447192Y-66164326D01*
X124447408Y-65916760D01*
X124352868Y-65687956D01*
X124231400Y-65566275D01*
X124231400Y-65243607D01*
X124327935Y-65147240D01*
X141617592Y-65147240D01*
X141712132Y-65376044D01*
X141887035Y-65551253D01*
X142115674Y-65646192D01*
X142363240Y-65646408D01*
X142592044Y-65551868D01*
X142713725Y-65430400D01*
X146338393Y-65430400D01*
X146459035Y-65551253D01*
X146687674Y-65646192D01*
X146935240Y-65646408D01*
X147164044Y-65551868D01*
X147339253Y-65376965D01*
X147434192Y-65148326D01*
X147434408Y-64900760D01*
X147339868Y-64671956D01*
X147164965Y-64496747D01*
X146936326Y-64401808D01*
X146688760Y-64401592D01*
X146459956Y-64496132D01*
X146338275Y-64617600D01*
X142713607Y-64617600D01*
X142592965Y-64496747D01*
X142364326Y-64401808D01*
X142116760Y-64401592D01*
X141887956Y-64496132D01*
X141712747Y-64671035D01*
X141617808Y-64899674D01*
X141617592Y-65147240D01*
X124327935Y-65147240D01*
X124352253Y-65122965D01*
X124447192Y-64894326D01*
X124447408Y-64646760D01*
X124352868Y-64417956D01*
X124177965Y-64242747D01*
X123949326Y-64147808D01*
X123701760Y-64147592D01*
X123472956Y-64242132D01*
X123297747Y-64417035D01*
X123202808Y-64645674D01*
X123202592Y-64893240D01*
X121818400Y-64893240D01*
X121818400Y-64481607D01*
X121939253Y-64360965D01*
X122034192Y-64132326D01*
X122034408Y-63884760D01*
X122031301Y-63877240D01*
X141617592Y-63877240D01*
X141712132Y-64106044D01*
X141887035Y-64281253D01*
X142115674Y-64376192D01*
X142363240Y-64376408D01*
X142592044Y-64281868D01*
X142713725Y-64160400D01*
X145703393Y-64160400D01*
X145824035Y-64281253D01*
X146052674Y-64376192D01*
X146300240Y-64376408D01*
X146529044Y-64281868D01*
X146704253Y-64106965D01*
X146799192Y-63878326D01*
X146799408Y-63630760D01*
X146796301Y-63623240D01*
X149364592Y-63623240D01*
X149459132Y-63852044D01*
X149580600Y-63973725D01*
X149580600Y-68106393D01*
X149459747Y-68227035D01*
X149364808Y-68455674D01*
X149364592Y-68703240D01*
X149459132Y-68932044D01*
X149634035Y-69107253D01*
X149862674Y-69202192D01*
X150110240Y-69202408D01*
X150339044Y-69107868D01*
X150514253Y-68932965D01*
X150609192Y-68704326D01*
X150609408Y-68456760D01*
X150514868Y-68227956D01*
X150393400Y-68106275D01*
X150393400Y-63973607D01*
X150514253Y-63852965D01*
X150609192Y-63624326D01*
X150609408Y-63376760D01*
X150514868Y-63147956D01*
X150339965Y-62972747D01*
X150111326Y-62877808D01*
X149863760Y-62877592D01*
X149634956Y-62972132D01*
X149459747Y-63147035D01*
X149364808Y-63375674D01*
X149364592Y-63623240D01*
X146796301Y-63623240D01*
X146704868Y-63401956D01*
X146529965Y-63226747D01*
X146301326Y-63131808D01*
X146053760Y-63131592D01*
X145824956Y-63226132D01*
X145703275Y-63347600D01*
X142713607Y-63347600D01*
X142592965Y-63226747D01*
X142364326Y-63131808D01*
X142116760Y-63131592D01*
X141887956Y-63226132D01*
X141712747Y-63401035D01*
X141617808Y-63629674D01*
X141617592Y-63877240D01*
X122031301Y-63877240D01*
X121939868Y-63655956D01*
X121764965Y-63480747D01*
X121536326Y-63385808D01*
X121399289Y-63385688D01*
X121399408Y-63249760D01*
X121304868Y-63020956D01*
X121129965Y-62845747D01*
X120901326Y-62750808D01*
X120884769Y-62750794D01*
X120891192Y-62735326D01*
X120891303Y-62607240D01*
X141617592Y-62607240D01*
X141712132Y-62836044D01*
X141887035Y-63011253D01*
X142115674Y-63106192D01*
X142363240Y-63106408D01*
X142592044Y-63011868D01*
X142713725Y-62890400D01*
X145703393Y-62890400D01*
X145824035Y-63011253D01*
X146052674Y-63106192D01*
X146300240Y-63106408D01*
X146529044Y-63011868D01*
X146704253Y-62836965D01*
X146799192Y-62608326D01*
X146799408Y-62360760D01*
X146704868Y-62131956D01*
X146529965Y-61956747D01*
X146301326Y-61861808D01*
X146053760Y-61861592D01*
X145824956Y-61956132D01*
X145703275Y-62077600D01*
X142713607Y-62077600D01*
X142592965Y-61956747D01*
X142364326Y-61861808D01*
X142116760Y-61861592D01*
X141887956Y-61956132D01*
X141712747Y-62131035D01*
X141617808Y-62359674D01*
X141617592Y-62607240D01*
X120891303Y-62607240D01*
X120891408Y-62487760D01*
X120796868Y-62258956D01*
X120621965Y-62083747D01*
X120393326Y-61988808D01*
X120145760Y-61988592D01*
X119916956Y-62083132D01*
X119741747Y-62258035D01*
X119646808Y-62486674D01*
X119646658Y-62658606D01*
X119346632Y-62958632D01*
X119258535Y-63090477D01*
X119227600Y-63246000D01*
X119227600Y-69376393D01*
X119106747Y-69497035D01*
X119011808Y-69725674D01*
X119011592Y-69973240D01*
X91844800Y-69973240D01*
X91844800Y-69213755D01*
X101218890Y-69213755D01*
X101315360Y-69447228D01*
X101493832Y-69626013D01*
X101727137Y-69722889D01*
X101979755Y-69723110D01*
X102213228Y-69626640D01*
X102392013Y-69448168D01*
X102488889Y-69214863D01*
X102489110Y-68962245D01*
X102392640Y-68728772D01*
X102214168Y-68549987D01*
X101980863Y-68453111D01*
X101728245Y-68452890D01*
X101494772Y-68549360D01*
X101315987Y-68727832D01*
X101219111Y-68961137D01*
X101218890Y-69213755D01*
X91844800Y-69213755D01*
X91844800Y-63117755D01*
X97281890Y-63117755D01*
X97378360Y-63351228D01*
X97556832Y-63530013D01*
X97790137Y-63626889D01*
X98042755Y-63627110D01*
X98276228Y-63530640D01*
X98455013Y-63352168D01*
X98551889Y-63118863D01*
X98552110Y-62866245D01*
X98455640Y-62632772D01*
X98277168Y-62453987D01*
X98043863Y-62357111D01*
X97791245Y-62356890D01*
X97557772Y-62453360D01*
X97378987Y-62631832D01*
X97282111Y-62865137D01*
X97281890Y-63117755D01*
X91844800Y-63117755D01*
X91844800Y-60067240D01*
X141617592Y-60067240D01*
X141712132Y-60296044D01*
X141887035Y-60471253D01*
X142115674Y-60566192D01*
X142363240Y-60566408D01*
X142592044Y-60471868D01*
X142713725Y-60350400D01*
X145703393Y-60350400D01*
X145824035Y-60471253D01*
X146052674Y-60566192D01*
X146300240Y-60566408D01*
X146529044Y-60471868D01*
X146704253Y-60296965D01*
X146799192Y-60068326D01*
X146799408Y-59820760D01*
X146704868Y-59591956D01*
X146529965Y-59416747D01*
X146301326Y-59321808D01*
X146053760Y-59321592D01*
X145824956Y-59416132D01*
X145703275Y-59537600D01*
X142713607Y-59537600D01*
X142592965Y-59416747D01*
X142364326Y-59321808D01*
X142116760Y-59321592D01*
X141887956Y-59416132D01*
X141712747Y-59591035D01*
X141617808Y-59819674D01*
X141617592Y-60067240D01*
X91844800Y-60067240D01*
X91844800Y-59053755D01*
X101345890Y-59053755D01*
X101442360Y-59287228D01*
X101620832Y-59466013D01*
X101854137Y-59562889D01*
X102106755Y-59563110D01*
X102340228Y-59466640D01*
X102519013Y-59288168D01*
X102615889Y-59054863D01*
X102616110Y-58802245D01*
X102519640Y-58568772D01*
X102341168Y-58389987D01*
X102107863Y-58293111D01*
X101855245Y-58292890D01*
X101621772Y-58389360D01*
X101442987Y-58567832D01*
X101346111Y-58801137D01*
X101345890Y-59053755D01*
X91844800Y-59053755D01*
X91844800Y-52574240D01*
X126377592Y-52574240D01*
X126472132Y-52803044D01*
X126647035Y-52978253D01*
X126875674Y-53073192D01*
X127123240Y-53073408D01*
X127352044Y-52978868D01*
X127473725Y-52857400D01*
X140242393Y-52857400D01*
X140309600Y-52924725D01*
X140309600Y-53142106D01*
X140205326Y-53098808D01*
X139957760Y-53098592D01*
X139728956Y-53193132D01*
X139553747Y-53368035D01*
X139458808Y-53596674D01*
X139458592Y-53844240D01*
X139553132Y-54073044D01*
X139674600Y-54194725D01*
X139674600Y-54991000D01*
X139705535Y-55146523D01*
X139793632Y-55278368D01*
X141766570Y-57251306D01*
X141712747Y-57305035D01*
X141617808Y-57533674D01*
X141617592Y-57781240D01*
X141712132Y-58010044D01*
X141867934Y-58166119D01*
X141712747Y-58321035D01*
X141617808Y-58549674D01*
X141617592Y-58797240D01*
X141712132Y-59026044D01*
X141887035Y-59201253D01*
X142115674Y-59296192D01*
X142363240Y-59296408D01*
X142592044Y-59201868D01*
X142713725Y-59080400D01*
X144052393Y-59080400D01*
X144173035Y-59201253D01*
X144401674Y-59296192D01*
X144649240Y-59296408D01*
X144878044Y-59201868D01*
X145053253Y-59026965D01*
X145148192Y-58798326D01*
X145148408Y-58550760D01*
X145053868Y-58321956D01*
X144994834Y-58262818D01*
X145036674Y-58280192D01*
X145284240Y-58280408D01*
X145513044Y-58185868D01*
X145688253Y-58010965D01*
X145783192Y-57782326D01*
X145783192Y-57781240D01*
X151269592Y-57781240D01*
X151364132Y-58010044D01*
X151539035Y-58185253D01*
X151767674Y-58280192D01*
X152015240Y-58280408D01*
X152244044Y-58185868D01*
X152419253Y-58010965D01*
X152514192Y-57782326D01*
X152514408Y-57534760D01*
X152419868Y-57305956D01*
X152244965Y-57130747D01*
X152016326Y-57035808D01*
X151768760Y-57035592D01*
X151539956Y-57130132D01*
X151364747Y-57305035D01*
X151269808Y-57533674D01*
X151269592Y-57781240D01*
X145783192Y-57781240D01*
X145783408Y-57534760D01*
X145688868Y-57305956D01*
X145513965Y-57130747D01*
X145285326Y-57035808D01*
X145037760Y-57035592D01*
X144808956Y-57130132D01*
X144687275Y-57251600D01*
X143326894Y-57251600D01*
X143370192Y-57147326D01*
X143370311Y-57010400D01*
X143379240Y-57010408D01*
X143608044Y-56915868D01*
X143729725Y-56794400D01*
X144052393Y-56794400D01*
X144173035Y-56915253D01*
X144401674Y-57010192D01*
X144649240Y-57010408D01*
X144878044Y-56915868D01*
X145053253Y-56740965D01*
X145148192Y-56512326D01*
X145148408Y-56264760D01*
X145053868Y-56035956D01*
X144878965Y-55860747D01*
X144650326Y-55765808D01*
X144513289Y-55765688D01*
X144513408Y-55629760D01*
X144418868Y-55400956D01*
X144243965Y-55225747D01*
X144015326Y-55130808D01*
X143767760Y-55130592D01*
X143538956Y-55225132D01*
X143363747Y-55400035D01*
X143268808Y-55628674D01*
X143268688Y-55765711D01*
X143132760Y-55765592D01*
X142903956Y-55860132D01*
X142782275Y-55981600D01*
X142281336Y-55981600D01*
X141859539Y-55559803D01*
X141941871Y-55593990D01*
X142535525Y-55594509D01*
X143084187Y-55367806D01*
X143504330Y-54948395D01*
X143731990Y-54400129D01*
X143731992Y-54397525D01*
X143922491Y-54397525D01*
X144149194Y-54946187D01*
X144568605Y-55366330D01*
X145116871Y-55593990D01*
X145710525Y-55594509D01*
X146259187Y-55367806D01*
X146679330Y-54948395D01*
X146906990Y-54400129D01*
X146907509Y-53806475D01*
X146680806Y-53257813D01*
X146261395Y-52837670D01*
X146017636Y-52736452D01*
X146519761Y-52736452D01*
X146641313Y-53030628D01*
X146866188Y-53255896D01*
X147160152Y-53377961D01*
X147478452Y-53378239D01*
X147772628Y-53256687D01*
X147997896Y-53031812D01*
X148119961Y-52737848D01*
X148120239Y-52419548D01*
X147998687Y-52125372D01*
X147773812Y-51900104D01*
X147479848Y-51778039D01*
X147161548Y-51777761D01*
X146867372Y-51899313D01*
X146642104Y-52124188D01*
X146520039Y-52418152D01*
X146519761Y-52736452D01*
X146017636Y-52736452D01*
X145713129Y-52610010D01*
X145119475Y-52609491D01*
X144570813Y-52836194D01*
X144150670Y-53255605D01*
X143923010Y-53803871D01*
X143922491Y-54397525D01*
X143731992Y-54397525D01*
X143732509Y-53806475D01*
X143505806Y-53257813D01*
X143086395Y-52837670D01*
X142538129Y-52610010D01*
X141944475Y-52609491D01*
X141395813Y-52836194D01*
X141122400Y-53109131D01*
X141122400Y-52924607D01*
X141243253Y-52803965D01*
X141338192Y-52575326D01*
X141338408Y-52327760D01*
X141243868Y-52098956D01*
X141068965Y-51923747D01*
X140840326Y-51828808D01*
X140592760Y-51828592D01*
X140363956Y-51923132D01*
X140242275Y-52044600D01*
X127473607Y-52044600D01*
X127352965Y-51923747D01*
X127124326Y-51828808D01*
X126876760Y-51828592D01*
X126647956Y-51923132D01*
X126472747Y-52098035D01*
X126377808Y-52326674D01*
X126377592Y-52574240D01*
X91844800Y-52574240D01*
X91844800Y-50942274D01*
X93074691Y-49712383D01*
X97103707Y-49712383D01*
X97535890Y-50758345D01*
X98335446Y-51559298D01*
X99380652Y-51993305D01*
X100512383Y-51994293D01*
X101558345Y-51562110D01*
X101816665Y-51304240D01*
X138188592Y-51304240D01*
X138283132Y-51533044D01*
X138458035Y-51708253D01*
X138686674Y-51803192D01*
X138934240Y-51803408D01*
X139135008Y-51720452D01*
X141439761Y-51720452D01*
X141561313Y-52014628D01*
X141786188Y-52239896D01*
X142080152Y-52361961D01*
X142398452Y-52362239D01*
X142692628Y-52240687D01*
X142917896Y-52015812D01*
X143039961Y-51721848D01*
X143040239Y-51403548D01*
X142918687Y-51109372D01*
X142693812Y-50884104D01*
X142399848Y-50762039D01*
X142081548Y-50761761D01*
X141787372Y-50883313D01*
X141562104Y-51108188D01*
X141440039Y-51402152D01*
X141439761Y-51720452D01*
X139135008Y-51720452D01*
X139163044Y-51708868D01*
X139338253Y-51533965D01*
X139433192Y-51305326D01*
X139433342Y-51133394D01*
X139614336Y-50952400D01*
X140369393Y-50952400D01*
X140490035Y-51073253D01*
X140718674Y-51168192D01*
X140966240Y-51168408D01*
X141195044Y-51073868D01*
X141370253Y-50898965D01*
X141451021Y-50704452D01*
X146519761Y-50704452D01*
X146641313Y-50998628D01*
X146866188Y-51223896D01*
X147160152Y-51345961D01*
X147478452Y-51346239D01*
X147772628Y-51224687D01*
X147997896Y-50999812D01*
X148119961Y-50705848D01*
X148120239Y-50387548D01*
X147998687Y-50093372D01*
X147773812Y-49868104D01*
X147479848Y-49746039D01*
X147161548Y-49745761D01*
X146867372Y-49867313D01*
X146642104Y-50092188D01*
X146520039Y-50386152D01*
X146519761Y-50704452D01*
X141451021Y-50704452D01*
X141465192Y-50670326D01*
X141465408Y-50422760D01*
X141412232Y-50294065D01*
X141941871Y-50513990D01*
X142535525Y-50514509D01*
X143084187Y-50287806D01*
X143504330Y-49868395D01*
X143731990Y-49320129D01*
X143731992Y-49317525D01*
X143922491Y-49317525D01*
X144149194Y-49866187D01*
X144568605Y-50286330D01*
X145116871Y-50513990D01*
X145710525Y-50514509D01*
X146259187Y-50287806D01*
X146679330Y-49868395D01*
X146744111Y-49712383D01*
X151205707Y-49712383D01*
X151637890Y-50758345D01*
X152437446Y-51559298D01*
X153482652Y-51993305D01*
X154614383Y-51994293D01*
X155660345Y-51562110D01*
X156461298Y-50762554D01*
X156895305Y-49717348D01*
X156896293Y-48585617D01*
X156464110Y-47539655D01*
X155664554Y-46738702D01*
X154619348Y-46304695D01*
X153487617Y-46303707D01*
X152441655Y-46735890D01*
X151640702Y-47535446D01*
X151206695Y-48580652D01*
X151205707Y-49712383D01*
X146744111Y-49712383D01*
X146906990Y-49320129D01*
X146907509Y-48726475D01*
X146680806Y-48177813D01*
X146261395Y-47757670D01*
X145713129Y-47530010D01*
X145119475Y-47529491D01*
X144570813Y-47756194D01*
X144150670Y-48175605D01*
X143923010Y-48723871D01*
X143922491Y-49317525D01*
X143731992Y-49317525D01*
X143732509Y-48726475D01*
X143505806Y-48177813D01*
X143086395Y-47757670D01*
X142538129Y-47530010D01*
X141944475Y-47529491D01*
X141395813Y-47756194D01*
X140975670Y-48175605D01*
X140748010Y-48723871D01*
X140747491Y-49317525D01*
X140974194Y-49866187D01*
X141077300Y-49969473D01*
X140967326Y-49923808D01*
X140719760Y-49923592D01*
X140490956Y-50018132D01*
X140369275Y-50139600D01*
X139446000Y-50139600D01*
X139290477Y-50170535D01*
X139158632Y-50258632D01*
X138858523Y-50558741D01*
X138687760Y-50558592D01*
X138458956Y-50653132D01*
X138283747Y-50828035D01*
X138188808Y-51056674D01*
X138188592Y-51304240D01*
X101816665Y-51304240D01*
X102359298Y-50762554D01*
X102793305Y-49717348D01*
X102794293Y-48585617D01*
X102362110Y-47539655D01*
X101562554Y-46738702D01*
X100517348Y-46304695D01*
X99385617Y-46303707D01*
X98339655Y-46735890D01*
X97538702Y-47535446D01*
X97104695Y-48580652D01*
X97103707Y-49712383D01*
X93074691Y-49712383D01*
X100116674Y-42670400D01*
X117500400Y-42670400D01*
X117500400Y-48514000D01*
M02*
