G04 #@! TF.FileFunction,Legend,Top*
%FSLAX46Y46*%
G04 Gerber Fmt 4.6, Leading zero omitted, Abs format (unit mm)*
G04 Created by KiCad (PCBNEW 4.0.4-stable) date Friday, February 17, 2017 'PMt' 10:34:46 PM*
%MOMM*%
%LPD*%
G01*
G04 APERTURE LIST*
%ADD10C,0.100000*%
%ADD11C,0.177800*%
%ADD12C,0.200000*%
%ADD13C,0.279400*%
%ADD14C,0.190500*%
%ADD15C,0.127000*%
%ADD16C,0.150000*%
%ADD17C,0.203200*%
%ADD18C,0.500000*%
G04 APERTURE END LIST*
D10*
D11*
X113102575Y-80723619D02*
X113102575Y-79707619D01*
X113489622Y-79707619D01*
X113586384Y-79756000D01*
X113634765Y-79804381D01*
X113683146Y-79901143D01*
X113683146Y-80046286D01*
X113634765Y-80143048D01*
X113586384Y-80191429D01*
X113489622Y-80239810D01*
X113102575Y-80239810D01*
X114263718Y-80723619D02*
X114166956Y-80675238D01*
X114118575Y-80626857D01*
X114070194Y-80530095D01*
X114070194Y-80239810D01*
X114118575Y-80143048D01*
X114166956Y-80094667D01*
X114263718Y-80046286D01*
X114408860Y-80046286D01*
X114505622Y-80094667D01*
X114554003Y-80143048D01*
X114602384Y-80239810D01*
X114602384Y-80530095D01*
X114554003Y-80626857D01*
X114505622Y-80675238D01*
X114408860Y-80723619D01*
X114263718Y-80723619D01*
X115037813Y-80046286D02*
X115037813Y-81062286D01*
X115037813Y-80094667D02*
X115134575Y-80046286D01*
X115328098Y-80046286D01*
X115424860Y-80094667D01*
X115473241Y-80143048D01*
X115521622Y-80239810D01*
X115521622Y-80530095D01*
X115473241Y-80626857D01*
X115424860Y-80675238D01*
X115328098Y-80723619D01*
X115134575Y-80723619D01*
X115037813Y-80675238D01*
X116392479Y-80046286D02*
X116392479Y-80723619D01*
X115957051Y-80046286D02*
X115957051Y-80578476D01*
X116005432Y-80675238D01*
X116102194Y-80723619D01*
X116247336Y-80723619D01*
X116344098Y-80675238D01*
X116392479Y-80626857D01*
X117021432Y-80723619D02*
X116924670Y-80675238D01*
X116876289Y-80578476D01*
X116876289Y-79707619D01*
X117843907Y-80723619D02*
X117843907Y-80191429D01*
X117795526Y-80094667D01*
X117698764Y-80046286D01*
X117505241Y-80046286D01*
X117408479Y-80094667D01*
X117843907Y-80675238D02*
X117747145Y-80723619D01*
X117505241Y-80723619D01*
X117408479Y-80675238D01*
X117360098Y-80578476D01*
X117360098Y-80481714D01*
X117408479Y-80384952D01*
X117505241Y-80336571D01*
X117747145Y-80336571D01*
X117843907Y-80288190D01*
X118182574Y-80046286D02*
X118569622Y-80046286D01*
X118327717Y-79707619D02*
X118327717Y-80578476D01*
X118376098Y-80675238D01*
X118472860Y-80723619D01*
X118569622Y-80723619D01*
X119295335Y-80675238D02*
X119198573Y-80723619D01*
X119005050Y-80723619D01*
X118908288Y-80675238D01*
X118859907Y-80578476D01*
X118859907Y-80191429D01*
X118908288Y-80094667D01*
X119005050Y-80046286D01*
X119198573Y-80046286D01*
X119295335Y-80094667D01*
X119343716Y-80191429D01*
X119343716Y-80288190D01*
X118859907Y-80384952D01*
X120698383Y-80723619D02*
X120601621Y-80675238D01*
X120553240Y-80626857D01*
X120504859Y-80530095D01*
X120504859Y-80239810D01*
X120553240Y-80143048D01*
X120601621Y-80094667D01*
X120698383Y-80046286D01*
X120843525Y-80046286D01*
X120940287Y-80094667D01*
X120988668Y-80143048D01*
X121037049Y-80239810D01*
X121037049Y-80530095D01*
X120988668Y-80626857D01*
X120940287Y-80675238D01*
X120843525Y-80723619D01*
X120698383Y-80723619D01*
X121472478Y-80046286D02*
X121472478Y-80723619D01*
X121472478Y-80143048D02*
X121520859Y-80094667D01*
X121617621Y-80046286D01*
X121762763Y-80046286D01*
X121859525Y-80094667D01*
X121907906Y-80191429D01*
X121907906Y-80723619D01*
X122536859Y-80723619D02*
X122440097Y-80675238D01*
X122391716Y-80578476D01*
X122391716Y-79707619D01*
X122827144Y-80046286D02*
X123069049Y-80723619D01*
X123310953Y-80046286D02*
X123069049Y-80723619D01*
X122972287Y-80965524D01*
X122923906Y-81013905D01*
X122827144Y-81062286D01*
X124326953Y-80046286D02*
X124714001Y-80046286D01*
X124472096Y-80723619D02*
X124472096Y-79852762D01*
X124520477Y-79756000D01*
X124617239Y-79707619D01*
X124714001Y-79707619D01*
X125197810Y-80723619D02*
X125101048Y-80675238D01*
X125052667Y-80626857D01*
X125004286Y-80530095D01*
X125004286Y-80239810D01*
X125052667Y-80143048D01*
X125101048Y-80094667D01*
X125197810Y-80046286D01*
X125342952Y-80046286D01*
X125439714Y-80094667D01*
X125488095Y-80143048D01*
X125536476Y-80239810D01*
X125536476Y-80530095D01*
X125488095Y-80626857D01*
X125439714Y-80675238D01*
X125342952Y-80723619D01*
X125197810Y-80723619D01*
X125971905Y-80723619D02*
X125971905Y-80046286D01*
X125971905Y-80239810D02*
X126020286Y-80143048D01*
X126068667Y-80094667D01*
X126165429Y-80046286D01*
X126262190Y-80046286D01*
X127761999Y-80675238D02*
X127665237Y-80723619D01*
X127471714Y-80723619D01*
X127374952Y-80675238D01*
X127326571Y-80578476D01*
X127326571Y-80191429D01*
X127374952Y-80094667D01*
X127471714Y-80046286D01*
X127665237Y-80046286D01*
X127761999Y-80094667D01*
X127810380Y-80191429D01*
X127810380Y-80288190D01*
X127326571Y-80384952D01*
X128149047Y-80723619D02*
X128681237Y-80046286D01*
X128149047Y-80046286D02*
X128681237Y-80723619D01*
X128923142Y-80046286D02*
X129310190Y-80046286D01*
X129068285Y-79707619D02*
X129068285Y-80578476D01*
X129116666Y-80675238D01*
X129213428Y-80723619D01*
X129310190Y-80723619D01*
X130035903Y-80675238D02*
X129939141Y-80723619D01*
X129745618Y-80723619D01*
X129648856Y-80675238D01*
X129600475Y-80578476D01*
X129600475Y-80191429D01*
X129648856Y-80094667D01*
X129745618Y-80046286D01*
X129939141Y-80046286D01*
X130035903Y-80094667D01*
X130084284Y-80191429D01*
X130084284Y-80288190D01*
X129600475Y-80384952D01*
X130519713Y-80723619D02*
X130519713Y-80046286D01*
X130519713Y-80239810D02*
X130568094Y-80143048D01*
X130616475Y-80094667D01*
X130713237Y-80046286D01*
X130809998Y-80046286D01*
X131148665Y-80046286D02*
X131148665Y-80723619D01*
X131148665Y-80143048D02*
X131197046Y-80094667D01*
X131293808Y-80046286D01*
X131438950Y-80046286D01*
X131535712Y-80094667D01*
X131584093Y-80191429D01*
X131584093Y-80723619D01*
X132503331Y-80723619D02*
X132503331Y-80191429D01*
X132454950Y-80094667D01*
X132358188Y-80046286D01*
X132164665Y-80046286D01*
X132067903Y-80094667D01*
X132503331Y-80675238D02*
X132406569Y-80723619D01*
X132164665Y-80723619D01*
X132067903Y-80675238D01*
X132019522Y-80578476D01*
X132019522Y-80481714D01*
X132067903Y-80384952D01*
X132164665Y-80336571D01*
X132406569Y-80336571D01*
X132503331Y-80288190D01*
X133132284Y-80723619D02*
X133035522Y-80675238D01*
X132987141Y-80578476D01*
X132987141Y-79707619D01*
X134632092Y-80191429D02*
X134777235Y-80239810D01*
X134825616Y-80288190D01*
X134873997Y-80384952D01*
X134873997Y-80530095D01*
X134825616Y-80626857D01*
X134777235Y-80675238D01*
X134680473Y-80723619D01*
X134293426Y-80723619D01*
X134293426Y-79707619D01*
X134632092Y-79707619D01*
X134728854Y-79756000D01*
X134777235Y-79804381D01*
X134825616Y-79901143D01*
X134825616Y-79997905D01*
X134777235Y-80094667D01*
X134728854Y-80143048D01*
X134632092Y-80191429D01*
X134293426Y-80191429D01*
X135164283Y-79707619D02*
X135744854Y-79707619D01*
X135454569Y-80723619D02*
X135454569Y-79707619D01*
X136567330Y-80723619D02*
X136083521Y-80723619D01*
X136083521Y-79707619D01*
X136905997Y-80191429D02*
X137244663Y-80191429D01*
X137389806Y-80723619D02*
X136905997Y-80723619D01*
X136905997Y-79707619D01*
X137389806Y-79707619D01*
D12*
X123444000Y-92202000D02*
X123444000Y-114808000D01*
X137922000Y-92202000D02*
X123444000Y-92202000D01*
X137922000Y-79248000D02*
X137922000Y-92202000D01*
X102108000Y-79248000D02*
X137922000Y-79248000D01*
X102108000Y-100584000D02*
X102108000Y-79248000D01*
D13*
X136325427Y-74324029D02*
X136180285Y-74251457D01*
X136107713Y-74178886D01*
X136035142Y-74033743D01*
X136035142Y-73598314D01*
X136107713Y-73453171D01*
X136180285Y-73380600D01*
X136325427Y-73308029D01*
X136543142Y-73308029D01*
X136688285Y-73380600D01*
X136760856Y-73453171D01*
X136833427Y-73598314D01*
X136833427Y-74033743D01*
X136760856Y-74178886D01*
X136688285Y-74251457D01*
X136543142Y-74324029D01*
X136325427Y-74324029D01*
X137341427Y-73308029D02*
X137704284Y-74324029D01*
X138067142Y-73308029D01*
X138647713Y-74324029D02*
X138647713Y-73308029D01*
X138647713Y-73598314D02*
X138720285Y-73453171D01*
X138792856Y-73380600D01*
X138937999Y-73308029D01*
X139083142Y-73308029D01*
X140099142Y-73525743D02*
X140316856Y-73598314D01*
X140389428Y-73670886D01*
X140461999Y-73816029D01*
X140461999Y-74033743D01*
X140389428Y-74178886D01*
X140316856Y-74251457D01*
X140171714Y-74324029D01*
X139591142Y-74324029D01*
X139591142Y-72800029D01*
X140099142Y-72800029D01*
X140244285Y-72872600D01*
X140316856Y-72945171D01*
X140389428Y-73090314D01*
X140389428Y-73235457D01*
X140316856Y-73380600D01*
X140244285Y-73453171D01*
X140099142Y-73525743D01*
X139591142Y-73525743D01*
X141695714Y-74251457D02*
X141550571Y-74324029D01*
X141260285Y-74324029D01*
X141115142Y-74251457D01*
X141042571Y-74106314D01*
X141042571Y-73525743D01*
X141115142Y-73380600D01*
X141260285Y-73308029D01*
X141550571Y-73308029D01*
X141695714Y-73380600D01*
X141768285Y-73525743D01*
X141768285Y-73670886D01*
X141042571Y-73816029D01*
X143074571Y-74324029D02*
X143074571Y-73525743D01*
X143002000Y-73380600D01*
X142856857Y-73308029D01*
X142566571Y-73308029D01*
X142421428Y-73380600D01*
X143074571Y-74251457D02*
X142929428Y-74324029D01*
X142566571Y-74324029D01*
X142421428Y-74251457D01*
X142348857Y-74106314D01*
X142348857Y-73961171D01*
X142421428Y-73816029D01*
X142566571Y-73743457D01*
X142929428Y-73743457D01*
X143074571Y-73670886D01*
X144453428Y-74251457D02*
X144308285Y-74324029D01*
X144017999Y-74324029D01*
X143872857Y-74251457D01*
X143800285Y-74178886D01*
X143727714Y-74033743D01*
X143727714Y-73598314D01*
X143800285Y-73453171D01*
X143872857Y-73380600D01*
X144017999Y-73308029D01*
X144308285Y-73308029D01*
X144453428Y-73380600D01*
X145324285Y-74324029D02*
X145179143Y-74251457D01*
X145106571Y-74178886D01*
X145034000Y-74033743D01*
X145034000Y-73598314D01*
X145106571Y-73453171D01*
X145179143Y-73380600D01*
X145324285Y-73308029D01*
X145542000Y-73308029D01*
X145687143Y-73380600D01*
X145759714Y-73453171D01*
X145832285Y-73598314D01*
X145832285Y-74033743D01*
X145759714Y-74178886D01*
X145687143Y-74251457D01*
X145542000Y-74324029D01*
X145324285Y-74324029D01*
X146485428Y-73308029D02*
X146485428Y-74324029D01*
X146485428Y-73453171D02*
X146558000Y-73380600D01*
X146703142Y-73308029D01*
X146920857Y-73308029D01*
X147066000Y-73380600D01*
X147138571Y-73525743D01*
X147138571Y-74324029D01*
X149823714Y-72872600D02*
X149678571Y-72800029D01*
X149460857Y-72800029D01*
X149243142Y-72872600D01*
X149098000Y-73017743D01*
X149025428Y-73162886D01*
X148952857Y-73453171D01*
X148952857Y-73670886D01*
X149025428Y-73961171D01*
X149098000Y-74106314D01*
X149243142Y-74251457D01*
X149460857Y-74324029D01*
X149606000Y-74324029D01*
X149823714Y-74251457D01*
X149896285Y-74178886D01*
X149896285Y-73670886D01*
X149606000Y-73670886D01*
X151202571Y-74324029D02*
X151202571Y-73525743D01*
X151130000Y-73380600D01*
X150984857Y-73308029D01*
X150694571Y-73308029D01*
X150549428Y-73380600D01*
X151202571Y-74251457D02*
X151057428Y-74324029D01*
X150694571Y-74324029D01*
X150549428Y-74251457D01*
X150476857Y-74106314D01*
X150476857Y-73961171D01*
X150549428Y-73816029D01*
X150694571Y-73743457D01*
X151057428Y-73743457D01*
X151202571Y-73670886D01*
X151710571Y-73308029D02*
X152291142Y-73308029D01*
X151928285Y-72800029D02*
X151928285Y-74106314D01*
X152000857Y-74251457D01*
X152145999Y-74324029D01*
X152291142Y-74324029D01*
X153379714Y-74251457D02*
X153234571Y-74324029D01*
X152944285Y-74324029D01*
X152799142Y-74251457D01*
X152726571Y-74106314D01*
X152726571Y-73525743D01*
X152799142Y-73380600D01*
X152944285Y-73308029D01*
X153234571Y-73308029D01*
X153379714Y-73380600D01*
X153452285Y-73525743D01*
X153452285Y-73670886D01*
X152726571Y-73816029D01*
X153960285Y-73308029D02*
X154250571Y-74324029D01*
X154540857Y-73598314D01*
X154831142Y-74324029D01*
X155121428Y-73308029D01*
X156355142Y-74324029D02*
X156355142Y-73525743D01*
X156282571Y-73380600D01*
X156137428Y-73308029D01*
X155847142Y-73308029D01*
X155701999Y-73380600D01*
X156355142Y-74251457D02*
X156209999Y-74324029D01*
X155847142Y-74324029D01*
X155701999Y-74251457D01*
X155629428Y-74106314D01*
X155629428Y-73961171D01*
X155701999Y-73816029D01*
X155847142Y-73743457D01*
X156209999Y-73743457D01*
X156355142Y-73670886D01*
X156935713Y-73308029D02*
X157298570Y-74324029D01*
X157661428Y-73308029D02*
X157298570Y-74324029D01*
X157153428Y-74686886D01*
X157080856Y-74759457D01*
X156935713Y-74832029D01*
X159257999Y-73308029D02*
X159620856Y-74324029D01*
X159983714Y-73308029D01*
X160854571Y-72800029D02*
X160999714Y-72800029D01*
X161144857Y-72872600D01*
X161217428Y-72945171D01*
X161289999Y-73090314D01*
X161362571Y-73380600D01*
X161362571Y-73743457D01*
X161289999Y-74033743D01*
X161217428Y-74178886D01*
X161144857Y-74251457D01*
X160999714Y-74324029D01*
X160854571Y-74324029D01*
X160709428Y-74251457D01*
X160636857Y-74178886D01*
X160564285Y-74033743D01*
X160491714Y-73743457D01*
X160491714Y-73380600D01*
X160564285Y-73090314D01*
X160636857Y-72945171D01*
X160709428Y-72872600D01*
X160854571Y-72800029D01*
X162015714Y-74178886D02*
X162088286Y-74251457D01*
X162015714Y-74324029D01*
X161943143Y-74251457D01*
X162015714Y-74178886D01*
X162015714Y-74324029D01*
X163539714Y-74324029D02*
X162668857Y-74324029D01*
X163104285Y-74324029D02*
X163104285Y-72800029D01*
X162959142Y-73017743D01*
X162814000Y-73162886D01*
X162668857Y-73235457D01*
X141187715Y-75365429D02*
X141550572Y-76889429D01*
X141840858Y-75800857D01*
X142131144Y-76889429D01*
X142494001Y-75365429D01*
X143074572Y-76889429D02*
X143074572Y-75873429D01*
X143074572Y-75365429D02*
X143002001Y-75438000D01*
X143074572Y-75510571D01*
X143147144Y-75438000D01*
X143074572Y-75365429D01*
X143074572Y-75510571D01*
X144308286Y-76091143D02*
X143800286Y-76091143D01*
X143800286Y-76889429D02*
X143800286Y-75365429D01*
X144526000Y-75365429D01*
X145106572Y-76889429D02*
X145106572Y-75873429D01*
X145106572Y-75365429D02*
X145034001Y-75438000D01*
X145106572Y-75510571D01*
X145179144Y-75438000D01*
X145106572Y-75365429D01*
X145106572Y-75510571D01*
X148082001Y-75292857D02*
X146775715Y-77252286D01*
X150259143Y-76091143D02*
X150476857Y-76163714D01*
X150549429Y-76236286D01*
X150622000Y-76381429D01*
X150622000Y-76599143D01*
X150549429Y-76744286D01*
X150476857Y-76816857D01*
X150331715Y-76889429D01*
X149751143Y-76889429D01*
X149751143Y-75365429D01*
X150259143Y-75365429D01*
X150404286Y-75438000D01*
X150476857Y-75510571D01*
X150549429Y-75655714D01*
X150549429Y-75800857D01*
X150476857Y-75946000D01*
X150404286Y-76018571D01*
X150259143Y-76091143D01*
X149751143Y-76091143D01*
X151057429Y-75365429D02*
X151928286Y-75365429D01*
X151492857Y-76889429D02*
X151492857Y-75365429D01*
X153162000Y-76889429D02*
X152436286Y-76889429D01*
X152436286Y-75365429D01*
X153670000Y-76091143D02*
X154178000Y-76091143D01*
X154395714Y-76889429D02*
X153670000Y-76889429D01*
X153670000Y-75365429D01*
X154395714Y-75365429D01*
X156210000Y-76889429D02*
X156210000Y-75365429D01*
X156718000Y-76454000D01*
X157226000Y-75365429D01*
X157226000Y-76889429D01*
X158169428Y-76889429D02*
X158024286Y-76816857D01*
X157951714Y-76744286D01*
X157879143Y-76599143D01*
X157879143Y-76163714D01*
X157951714Y-76018571D01*
X158024286Y-75946000D01*
X158169428Y-75873429D01*
X158387143Y-75873429D01*
X158532286Y-75946000D01*
X158604857Y-76018571D01*
X158677428Y-76163714D01*
X158677428Y-76599143D01*
X158604857Y-76744286D01*
X158532286Y-76816857D01*
X158387143Y-76889429D01*
X158169428Y-76889429D01*
X159983714Y-76889429D02*
X159983714Y-75365429D01*
X159983714Y-76816857D02*
X159838571Y-76889429D01*
X159548285Y-76889429D01*
X159403143Y-76816857D01*
X159330571Y-76744286D01*
X159258000Y-76599143D01*
X159258000Y-76163714D01*
X159330571Y-76018571D01*
X159403143Y-75946000D01*
X159548285Y-75873429D01*
X159838571Y-75873429D01*
X159983714Y-75946000D01*
X161362571Y-75873429D02*
X161362571Y-76889429D01*
X160709428Y-75873429D02*
X160709428Y-76671714D01*
X160782000Y-76816857D01*
X160927142Y-76889429D01*
X161144857Y-76889429D01*
X161290000Y-76816857D01*
X161362571Y-76744286D01*
X162305999Y-76889429D02*
X162160857Y-76816857D01*
X162088285Y-76671714D01*
X162088285Y-75365429D01*
X163467143Y-76816857D02*
X163322000Y-76889429D01*
X163031714Y-76889429D01*
X162886571Y-76816857D01*
X162814000Y-76671714D01*
X162814000Y-76091143D01*
X162886571Y-75946000D01*
X163031714Y-75873429D01*
X163322000Y-75873429D01*
X163467143Y-75946000D01*
X163539714Y-76091143D01*
X163539714Y-76236286D01*
X162814000Y-76381429D01*
X153742569Y-78656543D02*
X153234569Y-78656543D01*
X153234569Y-79454829D02*
X153234569Y-77930829D01*
X153960283Y-77930829D01*
X155121427Y-79382257D02*
X154976284Y-79454829D01*
X154685998Y-79454829D01*
X154540855Y-79382257D01*
X154468284Y-79237114D01*
X154468284Y-78656543D01*
X154540855Y-78511400D01*
X154685998Y-78438829D01*
X154976284Y-78438829D01*
X155121427Y-78511400D01*
X155193998Y-78656543D01*
X155193998Y-78801686D01*
X154468284Y-78946829D01*
X155847141Y-79454829D02*
X155847141Y-77930829D01*
X155847141Y-78511400D02*
X155992284Y-78438829D01*
X156282570Y-78438829D01*
X156427713Y-78511400D01*
X156500284Y-78583971D01*
X156572855Y-78729114D01*
X156572855Y-79164543D01*
X156500284Y-79309686D01*
X156427713Y-79382257D01*
X156282570Y-79454829D01*
X155992284Y-79454829D01*
X155847141Y-79382257D01*
X158314570Y-78075971D02*
X158387141Y-78003400D01*
X158532284Y-77930829D01*
X158895141Y-77930829D01*
X159040284Y-78003400D01*
X159112855Y-78075971D01*
X159185427Y-78221114D01*
X159185427Y-78366257D01*
X159112855Y-78583971D01*
X158241998Y-79454829D01*
X159185427Y-79454829D01*
X160128856Y-77930829D02*
X160273999Y-77930829D01*
X160419142Y-78003400D01*
X160491713Y-78075971D01*
X160564284Y-78221114D01*
X160636856Y-78511400D01*
X160636856Y-78874257D01*
X160564284Y-79164543D01*
X160491713Y-79309686D01*
X160419142Y-79382257D01*
X160273999Y-79454829D01*
X160128856Y-79454829D01*
X159983713Y-79382257D01*
X159911142Y-79309686D01*
X159838570Y-79164543D01*
X159765999Y-78874257D01*
X159765999Y-78511400D01*
X159838570Y-78221114D01*
X159911142Y-78075971D01*
X159983713Y-78003400D01*
X160128856Y-77930829D01*
X162088285Y-79454829D02*
X161217428Y-79454829D01*
X161652856Y-79454829D02*
X161652856Y-77930829D01*
X161507713Y-78148543D01*
X161362571Y-78293686D01*
X161217428Y-78366257D01*
X162596285Y-77930829D02*
X163612285Y-77930829D01*
X162959142Y-79454829D01*
D14*
X96701429Y-63082714D02*
X96882858Y-63844714D01*
X97028001Y-63300429D01*
X97173143Y-63844714D01*
X97354572Y-63082714D01*
X97644858Y-63844714D02*
X97644858Y-63336714D01*
X97644858Y-63082714D02*
X97608572Y-63119000D01*
X97644858Y-63155286D01*
X97681143Y-63119000D01*
X97644858Y-63082714D01*
X97644858Y-63155286D01*
X98261715Y-63445571D02*
X98007715Y-63445571D01*
X98007715Y-63844714D02*
X98007715Y-63082714D01*
X98370572Y-63082714D01*
X98660858Y-63844714D02*
X98660858Y-63336714D01*
X98660858Y-63082714D02*
X98624572Y-63119000D01*
X98660858Y-63155286D01*
X98697143Y-63119000D01*
X98660858Y-63082714D01*
X98660858Y-63155286D01*
X99568000Y-63627000D02*
X99930857Y-63627000D01*
X99495428Y-63844714D02*
X99749428Y-63082714D01*
X100003428Y-63844714D01*
X100584000Y-63808429D02*
X100511429Y-63844714D01*
X100366286Y-63844714D01*
X100293714Y-63808429D01*
X100257429Y-63772143D01*
X100221143Y-63699571D01*
X100221143Y-63481857D01*
X100257429Y-63409286D01*
X100293714Y-63373000D01*
X100366286Y-63336714D01*
X100511429Y-63336714D01*
X100584000Y-63373000D01*
X100801714Y-63336714D02*
X101092000Y-63336714D01*
X100910572Y-63082714D02*
X100910572Y-63735857D01*
X100946857Y-63808429D01*
X101019429Y-63844714D01*
X101092000Y-63844714D01*
X101346001Y-63772143D02*
X101382286Y-63808429D01*
X101346001Y-63844714D01*
X101309715Y-63808429D01*
X101346001Y-63772143D01*
X101346001Y-63844714D01*
X97844429Y-92909571D02*
X98098429Y-92909571D01*
X98207286Y-93308714D02*
X97844429Y-93308714D01*
X97844429Y-92546714D01*
X98207286Y-92546714D01*
X98533858Y-93308714D02*
X98533858Y-92800714D01*
X98533858Y-92945857D02*
X98570143Y-92873286D01*
X98606429Y-92837000D01*
X98679000Y-92800714D01*
X98751572Y-92800714D01*
X99005572Y-93308714D02*
X99005572Y-92800714D01*
X99005572Y-92945857D02*
X99041857Y-92873286D01*
X99078143Y-92837000D01*
X99150714Y-92800714D01*
X99223286Y-92800714D01*
X99586143Y-93308714D02*
X99513571Y-93272429D01*
X99477286Y-93236143D01*
X99441000Y-93163571D01*
X99441000Y-92945857D01*
X99477286Y-92873286D01*
X99513571Y-92837000D01*
X99586143Y-92800714D01*
X99695000Y-92800714D01*
X99767571Y-92837000D01*
X99803857Y-92873286D01*
X99840143Y-92945857D01*
X99840143Y-93163571D01*
X99803857Y-93236143D01*
X99767571Y-93272429D01*
X99695000Y-93308714D01*
X99586143Y-93308714D01*
X100166715Y-93308714D02*
X100166715Y-92800714D01*
X100166715Y-92945857D02*
X100203000Y-92873286D01*
X100239286Y-92837000D01*
X100311857Y-92800714D01*
X100384429Y-92800714D01*
X96828429Y-72589571D02*
X96937286Y-72625857D01*
X96973571Y-72662143D01*
X97009857Y-72734714D01*
X97009857Y-72843571D01*
X96973571Y-72916143D01*
X96937286Y-72952429D01*
X96864714Y-72988714D01*
X96574429Y-72988714D01*
X96574429Y-72226714D01*
X96828429Y-72226714D01*
X96901000Y-72263000D01*
X96937286Y-72299286D01*
X96973571Y-72371857D01*
X96973571Y-72444429D01*
X96937286Y-72517000D01*
X96901000Y-72553286D01*
X96828429Y-72589571D01*
X96574429Y-72589571D01*
X97227571Y-72226714D02*
X97663000Y-72226714D01*
X97445286Y-72988714D02*
X97445286Y-72226714D01*
X98279857Y-72988714D02*
X97917000Y-72988714D01*
X97917000Y-72226714D01*
X98533857Y-72589571D02*
X98787857Y-72589571D01*
X98896714Y-72988714D02*
X98533857Y-72988714D01*
X98533857Y-72226714D01*
X98896714Y-72226714D01*
X99767571Y-72771000D02*
X100130428Y-72771000D01*
X99694999Y-72988714D02*
X99948999Y-72226714D01*
X100202999Y-72988714D01*
X100783571Y-72952429D02*
X100711000Y-72988714D01*
X100565857Y-72988714D01*
X100493285Y-72952429D01*
X100457000Y-72916143D01*
X100420714Y-72843571D01*
X100420714Y-72625857D01*
X100457000Y-72553286D01*
X100493285Y-72517000D01*
X100565857Y-72480714D01*
X100711000Y-72480714D01*
X100783571Y-72517000D01*
X101001285Y-72480714D02*
X101291571Y-72480714D01*
X101110143Y-72226714D02*
X101110143Y-72879857D01*
X101146428Y-72952429D01*
X101219000Y-72988714D01*
X101291571Y-72988714D01*
X101545572Y-72916143D02*
X101581857Y-72952429D01*
X101545572Y-72988714D01*
X101509286Y-72952429D01*
X101545572Y-72916143D01*
X101545572Y-72988714D01*
X97554143Y-83148714D02*
X97554143Y-82386714D01*
X97844428Y-82386714D01*
X97917000Y-82423000D01*
X97953285Y-82459286D01*
X97989571Y-82531857D01*
X97989571Y-82640714D01*
X97953285Y-82713286D01*
X97917000Y-82749571D01*
X97844428Y-82785857D01*
X97554143Y-82785857D01*
X98425000Y-83148714D02*
X98352428Y-83112429D01*
X98316143Y-83076143D01*
X98279857Y-83003571D01*
X98279857Y-82785857D01*
X98316143Y-82713286D01*
X98352428Y-82677000D01*
X98425000Y-82640714D01*
X98533857Y-82640714D01*
X98606428Y-82677000D01*
X98642714Y-82713286D01*
X98679000Y-82785857D01*
X98679000Y-83003571D01*
X98642714Y-83076143D01*
X98606428Y-83112429D01*
X98533857Y-83148714D01*
X98425000Y-83148714D01*
X98933000Y-82640714D02*
X99078143Y-83148714D01*
X99223286Y-82785857D01*
X99368429Y-83148714D01*
X99513572Y-82640714D01*
X100094143Y-83112429D02*
X100021572Y-83148714D01*
X99876429Y-83148714D01*
X99803858Y-83112429D01*
X99767572Y-83039857D01*
X99767572Y-82749571D01*
X99803858Y-82677000D01*
X99876429Y-82640714D01*
X100021572Y-82640714D01*
X100094143Y-82677000D01*
X100130429Y-82749571D01*
X100130429Y-82822143D01*
X99767572Y-82894714D01*
X100457001Y-83148714D02*
X100457001Y-82640714D01*
X100457001Y-82785857D02*
X100493286Y-82713286D01*
X100529572Y-82677000D01*
X100602143Y-82640714D01*
X100674715Y-82640714D01*
D15*
X111379000Y-45847000D02*
X110109000Y-45847000D01*
X111379000Y-44577000D02*
X110134400Y-44577000D01*
X111379000Y-44196000D02*
X111379000Y-46228000D01*
X111379000Y-46228000D02*
X110109000Y-46228000D01*
X110109000Y-46228000D02*
X110109000Y-44196000D01*
X110109000Y-44196000D02*
X111379000Y-44196000D01*
X127127000Y-100711000D02*
X125857000Y-100711000D01*
X127127000Y-99441000D02*
X125882400Y-99441000D01*
X127127000Y-99060000D02*
X127127000Y-101092000D01*
X127127000Y-101092000D02*
X125857000Y-101092000D01*
X125857000Y-101092000D02*
X125857000Y-99060000D01*
X125857000Y-99060000D02*
X127127000Y-99060000D01*
X125857000Y-95631000D02*
X127127000Y-95631000D01*
X125857000Y-96901000D02*
X127101600Y-96901000D01*
X125857000Y-97282000D02*
X125857000Y-95250000D01*
X125857000Y-95250000D02*
X127127000Y-95250000D01*
X127127000Y-95250000D02*
X127127000Y-97282000D01*
X127127000Y-97282000D02*
X125857000Y-97282000D01*
D16*
X100560000Y-81780000D02*
X100560000Y-80780000D01*
X100560000Y-91940000D02*
X100560000Y-90940000D01*
X97310000Y-59260000D02*
X100810000Y-59260000D01*
X97310000Y-59410000D02*
X100810000Y-59410000D01*
X100810000Y-59560000D02*
X97310000Y-59560000D01*
X100810000Y-62360000D02*
X100810000Y-59560000D01*
X97310000Y-62360000D02*
X100810000Y-62360000D01*
X97310000Y-59560000D02*
X97310000Y-62360000D01*
D17*
X104450000Y-96738000D02*
X104450000Y-118038000D01*
X104450000Y-118038000D02*
X120450000Y-118038000D01*
X120450000Y-118038000D02*
X120450000Y-96738000D01*
X120450000Y-96738000D02*
X104450000Y-96738000D01*
X104450000Y-100838000D02*
X104450000Y-116838000D01*
X120450000Y-100838000D02*
X120450000Y-116838000D01*
D16*
X148450000Y-63070000D02*
X148450000Y-63870000D01*
X145550000Y-63870000D02*
X145550000Y-63070000D01*
X145550000Y-63070000D02*
X145950000Y-63070000D01*
X145950000Y-63070000D02*
X145950000Y-63870000D01*
X145950000Y-63870000D02*
X145550000Y-63870000D01*
X154038000Y-63070000D02*
X154038000Y-63870000D01*
X151138000Y-63870000D02*
X151138000Y-63070000D01*
X151138000Y-63070000D02*
X151538000Y-63070000D01*
X151538000Y-63070000D02*
X151538000Y-63870000D01*
X151538000Y-63870000D02*
X151138000Y-63870000D01*
D17*
X127680000Y-89400000D02*
X127680000Y-90100000D01*
X127680000Y-90100000D02*
X131080000Y-90100000D01*
X131080000Y-90100000D02*
X131080000Y-89400000D01*
X127680000Y-89400000D02*
X127680000Y-84600000D01*
X127680000Y-84600000D02*
X131080000Y-84600000D01*
X131080000Y-84600000D02*
X131080000Y-89400000D01*
X131080000Y-89400000D02*
X127680000Y-89400000D01*
D15*
X99415600Y-78282800D02*
X100228400Y-78282800D01*
X100203000Y-77165200D02*
X99415600Y-77165200D01*
X100228400Y-76911200D02*
X100228400Y-78536800D01*
X100228400Y-78536800D02*
X99415600Y-78536800D01*
X99415600Y-78536800D02*
X99415600Y-76911200D01*
X99415600Y-76911200D02*
X100228400Y-76911200D01*
X99415600Y-85394800D02*
X100228400Y-85394800D01*
X100203000Y-84277200D02*
X99415600Y-84277200D01*
X100228400Y-84023200D02*
X100228400Y-85648800D01*
X100228400Y-85648800D02*
X99415600Y-85648800D01*
X99415600Y-85648800D02*
X99415600Y-84023200D01*
X99415600Y-84023200D02*
X100228400Y-84023200D01*
X103581200Y-57505600D02*
X103581200Y-58318400D01*
X104698800Y-58293000D02*
X104698800Y-57505600D01*
X104952800Y-58318400D02*
X103327200Y-58318400D01*
X103327200Y-58318400D02*
X103327200Y-57505600D01*
X103327200Y-57505600D02*
X104952800Y-57505600D01*
X104952800Y-57505600D02*
X104952800Y-58318400D01*
X103581200Y-59537600D02*
X103581200Y-60350400D01*
X104698800Y-60325000D02*
X104698800Y-59537600D01*
X104952800Y-60350400D02*
X103327200Y-60350400D01*
X103327200Y-60350400D02*
X103327200Y-59537600D01*
X103327200Y-59537600D02*
X104952800Y-59537600D01*
X104952800Y-59537600D02*
X104952800Y-60350400D01*
X103581200Y-61569600D02*
X103581200Y-62382400D01*
X104698800Y-62357000D02*
X104698800Y-61569600D01*
X104952800Y-62382400D02*
X103327200Y-62382400D01*
X103327200Y-62382400D02*
X103327200Y-61569600D01*
X103327200Y-61569600D02*
X104952800Y-61569600D01*
X104952800Y-61569600D02*
X104952800Y-62382400D01*
X110337600Y-54406800D02*
X111150400Y-54406800D01*
X111125000Y-53289200D02*
X110337600Y-53289200D01*
X111150400Y-53035200D02*
X111150400Y-54660800D01*
X111150400Y-54660800D02*
X110337600Y-54660800D01*
X110337600Y-54660800D02*
X110337600Y-53035200D01*
X110337600Y-53035200D02*
X111150400Y-53035200D01*
X111150400Y-48717200D02*
X110337600Y-48717200D01*
X110363000Y-49834800D02*
X111150400Y-49834800D01*
X110337600Y-50088800D02*
X110337600Y-48463200D01*
X110337600Y-48463200D02*
X111150400Y-48463200D01*
X111150400Y-48463200D02*
X111150400Y-50088800D01*
X111150400Y-50088800D02*
X110337600Y-50088800D01*
X149301200Y-66903600D02*
X149301200Y-67716400D01*
X150418800Y-67691000D02*
X150418800Y-66903600D01*
X150672800Y-67716400D02*
X149047200Y-67716400D01*
X149047200Y-67716400D02*
X149047200Y-66903600D01*
X149047200Y-66903600D02*
X150672800Y-66903600D01*
X150672800Y-66903600D02*
X150672800Y-67716400D01*
X150418800Y-69494400D02*
X150418800Y-68681600D01*
X149301200Y-68707000D02*
X149301200Y-69494400D01*
X149047200Y-68681600D02*
X150672800Y-68681600D01*
X150672800Y-68681600D02*
X150672800Y-69494400D01*
X150672800Y-69494400D02*
X149047200Y-69494400D01*
X149047200Y-69494400D02*
X149047200Y-68681600D01*
X153060400Y-57607200D02*
X152247600Y-57607200D01*
X152273000Y-58724800D02*
X153060400Y-58724800D01*
X152247600Y-58978800D02*
X152247600Y-57353200D01*
X152247600Y-57353200D02*
X153060400Y-57353200D01*
X153060400Y-57353200D02*
X153060400Y-58978800D01*
X153060400Y-58978800D02*
X152247600Y-58978800D01*
X147472400Y-57607200D02*
X146659600Y-57607200D01*
X146685000Y-58724800D02*
X147472400Y-58724800D01*
X146659600Y-58978800D02*
X146659600Y-57353200D01*
X146659600Y-57353200D02*
X147472400Y-57353200D01*
X147472400Y-57353200D02*
X147472400Y-58978800D01*
X147472400Y-58978800D02*
X146659600Y-58978800D01*
X103581200Y-84429600D02*
X103581200Y-85242400D01*
X104698800Y-85217000D02*
X104698800Y-84429600D01*
X104952800Y-85242400D02*
X103327200Y-85242400D01*
X103327200Y-85242400D02*
X103327200Y-84429600D01*
X103327200Y-84429600D02*
X104952800Y-84429600D01*
X104952800Y-84429600D02*
X104952800Y-85242400D01*
X104698800Y-87020400D02*
X104698800Y-86207600D01*
X103581200Y-86233000D02*
X103581200Y-87020400D01*
X103327200Y-86207600D02*
X104952800Y-86207600D01*
X104952800Y-86207600D02*
X104952800Y-87020400D01*
X104952800Y-87020400D02*
X103327200Y-87020400D01*
X103327200Y-87020400D02*
X103327200Y-86207600D01*
X136448800Y-85496400D02*
X136448800Y-84683600D01*
X135331200Y-84709000D02*
X135331200Y-85496400D01*
X135077200Y-84683600D02*
X136702800Y-84683600D01*
X136702800Y-84683600D02*
X136702800Y-85496400D01*
X136702800Y-85496400D02*
X135077200Y-85496400D01*
X135077200Y-85496400D02*
X135077200Y-84683600D01*
X135331200Y-87223600D02*
X135331200Y-88036400D01*
X136448800Y-88011000D02*
X136448800Y-87223600D01*
X136702800Y-88036400D02*
X135077200Y-88036400D01*
X135077200Y-88036400D02*
X135077200Y-87223600D01*
X135077200Y-87223600D02*
X136702800Y-87223600D01*
X136702800Y-87223600D02*
X136702800Y-88036400D01*
X117957600Y-85648800D02*
X118770400Y-85648800D01*
X118745000Y-84531200D02*
X117957600Y-84531200D01*
X118770400Y-84277200D02*
X118770400Y-85902800D01*
X118770400Y-85902800D02*
X117957600Y-85902800D01*
X117957600Y-85902800D02*
X117957600Y-84277200D01*
X117957600Y-84277200D02*
X118770400Y-84277200D01*
X119989600Y-85648800D02*
X120802400Y-85648800D01*
X120777000Y-84531200D02*
X119989600Y-84531200D01*
X120802400Y-84277200D02*
X120802400Y-85902800D01*
X120802400Y-85902800D02*
X119989600Y-85902800D01*
X119989600Y-85902800D02*
X119989600Y-84277200D01*
X119989600Y-84277200D02*
X120802400Y-84277200D01*
D16*
X106926000Y-49512000D02*
X106926000Y-50062000D01*
X108176000Y-49512000D02*
X106926000Y-49512000D01*
X108176000Y-50562000D02*
X108176000Y-49512000D01*
X107976000Y-50562000D02*
X108176000Y-50562000D01*
X107926000Y-53062000D02*
X107926000Y-50062000D01*
X104926000Y-53062000D02*
X107926000Y-53062000D01*
X104926000Y-50062000D02*
X104926000Y-53062000D01*
X107926000Y-50062000D02*
X104926000Y-50062000D01*
X129618000Y-97244000D02*
X129918000Y-97244000D01*
X129618000Y-98844000D02*
X129618000Y-97244000D01*
X129868000Y-98844000D02*
X129618000Y-98844000D01*
X129868000Y-97244000D02*
X129868000Y-98844000D01*
X132768000Y-97244000D02*
X129868000Y-97244000D01*
X132768000Y-98844000D02*
X132768000Y-97244000D01*
X129868000Y-98844000D02*
X132768000Y-98844000D01*
D17*
X140589000Y-88900000D02*
X146113500Y-88900000D01*
X140589000Y-88519000D02*
X140589000Y-97726500D01*
X140589000Y-97726500D02*
X146113500Y-97726500D01*
X146113500Y-97726500D02*
X146113500Y-88519000D01*
X146113500Y-88519000D02*
X140589000Y-88519000D01*
D18*
X117377981Y-43434000D02*
G75*
G03X117377981Y-43434000I-283981J0D01*
G01*
D16*
X136000000Y-43288000D02*
X118000000Y-43288000D01*
X118000000Y-37288000D02*
X118000000Y-62788000D01*
X136000000Y-37288000D02*
X136000000Y-62788000D01*
X136000000Y-62788000D02*
X118000000Y-62788000D01*
X136000000Y-37288000D02*
X118000000Y-37288000D01*
D17*
X108890000Y-81960000D02*
X108890000Y-81560000D01*
X108890000Y-81560000D02*
X112090000Y-81560000D01*
X112090000Y-81560000D02*
X112090000Y-81960000D01*
X108890000Y-81960000D02*
X112090000Y-81960000D01*
X112090000Y-81960000D02*
X112090000Y-90760000D01*
X112090000Y-90760000D02*
X108890000Y-90760000D01*
X108890000Y-90760000D02*
X108890000Y-81960000D01*
D16*
X138132000Y-118038000D02*
X138132000Y-111688000D01*
X145332000Y-118038000D02*
X145332000Y-111688000D01*
X145332000Y-118038000D02*
X138132000Y-118038000D01*
X145332000Y-115038000D02*
X138132000Y-115038000D01*
X100560000Y-71620000D02*
X100560000Y-70620000D01*
D15*
X103581200Y-70713600D02*
X103581200Y-71526400D01*
X104698800Y-71501000D02*
X104698800Y-70713600D01*
X104952800Y-71526400D02*
X103327200Y-71526400D01*
X103327200Y-71526400D02*
X103327200Y-70713600D01*
X103327200Y-70713600D02*
X104952800Y-70713600D01*
X104952800Y-70713600D02*
X104952800Y-71526400D01*
D14*
X112794143Y-45339000D02*
X112830429Y-45375286D01*
X112866714Y-45484143D01*
X112866714Y-45556714D01*
X112830429Y-45665571D01*
X112757857Y-45738143D01*
X112685286Y-45774428D01*
X112540143Y-45810714D01*
X112431286Y-45810714D01*
X112286143Y-45774428D01*
X112213571Y-45738143D01*
X112141000Y-45665571D01*
X112104714Y-45556714D01*
X112104714Y-45484143D01*
X112141000Y-45375286D01*
X112177286Y-45339000D01*
X112104714Y-45085000D02*
X112104714Y-44613286D01*
X112395000Y-44867286D01*
X112395000Y-44758428D01*
X112431286Y-44685857D01*
X112467571Y-44649571D01*
X112540143Y-44613286D01*
X112721571Y-44613286D01*
X112794143Y-44649571D01*
X112830429Y-44685857D01*
X112866714Y-44758428D01*
X112866714Y-44976143D01*
X112830429Y-45048714D01*
X112794143Y-45085000D01*
X124986143Y-100203000D02*
X125022429Y-100239286D01*
X125058714Y-100348143D01*
X125058714Y-100420714D01*
X125022429Y-100529571D01*
X124949857Y-100602143D01*
X124877286Y-100638428D01*
X124732143Y-100674714D01*
X124623286Y-100674714D01*
X124478143Y-100638428D01*
X124405571Y-100602143D01*
X124333000Y-100529571D01*
X124296714Y-100420714D01*
X124296714Y-100348143D01*
X124333000Y-100239286D01*
X124369286Y-100203000D01*
X125058714Y-99477286D02*
X125058714Y-99912714D01*
X125058714Y-99695000D02*
X124296714Y-99695000D01*
X124405571Y-99767571D01*
X124478143Y-99840143D01*
X124514429Y-99912714D01*
X124986143Y-96393000D02*
X125022429Y-96429286D01*
X125058714Y-96538143D01*
X125058714Y-96610714D01*
X125022429Y-96719571D01*
X124949857Y-96792143D01*
X124877286Y-96828428D01*
X124732143Y-96864714D01*
X124623286Y-96864714D01*
X124478143Y-96828428D01*
X124405571Y-96792143D01*
X124333000Y-96719571D01*
X124296714Y-96610714D01*
X124296714Y-96538143D01*
X124333000Y-96429286D01*
X124369286Y-96393000D01*
X124369286Y-96102714D02*
X124333000Y-96066428D01*
X124296714Y-95993857D01*
X124296714Y-95812428D01*
X124333000Y-95739857D01*
X124369286Y-95703571D01*
X124441857Y-95667286D01*
X124514429Y-95667286D01*
X124623286Y-95703571D01*
X125058714Y-96139000D01*
X125058714Y-95667286D01*
X97735572Y-80100714D02*
X97735572Y-79338714D01*
X97917000Y-79338714D01*
X98025857Y-79375000D01*
X98098429Y-79447571D01*
X98134714Y-79520143D01*
X98171000Y-79665286D01*
X98171000Y-79774143D01*
X98134714Y-79919286D01*
X98098429Y-79991857D01*
X98025857Y-80064429D01*
X97917000Y-80100714D01*
X97735572Y-80100714D01*
X98896714Y-80100714D02*
X98461286Y-80100714D01*
X98679000Y-80100714D02*
X98679000Y-79338714D01*
X98606429Y-79447571D01*
X98533857Y-79520143D01*
X98461286Y-79556429D01*
X97735572Y-90260714D02*
X97735572Y-89498714D01*
X97917000Y-89498714D01*
X98025857Y-89535000D01*
X98098429Y-89607571D01*
X98134714Y-89680143D01*
X98171000Y-89825286D01*
X98171000Y-89934143D01*
X98134714Y-90079286D01*
X98098429Y-90151857D01*
X98025857Y-90224429D01*
X97917000Y-90260714D01*
X97735572Y-90260714D01*
X98461286Y-89571286D02*
X98497572Y-89535000D01*
X98570143Y-89498714D01*
X98751572Y-89498714D01*
X98824143Y-89535000D01*
X98860429Y-89571286D01*
X98896714Y-89643857D01*
X98896714Y-89716429D01*
X98860429Y-89825286D01*
X98425000Y-90260714D01*
X98896714Y-90260714D01*
X98497572Y-58764714D02*
X98497572Y-58002714D01*
X98679000Y-58002714D01*
X98787857Y-58039000D01*
X98860429Y-58111571D01*
X98896714Y-58184143D01*
X98933000Y-58329286D01*
X98933000Y-58438143D01*
X98896714Y-58583286D01*
X98860429Y-58655857D01*
X98787857Y-58728429D01*
X98679000Y-58764714D01*
X98497572Y-58764714D01*
X99187000Y-58002714D02*
X99658714Y-58002714D01*
X99404714Y-58293000D01*
X99513572Y-58293000D01*
X99586143Y-58329286D01*
X99622429Y-58365571D01*
X99658714Y-58438143D01*
X99658714Y-58619571D01*
X99622429Y-58692143D01*
X99586143Y-58728429D01*
X99513572Y-58764714D01*
X99295857Y-58764714D01*
X99223286Y-58728429D01*
X99187000Y-58692143D01*
X121666001Y-112612714D02*
X121666001Y-113157000D01*
X121629715Y-113265857D01*
X121557144Y-113338429D01*
X121448287Y-113374714D01*
X121375715Y-113374714D01*
X121992572Y-112685286D02*
X122028858Y-112649000D01*
X122101429Y-112612714D01*
X122282858Y-112612714D01*
X122355429Y-112649000D01*
X122391715Y-112685286D01*
X122428000Y-112757857D01*
X122428000Y-112830429D01*
X122391715Y-112939286D01*
X121956286Y-113374714D01*
X122428000Y-113374714D01*
D16*
X144453429Y-63917286D02*
X144380857Y-63881000D01*
X144308286Y-63808429D01*
X144199429Y-63699571D01*
X144126857Y-63663286D01*
X144054286Y-63663286D01*
X144090571Y-63844714D02*
X144018000Y-63808429D01*
X143945429Y-63735857D01*
X143909143Y-63590714D01*
X143909143Y-63336714D01*
X143945429Y-63191571D01*
X144018000Y-63119000D01*
X144090571Y-63082714D01*
X144235714Y-63082714D01*
X144308286Y-63119000D01*
X144380857Y-63191571D01*
X144417143Y-63336714D01*
X144417143Y-63590714D01*
X144380857Y-63735857D01*
X144308286Y-63808429D01*
X144235714Y-63844714D01*
X144090571Y-63844714D01*
X145142857Y-63844714D02*
X144707429Y-63844714D01*
X144925143Y-63844714D02*
X144925143Y-63082714D01*
X144852572Y-63191571D01*
X144780000Y-63264143D01*
X144707429Y-63300429D01*
X155121429Y-63917286D02*
X155048857Y-63881000D01*
X154976286Y-63808429D01*
X154867429Y-63699571D01*
X154794857Y-63663286D01*
X154722286Y-63663286D01*
X154758571Y-63844714D02*
X154686000Y-63808429D01*
X154613429Y-63735857D01*
X154577143Y-63590714D01*
X154577143Y-63336714D01*
X154613429Y-63191571D01*
X154686000Y-63119000D01*
X154758571Y-63082714D01*
X154903714Y-63082714D01*
X154976286Y-63119000D01*
X155048857Y-63191571D01*
X155085143Y-63336714D01*
X155085143Y-63590714D01*
X155048857Y-63735857D01*
X154976286Y-63808429D01*
X154903714Y-63844714D01*
X154758571Y-63844714D01*
X155375429Y-63155286D02*
X155411715Y-63119000D01*
X155484286Y-63082714D01*
X155665715Y-63082714D01*
X155738286Y-63119000D01*
X155774572Y-63155286D01*
X155810857Y-63227857D01*
X155810857Y-63300429D01*
X155774572Y-63409286D01*
X155339143Y-63844714D01*
X155810857Y-63844714D01*
D14*
X129257429Y-91567286D02*
X129184857Y-91531000D01*
X129112286Y-91458429D01*
X129003429Y-91349571D01*
X128930857Y-91313286D01*
X128858286Y-91313286D01*
X128894571Y-91494714D02*
X128822000Y-91458429D01*
X128749429Y-91385857D01*
X128713143Y-91240714D01*
X128713143Y-90986714D01*
X128749429Y-90841571D01*
X128822000Y-90769000D01*
X128894571Y-90732714D01*
X129039714Y-90732714D01*
X129112286Y-90769000D01*
X129184857Y-90841571D01*
X129221143Y-90986714D01*
X129221143Y-91240714D01*
X129184857Y-91385857D01*
X129112286Y-91458429D01*
X129039714Y-91494714D01*
X128894571Y-91494714D01*
X129475143Y-90732714D02*
X129946857Y-90732714D01*
X129692857Y-91023000D01*
X129801715Y-91023000D01*
X129874286Y-91059286D01*
X129910572Y-91095571D01*
X129946857Y-91168143D01*
X129946857Y-91349571D01*
X129910572Y-91422143D01*
X129874286Y-91458429D01*
X129801715Y-91494714D01*
X129584000Y-91494714D01*
X129511429Y-91458429D01*
X129475143Y-91422143D01*
X98171000Y-78068714D02*
X97917000Y-77705857D01*
X97735572Y-78068714D02*
X97735572Y-77306714D01*
X98025857Y-77306714D01*
X98098429Y-77343000D01*
X98134714Y-77379286D01*
X98171000Y-77451857D01*
X98171000Y-77560714D01*
X98134714Y-77633286D01*
X98098429Y-77669571D01*
X98025857Y-77705857D01*
X97735572Y-77705857D01*
X98896714Y-78068714D02*
X98461286Y-78068714D01*
X98679000Y-78068714D02*
X98679000Y-77306714D01*
X98606429Y-77415571D01*
X98533857Y-77488143D01*
X98461286Y-77524429D01*
X98171000Y-85180714D02*
X97917000Y-84817857D01*
X97735572Y-85180714D02*
X97735572Y-84418714D01*
X98025857Y-84418714D01*
X98098429Y-84455000D01*
X98134714Y-84491286D01*
X98171000Y-84563857D01*
X98171000Y-84672714D01*
X98134714Y-84745286D01*
X98098429Y-84781571D01*
X98025857Y-84817857D01*
X97735572Y-84817857D01*
X98461286Y-84491286D02*
X98497572Y-84455000D01*
X98570143Y-84418714D01*
X98751572Y-84418714D01*
X98824143Y-84455000D01*
X98860429Y-84491286D01*
X98896714Y-84563857D01*
X98896714Y-84636429D01*
X98860429Y-84745286D01*
X98425000Y-85180714D01*
X98896714Y-85180714D01*
X106299000Y-58256714D02*
X106045000Y-57893857D01*
X105863572Y-58256714D02*
X105863572Y-57494714D01*
X106153857Y-57494714D01*
X106226429Y-57531000D01*
X106262714Y-57567286D01*
X106299000Y-57639857D01*
X106299000Y-57748714D01*
X106262714Y-57821286D01*
X106226429Y-57857571D01*
X106153857Y-57893857D01*
X105863572Y-57893857D01*
X106553000Y-57494714D02*
X107024714Y-57494714D01*
X106770714Y-57785000D01*
X106879572Y-57785000D01*
X106952143Y-57821286D01*
X106988429Y-57857571D01*
X107024714Y-57930143D01*
X107024714Y-58111571D01*
X106988429Y-58184143D01*
X106952143Y-58220429D01*
X106879572Y-58256714D01*
X106661857Y-58256714D01*
X106589286Y-58220429D01*
X106553000Y-58184143D01*
X106299000Y-60288714D02*
X106045000Y-59925857D01*
X105863572Y-60288714D02*
X105863572Y-59526714D01*
X106153857Y-59526714D01*
X106226429Y-59563000D01*
X106262714Y-59599286D01*
X106299000Y-59671857D01*
X106299000Y-59780714D01*
X106262714Y-59853286D01*
X106226429Y-59889571D01*
X106153857Y-59925857D01*
X105863572Y-59925857D01*
X106952143Y-59780714D02*
X106952143Y-60288714D01*
X106770714Y-59490429D02*
X106589286Y-60034714D01*
X107061000Y-60034714D01*
X106299000Y-62320714D02*
X106045000Y-61957857D01*
X105863572Y-62320714D02*
X105863572Y-61558714D01*
X106153857Y-61558714D01*
X106226429Y-61595000D01*
X106262714Y-61631286D01*
X106299000Y-61703857D01*
X106299000Y-61812714D01*
X106262714Y-61885286D01*
X106226429Y-61921571D01*
X106153857Y-61957857D01*
X105863572Y-61957857D01*
X106988429Y-61558714D02*
X106625572Y-61558714D01*
X106589286Y-61921571D01*
X106625572Y-61885286D01*
X106698143Y-61849000D01*
X106879572Y-61849000D01*
X106952143Y-61885286D01*
X106988429Y-61921571D01*
X107024714Y-61994143D01*
X107024714Y-62175571D01*
X106988429Y-62248143D01*
X106952143Y-62284429D01*
X106879572Y-62320714D01*
X106698143Y-62320714D01*
X106625572Y-62284429D01*
X106589286Y-62248143D01*
X112395000Y-54192714D02*
X112141000Y-53829857D01*
X111959572Y-54192714D02*
X111959572Y-53430714D01*
X112249857Y-53430714D01*
X112322429Y-53467000D01*
X112358714Y-53503286D01*
X112395000Y-53575857D01*
X112395000Y-53684714D01*
X112358714Y-53757286D01*
X112322429Y-53793571D01*
X112249857Y-53829857D01*
X111959572Y-53829857D01*
X113048143Y-53430714D02*
X112903000Y-53430714D01*
X112830429Y-53467000D01*
X112794143Y-53503286D01*
X112721572Y-53612143D01*
X112685286Y-53757286D01*
X112685286Y-54047571D01*
X112721572Y-54120143D01*
X112757857Y-54156429D01*
X112830429Y-54192714D01*
X112975572Y-54192714D01*
X113048143Y-54156429D01*
X113084429Y-54120143D01*
X113120714Y-54047571D01*
X113120714Y-53866143D01*
X113084429Y-53793571D01*
X113048143Y-53757286D01*
X112975572Y-53721000D01*
X112830429Y-53721000D01*
X112757857Y-53757286D01*
X112721572Y-53793571D01*
X112685286Y-53866143D01*
X112395000Y-49620714D02*
X112141000Y-49257857D01*
X111959572Y-49620714D02*
X111959572Y-48858714D01*
X112249857Y-48858714D01*
X112322429Y-48895000D01*
X112358714Y-48931286D01*
X112395000Y-49003857D01*
X112395000Y-49112714D01*
X112358714Y-49185286D01*
X112322429Y-49221571D01*
X112249857Y-49257857D01*
X111959572Y-49257857D01*
X112649000Y-48858714D02*
X113157000Y-48858714D01*
X112830429Y-49620714D01*
X149733000Y-66384714D02*
X149479000Y-66021857D01*
X149297572Y-66384714D02*
X149297572Y-65622714D01*
X149587857Y-65622714D01*
X149660429Y-65659000D01*
X149696714Y-65695286D01*
X149733000Y-65767857D01*
X149733000Y-65876714D01*
X149696714Y-65949286D01*
X149660429Y-65985571D01*
X149587857Y-66021857D01*
X149297572Y-66021857D01*
X150168429Y-65949286D02*
X150095857Y-65913000D01*
X150059572Y-65876714D01*
X150023286Y-65804143D01*
X150023286Y-65767857D01*
X150059572Y-65695286D01*
X150095857Y-65659000D01*
X150168429Y-65622714D01*
X150313572Y-65622714D01*
X150386143Y-65659000D01*
X150422429Y-65695286D01*
X150458714Y-65767857D01*
X150458714Y-65804143D01*
X150422429Y-65876714D01*
X150386143Y-65913000D01*
X150313572Y-65949286D01*
X150168429Y-65949286D01*
X150095857Y-65985571D01*
X150059572Y-66021857D01*
X150023286Y-66094429D01*
X150023286Y-66239571D01*
X150059572Y-66312143D01*
X150095857Y-66348429D01*
X150168429Y-66384714D01*
X150313572Y-66384714D01*
X150386143Y-66348429D01*
X150422429Y-66312143D01*
X150458714Y-66239571D01*
X150458714Y-66094429D01*
X150422429Y-66021857D01*
X150386143Y-65985571D01*
X150313572Y-65949286D01*
X149733000Y-70956714D02*
X149479000Y-70593857D01*
X149297572Y-70956714D02*
X149297572Y-70194714D01*
X149587857Y-70194714D01*
X149660429Y-70231000D01*
X149696714Y-70267286D01*
X149733000Y-70339857D01*
X149733000Y-70448714D01*
X149696714Y-70521286D01*
X149660429Y-70557571D01*
X149587857Y-70593857D01*
X149297572Y-70593857D01*
X150095857Y-70956714D02*
X150241000Y-70956714D01*
X150313572Y-70920429D01*
X150349857Y-70884143D01*
X150422429Y-70775286D01*
X150458714Y-70630143D01*
X150458714Y-70339857D01*
X150422429Y-70267286D01*
X150386143Y-70231000D01*
X150313572Y-70194714D01*
X150168429Y-70194714D01*
X150095857Y-70231000D01*
X150059572Y-70267286D01*
X150023286Y-70339857D01*
X150023286Y-70521286D01*
X150059572Y-70593857D01*
X150095857Y-70630143D01*
X150168429Y-70666429D01*
X150313572Y-70666429D01*
X150386143Y-70630143D01*
X150422429Y-70593857D01*
X150458714Y-70521286D01*
X152164143Y-56478714D02*
X151910143Y-56115857D01*
X151728715Y-56478714D02*
X151728715Y-55716714D01*
X152019000Y-55716714D01*
X152091572Y-55753000D01*
X152127857Y-55789286D01*
X152164143Y-55861857D01*
X152164143Y-55970714D01*
X152127857Y-56043286D01*
X152091572Y-56079571D01*
X152019000Y-56115857D01*
X151728715Y-56115857D01*
X152889857Y-56478714D02*
X152454429Y-56478714D01*
X152672143Y-56478714D02*
X152672143Y-55716714D01*
X152599572Y-55825571D01*
X152527000Y-55898143D01*
X152454429Y-55934429D01*
X153361571Y-55716714D02*
X153434143Y-55716714D01*
X153506714Y-55753000D01*
X153543000Y-55789286D01*
X153579286Y-55861857D01*
X153615571Y-56007000D01*
X153615571Y-56188429D01*
X153579286Y-56333571D01*
X153543000Y-56406143D01*
X153506714Y-56442429D01*
X153434143Y-56478714D01*
X153361571Y-56478714D01*
X153289000Y-56442429D01*
X153252714Y-56406143D01*
X153216429Y-56333571D01*
X153180143Y-56188429D01*
X153180143Y-56007000D01*
X153216429Y-55861857D01*
X153252714Y-55789286D01*
X153289000Y-55753000D01*
X153361571Y-55716714D01*
X146576143Y-56478714D02*
X146322143Y-56115857D01*
X146140715Y-56478714D02*
X146140715Y-55716714D01*
X146431000Y-55716714D01*
X146503572Y-55753000D01*
X146539857Y-55789286D01*
X146576143Y-55861857D01*
X146576143Y-55970714D01*
X146539857Y-56043286D01*
X146503572Y-56079571D01*
X146431000Y-56115857D01*
X146140715Y-56115857D01*
X147301857Y-56478714D02*
X146866429Y-56478714D01*
X147084143Y-56478714D02*
X147084143Y-55716714D01*
X147011572Y-55825571D01*
X146939000Y-55898143D01*
X146866429Y-55934429D01*
X148027571Y-56478714D02*
X147592143Y-56478714D01*
X147809857Y-56478714D02*
X147809857Y-55716714D01*
X147737286Y-55825571D01*
X147664714Y-55898143D01*
X147592143Y-55934429D01*
X103650143Y-83656714D02*
X103396143Y-83293857D01*
X103214715Y-83656714D02*
X103214715Y-82894714D01*
X103505000Y-82894714D01*
X103577572Y-82931000D01*
X103613857Y-82967286D01*
X103650143Y-83039857D01*
X103650143Y-83148714D01*
X103613857Y-83221286D01*
X103577572Y-83257571D01*
X103505000Y-83293857D01*
X103214715Y-83293857D01*
X104375857Y-83656714D02*
X103940429Y-83656714D01*
X104158143Y-83656714D02*
X104158143Y-82894714D01*
X104085572Y-83003571D01*
X104013000Y-83076143D01*
X103940429Y-83112429D01*
X104666143Y-82967286D02*
X104702429Y-82931000D01*
X104775000Y-82894714D01*
X104956429Y-82894714D01*
X105029000Y-82931000D01*
X105065286Y-82967286D01*
X105101571Y-83039857D01*
X105101571Y-83112429D01*
X105065286Y-83221286D01*
X104629857Y-83656714D01*
X105101571Y-83656714D01*
X103650143Y-88482714D02*
X103396143Y-88119857D01*
X103214715Y-88482714D02*
X103214715Y-87720714D01*
X103505000Y-87720714D01*
X103577572Y-87757000D01*
X103613857Y-87793286D01*
X103650143Y-87865857D01*
X103650143Y-87974714D01*
X103613857Y-88047286D01*
X103577572Y-88083571D01*
X103505000Y-88119857D01*
X103214715Y-88119857D01*
X104375857Y-88482714D02*
X103940429Y-88482714D01*
X104158143Y-88482714D02*
X104158143Y-87720714D01*
X104085572Y-87829571D01*
X104013000Y-87902143D01*
X103940429Y-87938429D01*
X104629857Y-87720714D02*
X105101571Y-87720714D01*
X104847571Y-88011000D01*
X104956429Y-88011000D01*
X105029000Y-88047286D01*
X105065286Y-88083571D01*
X105101571Y-88156143D01*
X105101571Y-88337571D01*
X105065286Y-88410143D01*
X105029000Y-88446429D01*
X104956429Y-88482714D01*
X104738714Y-88482714D01*
X104666143Y-88446429D01*
X104629857Y-88410143D01*
X135400143Y-83910714D02*
X135146143Y-83547857D01*
X134964715Y-83910714D02*
X134964715Y-83148714D01*
X135255000Y-83148714D01*
X135327572Y-83185000D01*
X135363857Y-83221286D01*
X135400143Y-83293857D01*
X135400143Y-83402714D01*
X135363857Y-83475286D01*
X135327572Y-83511571D01*
X135255000Y-83547857D01*
X134964715Y-83547857D01*
X136125857Y-83910714D02*
X135690429Y-83910714D01*
X135908143Y-83910714D02*
X135908143Y-83148714D01*
X135835572Y-83257571D01*
X135763000Y-83330143D01*
X135690429Y-83366429D01*
X136779000Y-83402714D02*
X136779000Y-83910714D01*
X136597571Y-83112429D02*
X136416143Y-83656714D01*
X136887857Y-83656714D01*
X135400143Y-89498714D02*
X135146143Y-89135857D01*
X134964715Y-89498714D02*
X134964715Y-88736714D01*
X135255000Y-88736714D01*
X135327572Y-88773000D01*
X135363857Y-88809286D01*
X135400143Y-88881857D01*
X135400143Y-88990714D01*
X135363857Y-89063286D01*
X135327572Y-89099571D01*
X135255000Y-89135857D01*
X134964715Y-89135857D01*
X136125857Y-89498714D02*
X135690429Y-89498714D01*
X135908143Y-89498714D02*
X135908143Y-88736714D01*
X135835572Y-88845571D01*
X135763000Y-88918143D01*
X135690429Y-88954429D01*
X136815286Y-88736714D02*
X136452429Y-88736714D01*
X136416143Y-89099571D01*
X136452429Y-89063286D01*
X136525000Y-89027000D01*
X136706429Y-89027000D01*
X136779000Y-89063286D01*
X136815286Y-89099571D01*
X136851571Y-89172143D01*
X136851571Y-89353571D01*
X136815286Y-89426143D01*
X136779000Y-89462429D01*
X136706429Y-89498714D01*
X136525000Y-89498714D01*
X136452429Y-89462429D01*
X136416143Y-89426143D01*
X115842143Y-85434714D02*
X115588143Y-85071857D01*
X115406715Y-85434714D02*
X115406715Y-84672714D01*
X115697000Y-84672714D01*
X115769572Y-84709000D01*
X115805857Y-84745286D01*
X115842143Y-84817857D01*
X115842143Y-84926714D01*
X115805857Y-84999286D01*
X115769572Y-85035571D01*
X115697000Y-85071857D01*
X115406715Y-85071857D01*
X116567857Y-85434714D02*
X116132429Y-85434714D01*
X116350143Y-85434714D02*
X116350143Y-84672714D01*
X116277572Y-84781571D01*
X116205000Y-84854143D01*
X116132429Y-84890429D01*
X117221000Y-84672714D02*
X117075857Y-84672714D01*
X117003286Y-84709000D01*
X116967000Y-84745286D01*
X116894429Y-84854143D01*
X116858143Y-84999286D01*
X116858143Y-85289571D01*
X116894429Y-85362143D01*
X116930714Y-85398429D01*
X117003286Y-85434714D01*
X117148429Y-85434714D01*
X117221000Y-85398429D01*
X117257286Y-85362143D01*
X117293571Y-85289571D01*
X117293571Y-85108143D01*
X117257286Y-85035571D01*
X117221000Y-84999286D01*
X117148429Y-84963000D01*
X117003286Y-84963000D01*
X116930714Y-84999286D01*
X116894429Y-85035571D01*
X116858143Y-85108143D01*
X121938143Y-85434714D02*
X121684143Y-85071857D01*
X121502715Y-85434714D02*
X121502715Y-84672714D01*
X121793000Y-84672714D01*
X121865572Y-84709000D01*
X121901857Y-84745286D01*
X121938143Y-84817857D01*
X121938143Y-84926714D01*
X121901857Y-84999286D01*
X121865572Y-85035571D01*
X121793000Y-85071857D01*
X121502715Y-85071857D01*
X122663857Y-85434714D02*
X122228429Y-85434714D01*
X122446143Y-85434714D02*
X122446143Y-84672714D01*
X122373572Y-84781571D01*
X122301000Y-84854143D01*
X122228429Y-84890429D01*
X122917857Y-84672714D02*
X123425857Y-84672714D01*
X123099286Y-85434714D01*
X103305429Y-51144714D02*
X103305429Y-51761571D01*
X103341714Y-51834143D01*
X103378000Y-51870429D01*
X103450571Y-51906714D01*
X103595714Y-51906714D01*
X103668286Y-51870429D01*
X103704571Y-51834143D01*
X103740857Y-51761571D01*
X103740857Y-51144714D01*
X104502857Y-51906714D02*
X104067429Y-51906714D01*
X104285143Y-51906714D02*
X104285143Y-51144714D01*
X104212572Y-51253571D01*
X104140000Y-51326143D01*
X104067429Y-51362429D01*
X128487714Y-98624571D02*
X129104571Y-98624571D01*
X129177143Y-98588286D01*
X129213429Y-98552000D01*
X129249714Y-98479429D01*
X129249714Y-98334286D01*
X129213429Y-98261714D01*
X129177143Y-98225429D01*
X129104571Y-98189143D01*
X128487714Y-98189143D01*
X128560286Y-97862571D02*
X128524000Y-97826285D01*
X128487714Y-97753714D01*
X128487714Y-97572285D01*
X128524000Y-97499714D01*
X128560286Y-97463428D01*
X128632857Y-97427143D01*
X128705429Y-97427143D01*
X128814286Y-97463428D01*
X129249714Y-97898857D01*
X129249714Y-97427143D01*
X142675429Y-87466714D02*
X142675429Y-88083571D01*
X142711714Y-88156143D01*
X142748000Y-88192429D01*
X142820571Y-88228714D01*
X142965714Y-88228714D01*
X143038286Y-88192429D01*
X143074571Y-88156143D01*
X143110857Y-88083571D01*
X143110857Y-87466714D01*
X143401143Y-87466714D02*
X143872857Y-87466714D01*
X143618857Y-87757000D01*
X143727715Y-87757000D01*
X143800286Y-87793286D01*
X143836572Y-87829571D01*
X143872857Y-87902143D01*
X143872857Y-88083571D01*
X143836572Y-88156143D01*
X143800286Y-88192429D01*
X143727715Y-88228714D01*
X143510000Y-88228714D01*
X143437429Y-88192429D01*
X143401143Y-88156143D01*
X137976429Y-40603714D02*
X137976429Y-41220571D01*
X138012714Y-41293143D01*
X138049000Y-41329429D01*
X138121571Y-41365714D01*
X138266714Y-41365714D01*
X138339286Y-41329429D01*
X138375571Y-41293143D01*
X138411857Y-41220571D01*
X138411857Y-40603714D01*
X139101286Y-40857714D02*
X139101286Y-41365714D01*
X138919857Y-40567429D02*
X138738429Y-41111714D01*
X139210143Y-41111714D01*
X109909429Y-80192714D02*
X109909429Y-80809571D01*
X109945714Y-80882143D01*
X109982000Y-80918429D01*
X110054571Y-80954714D01*
X110199714Y-80954714D01*
X110272286Y-80918429D01*
X110308571Y-80882143D01*
X110344857Y-80809571D01*
X110344857Y-80192714D01*
X111070572Y-80192714D02*
X110707715Y-80192714D01*
X110671429Y-80555571D01*
X110707715Y-80519286D01*
X110780286Y-80483000D01*
X110961715Y-80483000D01*
X111034286Y-80519286D01*
X111070572Y-80555571D01*
X111106857Y-80628143D01*
X111106857Y-80809571D01*
X111070572Y-80882143D01*
X111034286Y-80918429D01*
X110961715Y-80954714D01*
X110780286Y-80954714D01*
X110707715Y-80918429D01*
X110671429Y-80882143D01*
X135636001Y-112612714D02*
X135636001Y-113157000D01*
X135599715Y-113265857D01*
X135527144Y-113338429D01*
X135418287Y-113374714D01*
X135345715Y-113374714D01*
X136398000Y-113374714D02*
X135962572Y-113374714D01*
X136180286Y-113374714D02*
X136180286Y-112612714D01*
X136107715Y-112721571D01*
X136035143Y-112794143D01*
X135962572Y-112830429D01*
X97735572Y-69940714D02*
X97735572Y-69178714D01*
X97917000Y-69178714D01*
X98025857Y-69215000D01*
X98098429Y-69287571D01*
X98134714Y-69360143D01*
X98171000Y-69505286D01*
X98171000Y-69614143D01*
X98134714Y-69759286D01*
X98098429Y-69831857D01*
X98025857Y-69904429D01*
X97917000Y-69940714D01*
X97735572Y-69940714D01*
X98824143Y-69432714D02*
X98824143Y-69940714D01*
X98642714Y-69142429D02*
X98461286Y-69686714D01*
X98933000Y-69686714D01*
X103650143Y-72988714D02*
X103396143Y-72625857D01*
X103214715Y-72988714D02*
X103214715Y-72226714D01*
X103505000Y-72226714D01*
X103577572Y-72263000D01*
X103613857Y-72299286D01*
X103650143Y-72371857D01*
X103650143Y-72480714D01*
X103613857Y-72553286D01*
X103577572Y-72589571D01*
X103505000Y-72625857D01*
X103214715Y-72625857D01*
X104375857Y-72988714D02*
X103940429Y-72988714D01*
X104158143Y-72988714D02*
X104158143Y-72226714D01*
X104085572Y-72335571D01*
X104013000Y-72408143D01*
X103940429Y-72444429D01*
X104811286Y-72553286D02*
X104738714Y-72517000D01*
X104702429Y-72480714D01*
X104666143Y-72408143D01*
X104666143Y-72371857D01*
X104702429Y-72299286D01*
X104738714Y-72263000D01*
X104811286Y-72226714D01*
X104956429Y-72226714D01*
X105029000Y-72263000D01*
X105065286Y-72299286D01*
X105101571Y-72371857D01*
X105101571Y-72408143D01*
X105065286Y-72480714D01*
X105029000Y-72517000D01*
X104956429Y-72553286D01*
X104811286Y-72553286D01*
X104738714Y-72589571D01*
X104702429Y-72625857D01*
X104666143Y-72698429D01*
X104666143Y-72843571D01*
X104702429Y-72916143D01*
X104738714Y-72952429D01*
X104811286Y-72988714D01*
X104956429Y-72988714D01*
X105029000Y-72952429D01*
X105065286Y-72916143D01*
X105101571Y-72843571D01*
X105101571Y-72698429D01*
X105065286Y-72625857D01*
X105029000Y-72589571D01*
X104956429Y-72553286D01*
M02*
