G04 #@! TF.FileFunction,Copper,L2,Bot,Signal*
%FSLAX46Y46*%
G04 Gerber Fmt 4.6, Leading zero omitted, Abs format (unit mm)*
G04 Created by KiCad (PCBNEW 4.0.4-stable) date Friday, February 17, 2017 'PMt' 10:34:46 PM*
%MOMM*%
%LPD*%
G01*
G04 APERTURE LIST*
%ADD10C,0.100000*%
%ADD11C,1.397000*%
%ADD12C,2.413000*%
%ADD13O,1.200000X2.300000*%
%ADD14C,5.080000*%
%ADD15C,0.635000*%
%ADD16C,0.203200*%
%ADD17C,0.508000*%
G04 APERTURE END LIST*
D10*
D11*
X107950000Y-100838000D03*
X109220000Y-98298000D03*
X110490000Y-100838000D03*
X111760000Y-98298000D03*
X113030000Y-100838000D03*
X114300000Y-98298000D03*
X115570000Y-100838000D03*
X116840000Y-98298000D03*
D12*
X120145000Y-104138000D03*
X104645000Y-104138000D03*
D13*
X138132000Y-106838000D03*
X145332000Y-106838000D03*
X138132000Y-110388000D03*
X145332000Y-110388000D03*
D14*
X154051000Y-103251000D03*
X154051000Y-49149000D03*
X99949000Y-49149000D03*
X99949000Y-103251000D03*
D15*
X131318000Y-100203000D03*
X143129000Y-105410000D03*
X148590000Y-95377000D03*
X148590000Y-93472000D03*
X145415000Y-91567000D03*
X141224000Y-92837000D03*
X136652000Y-88900000D03*
X132080000Y-89916000D03*
X124968000Y-99060000D03*
X124968000Y-97282000D03*
X107823000Y-91186000D03*
X102108000Y-86614000D03*
X99822000Y-75438000D03*
X107061000Y-48514000D03*
X110744000Y-44259500D03*
X121285000Y-62788000D03*
X126700000Y-52488000D03*
X134747000Y-98044000D03*
X131191000Y-98044000D03*
X123952000Y-89027000D03*
X117475000Y-82550000D03*
X149098000Y-86868000D03*
X141986000Y-89535000D03*
X147040600Y-60375800D03*
X141452600Y-61315600D03*
X150622000Y-88773000D03*
X140970000Y-90678000D03*
X151003000Y-58928000D03*
X120015000Y-47371000D03*
X131318000Y-51562000D03*
X124968000Y-65786000D03*
X131572000Y-67564000D03*
X141986000Y-48260000D03*
X133096000Y-57658000D03*
X109220000Y-87630000D03*
X132334000Y-58928000D03*
X109220000Y-83820000D03*
D16*
X121285000Y-62788000D02*
X121285000Y-62738000D01*
X126746000Y-52451000D02*
X126737000Y-52451000D01*
X126737000Y-52451000D02*
X126700000Y-52488000D01*
D17*
X134747000Y-98044000D02*
X131191000Y-98044000D01*
D16*
X117475000Y-82550000D02*
X123952000Y-89027000D01*
X146431000Y-89535000D02*
X149098000Y-86868000D01*
X141986000Y-89535000D02*
X146431000Y-89535000D01*
X146100800Y-61315600D02*
X147040600Y-60375800D01*
X141452600Y-61315600D02*
X146100800Y-61315600D01*
X148717000Y-90678000D02*
X150622000Y-88773000D01*
X140970000Y-90678000D02*
X148717000Y-90678000D01*
X151003000Y-56007000D02*
X151003000Y-58928000D01*
X142367000Y-47371000D02*
X151003000Y-56007000D01*
X120015000Y-47371000D02*
X142367000Y-47371000D01*
X131318000Y-59436000D02*
X131318000Y-51562000D01*
X124968000Y-65786000D02*
X131318000Y-59436000D01*
X141986000Y-57150000D02*
X131572000Y-67564000D01*
X141986000Y-48260000D02*
X141986000Y-57150000D01*
X133096000Y-63754000D02*
X133096000Y-57658000D01*
X109220000Y-87630000D02*
X133096000Y-63754000D01*
X132334000Y-60706000D02*
X132334000Y-58928000D01*
X109220000Y-83820000D02*
X132334000Y-60706000D01*
G36*
X114198400Y-48260000D02*
X114206405Y-48299528D01*
X114229157Y-48332828D01*
X114263073Y-48354652D01*
X114300000Y-48361600D01*
X131978400Y-48361600D01*
X131978400Y-58403682D01*
X131806747Y-58575035D01*
X131724400Y-58773349D01*
X131724400Y-52035607D01*
X131845253Y-51914965D01*
X131940192Y-51686326D01*
X131940408Y-51438760D01*
X131845868Y-51209956D01*
X131670965Y-51034747D01*
X131442326Y-50939808D01*
X131194760Y-50939592D01*
X130965956Y-51034132D01*
X130790747Y-51209035D01*
X130695808Y-51437674D01*
X130695592Y-51685240D01*
X130790132Y-51914044D01*
X130911600Y-52035725D01*
X130911600Y-59267664D01*
X125015523Y-65163741D01*
X124844760Y-65163592D01*
X124615956Y-65258132D01*
X124440747Y-65433035D01*
X124345808Y-65661674D01*
X124345592Y-65909240D01*
X124440132Y-66138044D01*
X124615035Y-66313253D01*
X124843674Y-66408192D01*
X125091240Y-66408408D01*
X125320044Y-66313868D01*
X125495253Y-66138965D01*
X125590192Y-65910326D01*
X125590342Y-65738394D01*
X131605368Y-59723368D01*
X131693465Y-59591523D01*
X131724400Y-59436000D01*
X131724400Y-59082238D01*
X131806132Y-59280044D01*
X131927600Y-59401725D01*
X131927600Y-60537664D01*
X109267523Y-83197741D01*
X109096760Y-83197592D01*
X108867956Y-83292132D01*
X108692747Y-83467035D01*
X108597808Y-83695674D01*
X108597592Y-83943240D01*
X108692132Y-84172044D01*
X108867035Y-84347253D01*
X109095674Y-84442192D01*
X109343240Y-84442408D01*
X109572044Y-84347868D01*
X109747253Y-84172965D01*
X109842192Y-83944326D01*
X109842342Y-83772394D01*
X131978400Y-61636336D01*
X131978400Y-64296864D01*
X109267523Y-87007741D01*
X109096760Y-87007592D01*
X108867956Y-87102132D01*
X108692747Y-87277035D01*
X108597808Y-87505674D01*
X108597592Y-87753240D01*
X108692132Y-87982044D01*
X108867035Y-88157253D01*
X109095674Y-88252192D01*
X109343240Y-88252408D01*
X109572044Y-88157868D01*
X109747253Y-87982965D01*
X109842192Y-87754326D01*
X109842342Y-87582394D01*
X114751496Y-82673240D01*
X116852592Y-82673240D01*
X116947132Y-82902044D01*
X117122035Y-83077253D01*
X117350674Y-83172192D01*
X117522606Y-83172342D01*
X123329741Y-88979477D01*
X123329592Y-89150240D01*
X123424132Y-89379044D01*
X123599035Y-89554253D01*
X123827674Y-89649192D01*
X124075240Y-89649408D01*
X124304044Y-89554868D01*
X124479253Y-89379965D01*
X124574192Y-89151326D01*
X124574408Y-88903760D01*
X124479868Y-88674956D01*
X124304965Y-88499747D01*
X124076326Y-88404808D01*
X123904394Y-88404658D01*
X118097259Y-82597523D01*
X118097408Y-82426760D01*
X118002868Y-82197956D01*
X117827965Y-82022747D01*
X117599326Y-81927808D01*
X117351760Y-81927592D01*
X117122956Y-82022132D01*
X116947747Y-82197035D01*
X116852808Y-82425674D01*
X116852592Y-82673240D01*
X114751496Y-82673240D01*
X131978400Y-65446336D01*
X131978400Y-66582864D01*
X131619523Y-66941741D01*
X131448760Y-66941592D01*
X131219956Y-67036132D01*
X131044747Y-67211035D01*
X130949808Y-67439674D01*
X130949592Y-67687240D01*
X131044132Y-67916044D01*
X131219035Y-68091253D01*
X131447674Y-68186192D01*
X131695240Y-68186408D01*
X131924044Y-68091868D01*
X131978400Y-68037607D01*
X131978400Y-83820000D01*
X131986405Y-83859528D01*
X132009157Y-83892828D01*
X132043073Y-83914652D01*
X132080000Y-83921600D01*
X149758400Y-83921600D01*
X149758400Y-89061864D01*
X148548664Y-90271600D01*
X141443607Y-90271600D01*
X141322965Y-90150747D01*
X141094326Y-90055808D01*
X140846760Y-90055592D01*
X140617956Y-90150132D01*
X140442747Y-90325035D01*
X140347808Y-90553674D01*
X140347592Y-90801240D01*
X140442132Y-91030044D01*
X140617035Y-91205253D01*
X140845674Y-91300192D01*
X141093240Y-91300408D01*
X141322044Y-91205868D01*
X141443725Y-91084400D01*
X148717000Y-91084400D01*
X148872523Y-91053465D01*
X149004368Y-90965368D01*
X149758400Y-90211336D01*
X149758400Y-113981526D01*
X149541526Y-114198400D01*
X106722084Y-114198400D01*
X103064084Y-110540400D01*
X136922400Y-110540400D01*
X136922400Y-111090400D01*
X137072796Y-111541693D01*
X137384446Y-111901079D01*
X137793761Y-112099347D01*
X137979600Y-111984158D01*
X137979600Y-110540400D01*
X138284400Y-110540400D01*
X138284400Y-111984158D01*
X138470239Y-112099347D01*
X138879554Y-111901079D01*
X139191204Y-111541693D01*
X139341600Y-111090400D01*
X139341600Y-110540400D01*
X144122400Y-110540400D01*
X144122400Y-111090400D01*
X144272796Y-111541693D01*
X144584446Y-111901079D01*
X144993761Y-112099347D01*
X145179600Y-111984158D01*
X145179600Y-110540400D01*
X145484400Y-110540400D01*
X145484400Y-111984158D01*
X145670239Y-112099347D01*
X146079554Y-111901079D01*
X146391204Y-111541693D01*
X146541600Y-111090400D01*
X146541600Y-110540400D01*
X145484400Y-110540400D01*
X145179600Y-110540400D01*
X144122400Y-110540400D01*
X139341600Y-110540400D01*
X138284400Y-110540400D01*
X137979600Y-110540400D01*
X136922400Y-110540400D01*
X103064084Y-110540400D01*
X102209284Y-109685600D01*
X136922400Y-109685600D01*
X136922400Y-110235600D01*
X137979600Y-110235600D01*
X137979600Y-108791842D01*
X138284400Y-108791842D01*
X138284400Y-110235600D01*
X139341600Y-110235600D01*
X139341600Y-109685600D01*
X144122400Y-109685600D01*
X144122400Y-110235600D01*
X145179600Y-110235600D01*
X145179600Y-108791842D01*
X145484400Y-108791842D01*
X145484400Y-110235600D01*
X146541600Y-110235600D01*
X146541600Y-109685600D01*
X146391204Y-109234307D01*
X146079554Y-108874921D01*
X145670239Y-108676653D01*
X145484400Y-108791842D01*
X145179600Y-108791842D01*
X144993761Y-108676653D01*
X144584446Y-108874921D01*
X144272796Y-109234307D01*
X144122400Y-109685600D01*
X139341600Y-109685600D01*
X139191204Y-109234307D01*
X138879554Y-108874921D01*
X138470239Y-108676653D01*
X138284400Y-108791842D01*
X137979600Y-108791842D01*
X137793761Y-108676653D01*
X137384446Y-108874921D01*
X137072796Y-109234307D01*
X136922400Y-109685600D01*
X102209284Y-109685600D01*
X96621600Y-104097916D01*
X96621600Y-103814383D01*
X97103707Y-103814383D01*
X97535890Y-104860345D01*
X98335446Y-105661298D01*
X99380652Y-106095305D01*
X100512383Y-106096293D01*
X101558345Y-105664110D01*
X101780349Y-105442493D01*
X103556033Y-105442493D01*
X103683597Y-105720537D01*
X104362390Y-105967986D01*
X105084207Y-105936837D01*
X105345707Y-105828521D01*
X105066131Y-106107609D01*
X104775532Y-106807450D01*
X104774870Y-107565226D01*
X105064248Y-108265573D01*
X105599609Y-108801869D01*
X106299450Y-109092468D01*
X107057226Y-109093130D01*
X107757573Y-108803752D01*
X108293869Y-108268391D01*
X108584468Y-107568550D01*
X108584470Y-107565226D01*
X116204870Y-107565226D01*
X116494248Y-108265573D01*
X117029609Y-108801869D01*
X117729450Y-109092468D01*
X118487226Y-109093130D01*
X119187573Y-108803752D01*
X119723869Y-108268391D01*
X120014468Y-107568550D01*
X120014973Y-106990400D01*
X136922400Y-106990400D01*
X136922400Y-107540400D01*
X137072796Y-107991693D01*
X137384446Y-108351079D01*
X137793761Y-108549347D01*
X137979600Y-108434158D01*
X137979600Y-106990400D01*
X138284400Y-106990400D01*
X138284400Y-108434158D01*
X138470239Y-108549347D01*
X138879554Y-108351079D01*
X139191204Y-107991693D01*
X139341600Y-107540400D01*
X139341600Y-106990400D01*
X144122400Y-106990400D01*
X144122400Y-107540400D01*
X144272796Y-107991693D01*
X144584446Y-108351079D01*
X144993761Y-108549347D01*
X145179600Y-108434158D01*
X145179600Y-106990400D01*
X145484400Y-106990400D01*
X145484400Y-108434158D01*
X145670239Y-108549347D01*
X146079554Y-108351079D01*
X146391204Y-107991693D01*
X146541600Y-107540400D01*
X146541600Y-106990400D01*
X145484400Y-106990400D01*
X145179600Y-106990400D01*
X144122400Y-106990400D01*
X139341600Y-106990400D01*
X138284400Y-106990400D01*
X137979600Y-106990400D01*
X136922400Y-106990400D01*
X120014973Y-106990400D01*
X120015130Y-106810774D01*
X119736154Y-106135600D01*
X136922400Y-106135600D01*
X136922400Y-106685600D01*
X137979600Y-106685600D01*
X137979600Y-105241842D01*
X138284400Y-105241842D01*
X138284400Y-106685600D01*
X139341600Y-106685600D01*
X139341600Y-106135600D01*
X144122400Y-106135600D01*
X144122400Y-106685600D01*
X145179600Y-106685600D01*
X145179600Y-105241842D01*
X145484400Y-105241842D01*
X145484400Y-106685600D01*
X146541600Y-106685600D01*
X146541600Y-106135600D01*
X146391204Y-105684307D01*
X146079554Y-105324921D01*
X145670239Y-105126653D01*
X145484400Y-105241842D01*
X145179600Y-105241842D01*
X144993761Y-105126653D01*
X144584446Y-105324921D01*
X144272796Y-105684307D01*
X144122400Y-106135600D01*
X139341600Y-106135600D01*
X139191204Y-105684307D01*
X138879554Y-105324921D01*
X138470239Y-105126653D01*
X138284400Y-105241842D01*
X137979600Y-105241842D01*
X137793761Y-105126653D01*
X137384446Y-105324921D01*
X137072796Y-105684307D01*
X136922400Y-106135600D01*
X119736154Y-106135600D01*
X119725752Y-106110427D01*
X119424041Y-105808189D01*
X119862390Y-105967986D01*
X120584207Y-105936837D01*
X121106403Y-105720537D01*
X121233967Y-105442493D01*
X120145000Y-104353526D01*
X120130858Y-104367669D01*
X119915332Y-104152143D01*
X119929474Y-104138000D01*
X120360526Y-104138000D01*
X121449493Y-105226967D01*
X121727537Y-105099403D01*
X121974986Y-104420610D01*
X121943837Y-103698793D01*
X121727537Y-103176597D01*
X121449493Y-103049033D01*
X120360526Y-104138000D01*
X119929474Y-104138000D01*
X118840507Y-103049033D01*
X118562463Y-103176597D01*
X118315014Y-103855390D01*
X118346163Y-104577207D01*
X118562463Y-105099403D01*
X118840505Y-105226966D01*
X118729308Y-105338163D01*
X118805424Y-105414279D01*
X118490550Y-105283532D01*
X117732774Y-105282870D01*
X117032427Y-105572248D01*
X116496131Y-106107609D01*
X116205532Y-106807450D01*
X116204870Y-107565226D01*
X108584470Y-107565226D01*
X108585130Y-106810774D01*
X108295752Y-106110427D01*
X107760391Y-105574131D01*
X107060550Y-105283532D01*
X106302774Y-105282870D01*
X105984461Y-105414394D01*
X106060692Y-105338163D01*
X105949495Y-105226966D01*
X106227537Y-105099403D01*
X106474986Y-104420610D01*
X106443837Y-103698793D01*
X106227537Y-103176597D01*
X105949493Y-103049033D01*
X104860526Y-104138000D01*
X104874669Y-104152143D01*
X104659143Y-104367669D01*
X104645000Y-104353526D01*
X103556033Y-105442493D01*
X101780349Y-105442493D01*
X102359298Y-104864554D01*
X102778339Y-103855390D01*
X102815014Y-103855390D01*
X102846163Y-104577207D01*
X103062463Y-105099403D01*
X103340507Y-105226967D01*
X104429474Y-104138000D01*
X103340507Y-103049033D01*
X103062463Y-103176597D01*
X102815014Y-103855390D01*
X102778339Y-103855390D01*
X102793305Y-103819348D01*
X102794165Y-102833507D01*
X103556033Y-102833507D01*
X104645000Y-103922474D01*
X105733967Y-102833507D01*
X119056033Y-102833507D01*
X120145000Y-103922474D01*
X121233967Y-102833507D01*
X121106403Y-102555463D01*
X120427610Y-102308014D01*
X119705793Y-102339163D01*
X119183597Y-102555463D01*
X119056033Y-102833507D01*
X105733967Y-102833507D01*
X105606403Y-102555463D01*
X104927610Y-102308014D01*
X104205793Y-102339163D01*
X103683597Y-102555463D01*
X103556033Y-102833507D01*
X102794165Y-102833507D01*
X102794293Y-102687617D01*
X102362110Y-101641655D01*
X101758204Y-101036693D01*
X106946526Y-101036693D01*
X107098948Y-101405581D01*
X107380934Y-101688061D01*
X107749556Y-101841126D01*
X108148693Y-101841474D01*
X108517581Y-101689052D01*
X108800061Y-101407066D01*
X108953126Y-101038444D01*
X108953127Y-101036693D01*
X109486526Y-101036693D01*
X109638948Y-101405581D01*
X109920934Y-101688061D01*
X110289556Y-101841126D01*
X110688693Y-101841474D01*
X111057581Y-101689052D01*
X111340061Y-101407066D01*
X111493126Y-101038444D01*
X111493127Y-101036693D01*
X112026526Y-101036693D01*
X112178948Y-101405581D01*
X112460934Y-101688061D01*
X112829556Y-101841126D01*
X113228693Y-101841474D01*
X113597581Y-101689052D01*
X113880061Y-101407066D01*
X114033126Y-101038444D01*
X114033127Y-101036693D01*
X114566526Y-101036693D01*
X114718948Y-101405581D01*
X115000934Y-101688061D01*
X115369556Y-101841126D01*
X115768693Y-101841474D01*
X116137581Y-101689052D01*
X116420061Y-101407066D01*
X116573126Y-101038444D01*
X116573474Y-100639307D01*
X116421052Y-100270419D01*
X116139066Y-99987939D01*
X115770444Y-99834874D01*
X115371307Y-99834526D01*
X115002419Y-99986948D01*
X114719939Y-100268934D01*
X114566874Y-100637556D01*
X114566526Y-101036693D01*
X114033127Y-101036693D01*
X114033474Y-100639307D01*
X113881052Y-100270419D01*
X113599066Y-99987939D01*
X113230444Y-99834874D01*
X112831307Y-99834526D01*
X112462419Y-99986948D01*
X112179939Y-100268934D01*
X112026874Y-100637556D01*
X112026526Y-101036693D01*
X111493127Y-101036693D01*
X111493474Y-100639307D01*
X111341052Y-100270419D01*
X111059066Y-99987939D01*
X110690444Y-99834874D01*
X110291307Y-99834526D01*
X109922419Y-99986948D01*
X109639939Y-100268934D01*
X109486874Y-100637556D01*
X109486526Y-101036693D01*
X108953127Y-101036693D01*
X108953474Y-100639307D01*
X108801052Y-100270419D01*
X108519066Y-99987939D01*
X108150444Y-99834874D01*
X107751307Y-99834526D01*
X107382419Y-99986948D01*
X107099939Y-100268934D01*
X106946874Y-100637556D01*
X106946526Y-101036693D01*
X101758204Y-101036693D01*
X101562554Y-100840702D01*
X100517348Y-100406695D01*
X99385617Y-100405707D01*
X98339655Y-100837890D01*
X97538702Y-101637446D01*
X97104695Y-102682652D01*
X97103707Y-103814383D01*
X96621600Y-103814383D01*
X96621600Y-99234107D01*
X108499419Y-99234107D01*
X108564484Y-99459519D01*
X109058876Y-99621958D01*
X109577798Y-99582838D01*
X109875516Y-99459519D01*
X109940581Y-99234107D01*
X109220000Y-98513526D01*
X108499419Y-99234107D01*
X96621600Y-99234107D01*
X96621600Y-98136876D01*
X107896042Y-98136876D01*
X107935162Y-98655798D01*
X108058481Y-98953516D01*
X108283893Y-99018581D01*
X109004474Y-98298000D01*
X109435526Y-98298000D01*
X110156107Y-99018581D01*
X110381519Y-98953516D01*
X110531614Y-98496693D01*
X110756526Y-98496693D01*
X110908948Y-98865581D01*
X111190934Y-99148061D01*
X111559556Y-99301126D01*
X111958693Y-99301474D01*
X112327581Y-99149052D01*
X112610061Y-98867066D01*
X112763126Y-98498444D01*
X112763127Y-98496693D01*
X113296526Y-98496693D01*
X113448948Y-98865581D01*
X113730934Y-99148061D01*
X114099556Y-99301126D01*
X114498693Y-99301474D01*
X114867581Y-99149052D01*
X115150061Y-98867066D01*
X115303126Y-98498444D01*
X115303127Y-98496693D01*
X115836526Y-98496693D01*
X115988948Y-98865581D01*
X116270934Y-99148061D01*
X116639556Y-99301126D01*
X117038693Y-99301474D01*
X117407581Y-99149052D01*
X117690061Y-98867066D01*
X117843126Y-98498444D01*
X117843414Y-98167240D01*
X130568592Y-98167240D01*
X130663132Y-98396044D01*
X130838035Y-98571253D01*
X131066674Y-98666192D01*
X131314240Y-98666408D01*
X131468183Y-98602800D01*
X134470009Y-98602800D01*
X134622674Y-98666192D01*
X134870240Y-98666408D01*
X135099044Y-98571868D01*
X135274253Y-98396965D01*
X135369192Y-98168326D01*
X135369408Y-97920760D01*
X135274868Y-97691956D01*
X135099965Y-97516747D01*
X134871326Y-97421808D01*
X134623760Y-97421592D01*
X134469817Y-97485200D01*
X131467991Y-97485200D01*
X131315326Y-97421808D01*
X131067760Y-97421592D01*
X130838956Y-97516132D01*
X130663747Y-97691035D01*
X130568808Y-97919674D01*
X130568592Y-98167240D01*
X117843414Y-98167240D01*
X117843474Y-98099307D01*
X117691052Y-97730419D01*
X117409066Y-97447939D01*
X117040444Y-97294874D01*
X116641307Y-97294526D01*
X116272419Y-97446948D01*
X115989939Y-97728934D01*
X115836874Y-98097556D01*
X115836526Y-98496693D01*
X115303127Y-98496693D01*
X115303474Y-98099307D01*
X115151052Y-97730419D01*
X114869066Y-97447939D01*
X114500444Y-97294874D01*
X114101307Y-97294526D01*
X113732419Y-97446948D01*
X113449939Y-97728934D01*
X113296874Y-98097556D01*
X113296526Y-98496693D01*
X112763127Y-98496693D01*
X112763474Y-98099307D01*
X112611052Y-97730419D01*
X112329066Y-97447939D01*
X111960444Y-97294874D01*
X111561307Y-97294526D01*
X111192419Y-97446948D01*
X110909939Y-97728934D01*
X110756874Y-98097556D01*
X110756526Y-98496693D01*
X110531614Y-98496693D01*
X110543958Y-98459124D01*
X110504838Y-97940202D01*
X110381519Y-97642484D01*
X110156107Y-97577419D01*
X109435526Y-98298000D01*
X109004474Y-98298000D01*
X108283893Y-97577419D01*
X108058481Y-97642484D01*
X107896042Y-98136876D01*
X96621600Y-98136876D01*
X96621600Y-97361893D01*
X108499419Y-97361893D01*
X109220000Y-98082474D01*
X109940581Y-97361893D01*
X109875516Y-97136481D01*
X109381124Y-96974042D01*
X108862202Y-97013162D01*
X108564484Y-97136481D01*
X108499419Y-97361893D01*
X96621600Y-97361893D01*
X96621600Y-89658240D01*
X141363592Y-89658240D01*
X141458132Y-89887044D01*
X141633035Y-90062253D01*
X141861674Y-90157192D01*
X142109240Y-90157408D01*
X142338044Y-90062868D01*
X142459725Y-89941400D01*
X146431000Y-89941400D01*
X146586523Y-89910465D01*
X146718368Y-89822368D01*
X149050477Y-87490259D01*
X149221240Y-87490408D01*
X149450044Y-87395868D01*
X149625253Y-87220965D01*
X149720192Y-86992326D01*
X149720408Y-86744760D01*
X149625868Y-86515956D01*
X149450965Y-86340747D01*
X149222326Y-86245808D01*
X148974760Y-86245592D01*
X148745956Y-86340132D01*
X148570747Y-86515035D01*
X148475808Y-86743674D01*
X148475658Y-86915606D01*
X146262664Y-89128600D01*
X142459607Y-89128600D01*
X142338965Y-89007747D01*
X142110326Y-88912808D01*
X141862760Y-88912592D01*
X141633956Y-89007132D01*
X141458747Y-89182035D01*
X141363808Y-89410674D01*
X141363592Y-89658240D01*
X96621600Y-89658240D01*
X96621600Y-55922084D01*
X100575450Y-51968234D01*
X101558345Y-51562110D01*
X102359298Y-50762554D01*
X102769850Y-49773834D01*
X109262084Y-43281600D01*
X114198400Y-43281600D01*
X114198400Y-48260000D01*
X114198400Y-48260000D01*
G37*
X114198400Y-48260000D02*
X114206405Y-48299528D01*
X114229157Y-48332828D01*
X114263073Y-48354652D01*
X114300000Y-48361600D01*
X131978400Y-48361600D01*
X131978400Y-58403682D01*
X131806747Y-58575035D01*
X131724400Y-58773349D01*
X131724400Y-52035607D01*
X131845253Y-51914965D01*
X131940192Y-51686326D01*
X131940408Y-51438760D01*
X131845868Y-51209956D01*
X131670965Y-51034747D01*
X131442326Y-50939808D01*
X131194760Y-50939592D01*
X130965956Y-51034132D01*
X130790747Y-51209035D01*
X130695808Y-51437674D01*
X130695592Y-51685240D01*
X130790132Y-51914044D01*
X130911600Y-52035725D01*
X130911600Y-59267664D01*
X125015523Y-65163741D01*
X124844760Y-65163592D01*
X124615956Y-65258132D01*
X124440747Y-65433035D01*
X124345808Y-65661674D01*
X124345592Y-65909240D01*
X124440132Y-66138044D01*
X124615035Y-66313253D01*
X124843674Y-66408192D01*
X125091240Y-66408408D01*
X125320044Y-66313868D01*
X125495253Y-66138965D01*
X125590192Y-65910326D01*
X125590342Y-65738394D01*
X131605368Y-59723368D01*
X131693465Y-59591523D01*
X131724400Y-59436000D01*
X131724400Y-59082238D01*
X131806132Y-59280044D01*
X131927600Y-59401725D01*
X131927600Y-60537664D01*
X109267523Y-83197741D01*
X109096760Y-83197592D01*
X108867956Y-83292132D01*
X108692747Y-83467035D01*
X108597808Y-83695674D01*
X108597592Y-83943240D01*
X108692132Y-84172044D01*
X108867035Y-84347253D01*
X109095674Y-84442192D01*
X109343240Y-84442408D01*
X109572044Y-84347868D01*
X109747253Y-84172965D01*
X109842192Y-83944326D01*
X109842342Y-83772394D01*
X131978400Y-61636336D01*
X131978400Y-64296864D01*
X109267523Y-87007741D01*
X109096760Y-87007592D01*
X108867956Y-87102132D01*
X108692747Y-87277035D01*
X108597808Y-87505674D01*
X108597592Y-87753240D01*
X108692132Y-87982044D01*
X108867035Y-88157253D01*
X109095674Y-88252192D01*
X109343240Y-88252408D01*
X109572044Y-88157868D01*
X109747253Y-87982965D01*
X109842192Y-87754326D01*
X109842342Y-87582394D01*
X114751496Y-82673240D01*
X116852592Y-82673240D01*
X116947132Y-82902044D01*
X117122035Y-83077253D01*
X117350674Y-83172192D01*
X117522606Y-83172342D01*
X123329741Y-88979477D01*
X123329592Y-89150240D01*
X123424132Y-89379044D01*
X123599035Y-89554253D01*
X123827674Y-89649192D01*
X124075240Y-89649408D01*
X124304044Y-89554868D01*
X124479253Y-89379965D01*
X124574192Y-89151326D01*
X124574408Y-88903760D01*
X124479868Y-88674956D01*
X124304965Y-88499747D01*
X124076326Y-88404808D01*
X123904394Y-88404658D01*
X118097259Y-82597523D01*
X118097408Y-82426760D01*
X118002868Y-82197956D01*
X117827965Y-82022747D01*
X117599326Y-81927808D01*
X117351760Y-81927592D01*
X117122956Y-82022132D01*
X116947747Y-82197035D01*
X116852808Y-82425674D01*
X116852592Y-82673240D01*
X114751496Y-82673240D01*
X131978400Y-65446336D01*
X131978400Y-66582864D01*
X131619523Y-66941741D01*
X131448760Y-66941592D01*
X131219956Y-67036132D01*
X131044747Y-67211035D01*
X130949808Y-67439674D01*
X130949592Y-67687240D01*
X131044132Y-67916044D01*
X131219035Y-68091253D01*
X131447674Y-68186192D01*
X131695240Y-68186408D01*
X131924044Y-68091868D01*
X131978400Y-68037607D01*
X131978400Y-83820000D01*
X131986405Y-83859528D01*
X132009157Y-83892828D01*
X132043073Y-83914652D01*
X132080000Y-83921600D01*
X149758400Y-83921600D01*
X149758400Y-89061864D01*
X148548664Y-90271600D01*
X141443607Y-90271600D01*
X141322965Y-90150747D01*
X141094326Y-90055808D01*
X140846760Y-90055592D01*
X140617956Y-90150132D01*
X140442747Y-90325035D01*
X140347808Y-90553674D01*
X140347592Y-90801240D01*
X140442132Y-91030044D01*
X140617035Y-91205253D01*
X140845674Y-91300192D01*
X141093240Y-91300408D01*
X141322044Y-91205868D01*
X141443725Y-91084400D01*
X148717000Y-91084400D01*
X148872523Y-91053465D01*
X149004368Y-90965368D01*
X149758400Y-90211336D01*
X149758400Y-113981526D01*
X149541526Y-114198400D01*
X106722084Y-114198400D01*
X103064084Y-110540400D01*
X136922400Y-110540400D01*
X136922400Y-111090400D01*
X137072796Y-111541693D01*
X137384446Y-111901079D01*
X137793761Y-112099347D01*
X137979600Y-111984158D01*
X137979600Y-110540400D01*
X138284400Y-110540400D01*
X138284400Y-111984158D01*
X138470239Y-112099347D01*
X138879554Y-111901079D01*
X139191204Y-111541693D01*
X139341600Y-111090400D01*
X139341600Y-110540400D01*
X144122400Y-110540400D01*
X144122400Y-111090400D01*
X144272796Y-111541693D01*
X144584446Y-111901079D01*
X144993761Y-112099347D01*
X145179600Y-111984158D01*
X145179600Y-110540400D01*
X145484400Y-110540400D01*
X145484400Y-111984158D01*
X145670239Y-112099347D01*
X146079554Y-111901079D01*
X146391204Y-111541693D01*
X146541600Y-111090400D01*
X146541600Y-110540400D01*
X145484400Y-110540400D01*
X145179600Y-110540400D01*
X144122400Y-110540400D01*
X139341600Y-110540400D01*
X138284400Y-110540400D01*
X137979600Y-110540400D01*
X136922400Y-110540400D01*
X103064084Y-110540400D01*
X102209284Y-109685600D01*
X136922400Y-109685600D01*
X136922400Y-110235600D01*
X137979600Y-110235600D01*
X137979600Y-108791842D01*
X138284400Y-108791842D01*
X138284400Y-110235600D01*
X139341600Y-110235600D01*
X139341600Y-109685600D01*
X144122400Y-109685600D01*
X144122400Y-110235600D01*
X145179600Y-110235600D01*
X145179600Y-108791842D01*
X145484400Y-108791842D01*
X145484400Y-110235600D01*
X146541600Y-110235600D01*
X146541600Y-109685600D01*
X146391204Y-109234307D01*
X146079554Y-108874921D01*
X145670239Y-108676653D01*
X145484400Y-108791842D01*
X145179600Y-108791842D01*
X144993761Y-108676653D01*
X144584446Y-108874921D01*
X144272796Y-109234307D01*
X144122400Y-109685600D01*
X139341600Y-109685600D01*
X139191204Y-109234307D01*
X138879554Y-108874921D01*
X138470239Y-108676653D01*
X138284400Y-108791842D01*
X137979600Y-108791842D01*
X137793761Y-108676653D01*
X137384446Y-108874921D01*
X137072796Y-109234307D01*
X136922400Y-109685600D01*
X102209284Y-109685600D01*
X96621600Y-104097916D01*
X96621600Y-103814383D01*
X97103707Y-103814383D01*
X97535890Y-104860345D01*
X98335446Y-105661298D01*
X99380652Y-106095305D01*
X100512383Y-106096293D01*
X101558345Y-105664110D01*
X101780349Y-105442493D01*
X103556033Y-105442493D01*
X103683597Y-105720537D01*
X104362390Y-105967986D01*
X105084207Y-105936837D01*
X105345707Y-105828521D01*
X105066131Y-106107609D01*
X104775532Y-106807450D01*
X104774870Y-107565226D01*
X105064248Y-108265573D01*
X105599609Y-108801869D01*
X106299450Y-109092468D01*
X107057226Y-109093130D01*
X107757573Y-108803752D01*
X108293869Y-108268391D01*
X108584468Y-107568550D01*
X108584470Y-107565226D01*
X116204870Y-107565226D01*
X116494248Y-108265573D01*
X117029609Y-108801869D01*
X117729450Y-109092468D01*
X118487226Y-109093130D01*
X119187573Y-108803752D01*
X119723869Y-108268391D01*
X120014468Y-107568550D01*
X120014973Y-106990400D01*
X136922400Y-106990400D01*
X136922400Y-107540400D01*
X137072796Y-107991693D01*
X137384446Y-108351079D01*
X137793761Y-108549347D01*
X137979600Y-108434158D01*
X137979600Y-106990400D01*
X138284400Y-106990400D01*
X138284400Y-108434158D01*
X138470239Y-108549347D01*
X138879554Y-108351079D01*
X139191204Y-107991693D01*
X139341600Y-107540400D01*
X139341600Y-106990400D01*
X144122400Y-106990400D01*
X144122400Y-107540400D01*
X144272796Y-107991693D01*
X144584446Y-108351079D01*
X144993761Y-108549347D01*
X145179600Y-108434158D01*
X145179600Y-106990400D01*
X145484400Y-106990400D01*
X145484400Y-108434158D01*
X145670239Y-108549347D01*
X146079554Y-108351079D01*
X146391204Y-107991693D01*
X146541600Y-107540400D01*
X146541600Y-106990400D01*
X145484400Y-106990400D01*
X145179600Y-106990400D01*
X144122400Y-106990400D01*
X139341600Y-106990400D01*
X138284400Y-106990400D01*
X137979600Y-106990400D01*
X136922400Y-106990400D01*
X120014973Y-106990400D01*
X120015130Y-106810774D01*
X119736154Y-106135600D01*
X136922400Y-106135600D01*
X136922400Y-106685600D01*
X137979600Y-106685600D01*
X137979600Y-105241842D01*
X138284400Y-105241842D01*
X138284400Y-106685600D01*
X139341600Y-106685600D01*
X139341600Y-106135600D01*
X144122400Y-106135600D01*
X144122400Y-106685600D01*
X145179600Y-106685600D01*
X145179600Y-105241842D01*
X145484400Y-105241842D01*
X145484400Y-106685600D01*
X146541600Y-106685600D01*
X146541600Y-106135600D01*
X146391204Y-105684307D01*
X146079554Y-105324921D01*
X145670239Y-105126653D01*
X145484400Y-105241842D01*
X145179600Y-105241842D01*
X144993761Y-105126653D01*
X144584446Y-105324921D01*
X144272796Y-105684307D01*
X144122400Y-106135600D01*
X139341600Y-106135600D01*
X139191204Y-105684307D01*
X138879554Y-105324921D01*
X138470239Y-105126653D01*
X138284400Y-105241842D01*
X137979600Y-105241842D01*
X137793761Y-105126653D01*
X137384446Y-105324921D01*
X137072796Y-105684307D01*
X136922400Y-106135600D01*
X119736154Y-106135600D01*
X119725752Y-106110427D01*
X119424041Y-105808189D01*
X119862390Y-105967986D01*
X120584207Y-105936837D01*
X121106403Y-105720537D01*
X121233967Y-105442493D01*
X120145000Y-104353526D01*
X120130858Y-104367669D01*
X119915332Y-104152143D01*
X119929474Y-104138000D01*
X120360526Y-104138000D01*
X121449493Y-105226967D01*
X121727537Y-105099403D01*
X121974986Y-104420610D01*
X121943837Y-103698793D01*
X121727537Y-103176597D01*
X121449493Y-103049033D01*
X120360526Y-104138000D01*
X119929474Y-104138000D01*
X118840507Y-103049033D01*
X118562463Y-103176597D01*
X118315014Y-103855390D01*
X118346163Y-104577207D01*
X118562463Y-105099403D01*
X118840505Y-105226966D01*
X118729308Y-105338163D01*
X118805424Y-105414279D01*
X118490550Y-105283532D01*
X117732774Y-105282870D01*
X117032427Y-105572248D01*
X116496131Y-106107609D01*
X116205532Y-106807450D01*
X116204870Y-107565226D01*
X108584470Y-107565226D01*
X108585130Y-106810774D01*
X108295752Y-106110427D01*
X107760391Y-105574131D01*
X107060550Y-105283532D01*
X106302774Y-105282870D01*
X105984461Y-105414394D01*
X106060692Y-105338163D01*
X105949495Y-105226966D01*
X106227537Y-105099403D01*
X106474986Y-104420610D01*
X106443837Y-103698793D01*
X106227537Y-103176597D01*
X105949493Y-103049033D01*
X104860526Y-104138000D01*
X104874669Y-104152143D01*
X104659143Y-104367669D01*
X104645000Y-104353526D01*
X103556033Y-105442493D01*
X101780349Y-105442493D01*
X102359298Y-104864554D01*
X102778339Y-103855390D01*
X102815014Y-103855390D01*
X102846163Y-104577207D01*
X103062463Y-105099403D01*
X103340507Y-105226967D01*
X104429474Y-104138000D01*
X103340507Y-103049033D01*
X103062463Y-103176597D01*
X102815014Y-103855390D01*
X102778339Y-103855390D01*
X102793305Y-103819348D01*
X102794165Y-102833507D01*
X103556033Y-102833507D01*
X104645000Y-103922474D01*
X105733967Y-102833507D01*
X119056033Y-102833507D01*
X120145000Y-103922474D01*
X121233967Y-102833507D01*
X121106403Y-102555463D01*
X120427610Y-102308014D01*
X119705793Y-102339163D01*
X119183597Y-102555463D01*
X119056033Y-102833507D01*
X105733967Y-102833507D01*
X105606403Y-102555463D01*
X104927610Y-102308014D01*
X104205793Y-102339163D01*
X103683597Y-102555463D01*
X103556033Y-102833507D01*
X102794165Y-102833507D01*
X102794293Y-102687617D01*
X102362110Y-101641655D01*
X101758204Y-101036693D01*
X106946526Y-101036693D01*
X107098948Y-101405581D01*
X107380934Y-101688061D01*
X107749556Y-101841126D01*
X108148693Y-101841474D01*
X108517581Y-101689052D01*
X108800061Y-101407066D01*
X108953126Y-101038444D01*
X108953127Y-101036693D01*
X109486526Y-101036693D01*
X109638948Y-101405581D01*
X109920934Y-101688061D01*
X110289556Y-101841126D01*
X110688693Y-101841474D01*
X111057581Y-101689052D01*
X111340061Y-101407066D01*
X111493126Y-101038444D01*
X111493127Y-101036693D01*
X112026526Y-101036693D01*
X112178948Y-101405581D01*
X112460934Y-101688061D01*
X112829556Y-101841126D01*
X113228693Y-101841474D01*
X113597581Y-101689052D01*
X113880061Y-101407066D01*
X114033126Y-101038444D01*
X114033127Y-101036693D01*
X114566526Y-101036693D01*
X114718948Y-101405581D01*
X115000934Y-101688061D01*
X115369556Y-101841126D01*
X115768693Y-101841474D01*
X116137581Y-101689052D01*
X116420061Y-101407066D01*
X116573126Y-101038444D01*
X116573474Y-100639307D01*
X116421052Y-100270419D01*
X116139066Y-99987939D01*
X115770444Y-99834874D01*
X115371307Y-99834526D01*
X115002419Y-99986948D01*
X114719939Y-100268934D01*
X114566874Y-100637556D01*
X114566526Y-101036693D01*
X114033127Y-101036693D01*
X114033474Y-100639307D01*
X113881052Y-100270419D01*
X113599066Y-99987939D01*
X113230444Y-99834874D01*
X112831307Y-99834526D01*
X112462419Y-99986948D01*
X112179939Y-100268934D01*
X112026874Y-100637556D01*
X112026526Y-101036693D01*
X111493127Y-101036693D01*
X111493474Y-100639307D01*
X111341052Y-100270419D01*
X111059066Y-99987939D01*
X110690444Y-99834874D01*
X110291307Y-99834526D01*
X109922419Y-99986948D01*
X109639939Y-100268934D01*
X109486874Y-100637556D01*
X109486526Y-101036693D01*
X108953127Y-101036693D01*
X108953474Y-100639307D01*
X108801052Y-100270419D01*
X108519066Y-99987939D01*
X108150444Y-99834874D01*
X107751307Y-99834526D01*
X107382419Y-99986948D01*
X107099939Y-100268934D01*
X106946874Y-100637556D01*
X106946526Y-101036693D01*
X101758204Y-101036693D01*
X101562554Y-100840702D01*
X100517348Y-100406695D01*
X99385617Y-100405707D01*
X98339655Y-100837890D01*
X97538702Y-101637446D01*
X97104695Y-102682652D01*
X97103707Y-103814383D01*
X96621600Y-103814383D01*
X96621600Y-99234107D01*
X108499419Y-99234107D01*
X108564484Y-99459519D01*
X109058876Y-99621958D01*
X109577798Y-99582838D01*
X109875516Y-99459519D01*
X109940581Y-99234107D01*
X109220000Y-98513526D01*
X108499419Y-99234107D01*
X96621600Y-99234107D01*
X96621600Y-98136876D01*
X107896042Y-98136876D01*
X107935162Y-98655798D01*
X108058481Y-98953516D01*
X108283893Y-99018581D01*
X109004474Y-98298000D01*
X109435526Y-98298000D01*
X110156107Y-99018581D01*
X110381519Y-98953516D01*
X110531614Y-98496693D01*
X110756526Y-98496693D01*
X110908948Y-98865581D01*
X111190934Y-99148061D01*
X111559556Y-99301126D01*
X111958693Y-99301474D01*
X112327581Y-99149052D01*
X112610061Y-98867066D01*
X112763126Y-98498444D01*
X112763127Y-98496693D01*
X113296526Y-98496693D01*
X113448948Y-98865581D01*
X113730934Y-99148061D01*
X114099556Y-99301126D01*
X114498693Y-99301474D01*
X114867581Y-99149052D01*
X115150061Y-98867066D01*
X115303126Y-98498444D01*
X115303127Y-98496693D01*
X115836526Y-98496693D01*
X115988948Y-98865581D01*
X116270934Y-99148061D01*
X116639556Y-99301126D01*
X117038693Y-99301474D01*
X117407581Y-99149052D01*
X117690061Y-98867066D01*
X117843126Y-98498444D01*
X117843414Y-98167240D01*
X130568592Y-98167240D01*
X130663132Y-98396044D01*
X130838035Y-98571253D01*
X131066674Y-98666192D01*
X131314240Y-98666408D01*
X131468183Y-98602800D01*
X134470009Y-98602800D01*
X134622674Y-98666192D01*
X134870240Y-98666408D01*
X135099044Y-98571868D01*
X135274253Y-98396965D01*
X135369192Y-98168326D01*
X135369408Y-97920760D01*
X135274868Y-97691956D01*
X135099965Y-97516747D01*
X134871326Y-97421808D01*
X134623760Y-97421592D01*
X134469817Y-97485200D01*
X131467991Y-97485200D01*
X131315326Y-97421808D01*
X131067760Y-97421592D01*
X130838956Y-97516132D01*
X130663747Y-97691035D01*
X130568808Y-97919674D01*
X130568592Y-98167240D01*
X117843414Y-98167240D01*
X117843474Y-98099307D01*
X117691052Y-97730419D01*
X117409066Y-97447939D01*
X117040444Y-97294874D01*
X116641307Y-97294526D01*
X116272419Y-97446948D01*
X115989939Y-97728934D01*
X115836874Y-98097556D01*
X115836526Y-98496693D01*
X115303127Y-98496693D01*
X115303474Y-98099307D01*
X115151052Y-97730419D01*
X114869066Y-97447939D01*
X114500444Y-97294874D01*
X114101307Y-97294526D01*
X113732419Y-97446948D01*
X113449939Y-97728934D01*
X113296874Y-98097556D01*
X113296526Y-98496693D01*
X112763127Y-98496693D01*
X112763474Y-98099307D01*
X112611052Y-97730419D01*
X112329066Y-97447939D01*
X111960444Y-97294874D01*
X111561307Y-97294526D01*
X111192419Y-97446948D01*
X110909939Y-97728934D01*
X110756874Y-98097556D01*
X110756526Y-98496693D01*
X110531614Y-98496693D01*
X110543958Y-98459124D01*
X110504838Y-97940202D01*
X110381519Y-97642484D01*
X110156107Y-97577419D01*
X109435526Y-98298000D01*
X109004474Y-98298000D01*
X108283893Y-97577419D01*
X108058481Y-97642484D01*
X107896042Y-98136876D01*
X96621600Y-98136876D01*
X96621600Y-97361893D01*
X108499419Y-97361893D01*
X109220000Y-98082474D01*
X109940581Y-97361893D01*
X109875516Y-97136481D01*
X109381124Y-96974042D01*
X108862202Y-97013162D01*
X108564484Y-97136481D01*
X108499419Y-97361893D01*
X96621600Y-97361893D01*
X96621600Y-89658240D01*
X141363592Y-89658240D01*
X141458132Y-89887044D01*
X141633035Y-90062253D01*
X141861674Y-90157192D01*
X142109240Y-90157408D01*
X142338044Y-90062868D01*
X142459725Y-89941400D01*
X146431000Y-89941400D01*
X146586523Y-89910465D01*
X146718368Y-89822368D01*
X149050477Y-87490259D01*
X149221240Y-87490408D01*
X149450044Y-87395868D01*
X149625253Y-87220965D01*
X149720192Y-86992326D01*
X149720408Y-86744760D01*
X149625868Y-86515956D01*
X149450965Y-86340747D01*
X149222326Y-86245808D01*
X148974760Y-86245592D01*
X148745956Y-86340132D01*
X148570747Y-86515035D01*
X148475808Y-86743674D01*
X148475658Y-86915606D01*
X146262664Y-89128600D01*
X142459607Y-89128600D01*
X142338965Y-89007747D01*
X142110326Y-88912808D01*
X141862760Y-88912592D01*
X141633956Y-89007132D01*
X141458747Y-89182035D01*
X141363808Y-89410674D01*
X141363592Y-89658240D01*
X96621600Y-89658240D01*
X96621600Y-55922084D01*
X100575450Y-51968234D01*
X101558345Y-51562110D01*
X102359298Y-50762554D01*
X102769850Y-49773834D01*
X109262084Y-43281600D01*
X114198400Y-43281600D01*
X114198400Y-48260000D01*
M02*
