G04 #@! TF.FileFunction,Soldermask,Bot*
%FSLAX46Y46*%
G04 Gerber Fmt 4.6, Leading zero omitted, Abs format (unit mm)*
G04 Created by KiCad (PCBNEW 4.0.4-stable) date Sunday, April 30, 2017 'PMt' 09:47:11 PM*
%MOMM*%
%LPD*%
G01*
G04 APERTURE LIST*
%ADD10C,0.100000*%
%ADD11C,1.797000*%
%ADD12C,3.600000*%
%ADD13C,2.813000*%
%ADD14R,0.900000X2.100000*%
%ADD15O,1.600000X2.700000*%
%ADD16C,5.480000*%
%ADD17C,1.390600*%
%ADD18C,2.774900*%
%ADD19R,1.416000X1.416000*%
%ADD20C,1.416000*%
%ADD21C,1.060400*%
G04 APERTURE END LIST*
D10*
D11*
X116967000Y-100838000D03*
X115697000Y-98298000D03*
X114427000Y-100838000D03*
X113157000Y-98298000D03*
X111887000Y-100838000D03*
X110617000Y-98298000D03*
X109347000Y-100838000D03*
X108077000Y-98298000D03*
D12*
X106807000Y-107188000D03*
X118237000Y-107188000D03*
D13*
X104772000Y-104138000D03*
X120272000Y-104138000D03*
D14*
X141732000Y-107188000D03*
X142382000Y-107188000D03*
X141082000Y-107188000D03*
X143032000Y-107188000D03*
X140432000Y-107188000D03*
D15*
X145332000Y-106838000D03*
X138132000Y-106838000D03*
X145332000Y-110388000D03*
X138132000Y-110388000D03*
D16*
X154051000Y-103251000D03*
X154051000Y-49149000D03*
X99949000Y-49149000D03*
X99949000Y-103251000D03*
D17*
X142240000Y-51562000D03*
X147320000Y-50546000D03*
X147320000Y-52578000D03*
D18*
X142240000Y-49022000D03*
X145415000Y-49022000D03*
X142240000Y-54102000D03*
X145415000Y-54102000D03*
D19*
X151765000Y-88900000D03*
D20*
X150495000Y-88900000D03*
X151765000Y-90170000D03*
X150495000Y-90170000D03*
X151765000Y-91440000D03*
X150495000Y-91440000D03*
X151765000Y-92710000D03*
X150495000Y-92710000D03*
X151765000Y-93980000D03*
X150495000Y-93980000D03*
D21*
X101981000Y-58928000D03*
X97917000Y-62992000D03*
X101854000Y-69088000D03*
X97790000Y-73152000D03*
X101981000Y-89281000D03*
X97917000Y-93345000D03*
M02*
