G04 #@! TF.FileFunction,Copper,L2,Bot,Signal*
%FSLAX46Y46*%
G04 Gerber Fmt 4.6, Leading zero omitted, Abs format (unit mm)*
G04 Created by KiCad (PCBNEW 4.0.4-stable) date Thursday, February 23, 2017 'PMt' 05:37:00 PM*
%MOMM*%
%LPD*%
G01*
G04 APERTURE LIST*
%ADD10C,0.100000*%
%ADD11C,1.397000*%
%ADD12C,2.413000*%
%ADD13O,1.200000X2.300000*%
%ADD14C,5.080000*%
%ADD15C,0.635000*%
%ADD16C,0.203200*%
%ADD17C,0.508000*%
G04 APERTURE END LIST*
D10*
D11*
X107950000Y-100838000D03*
X109220000Y-98298000D03*
X110490000Y-100838000D03*
X111760000Y-98298000D03*
X113030000Y-100838000D03*
X114300000Y-98298000D03*
X115570000Y-100838000D03*
X116840000Y-98298000D03*
D12*
X120145000Y-104138000D03*
X104645000Y-104138000D03*
D13*
X138132000Y-106838000D03*
X145332000Y-106838000D03*
X138132000Y-110388000D03*
X145332000Y-110388000D03*
D14*
X154051000Y-103251000D03*
X154051000Y-49149000D03*
X99949000Y-49149000D03*
X99949000Y-103251000D03*
D15*
X155194000Y-62738000D03*
X148209000Y-62738000D03*
X155321000Y-68072000D03*
X163322000Y-69469000D03*
X165100000Y-69469000D03*
X163322000Y-60325000D03*
X165100000Y-60325000D03*
X131318000Y-100203000D03*
X143129000Y-105410000D03*
X148590000Y-95377000D03*
X148590000Y-93472000D03*
X145415000Y-91567000D03*
X141224000Y-92837000D03*
X136652000Y-88900000D03*
X132080000Y-89916000D03*
X124968000Y-99060000D03*
X124968000Y-97282000D03*
X107823000Y-91186000D03*
X102108000Y-86614000D03*
X99822000Y-75438000D03*
X107061000Y-48514000D03*
X110744000Y-44259500D03*
X121285000Y-62788000D03*
X126700000Y-52488000D03*
X146431000Y-64389000D03*
X141478000Y-64389000D03*
X131191000Y-98044000D03*
X134747000Y-98044000D03*
X150495000Y-64389000D03*
X123952000Y-89027000D03*
X117475000Y-82550000D03*
X142367000Y-89535000D03*
X146812000Y-87249000D03*
X139573000Y-61214000D03*
X144018000Y-62865000D03*
X141605000Y-90170000D03*
X147574000Y-87884000D03*
X120523000Y-47371000D03*
X148844000Y-51689000D03*
X159639000Y-60579000D03*
X141478000Y-60579000D03*
X157861000Y-53213000D03*
X141097000Y-51181000D03*
X131318000Y-51562000D03*
X124968000Y-65786000D03*
X131572000Y-67564000D03*
X133985000Y-49276000D03*
X158750000Y-54102000D03*
X141478000Y-57531000D03*
X133096000Y-57658000D03*
X109220000Y-87630000D03*
X162433000Y-55118000D03*
X141478000Y-58674000D03*
X132334000Y-58928000D03*
X109220000Y-83820000D03*
D16*
X121285000Y-62788000D02*
X121285000Y-62738000D01*
X126746000Y-52451000D02*
X126737000Y-52451000D01*
X126737000Y-52451000D02*
X126700000Y-52488000D01*
D17*
X141478000Y-64389000D02*
X146431000Y-64389000D01*
X134747000Y-98044000D02*
X131191000Y-98044000D01*
X146431000Y-64389000D02*
X150495000Y-64389000D01*
D16*
X117475000Y-82550000D02*
X123952000Y-89027000D01*
X142367000Y-89535000D02*
X144526000Y-89535000D01*
X144526000Y-89535000D02*
X146812000Y-87249000D01*
X139573000Y-61214000D02*
X141224000Y-62865000D01*
X141224000Y-62865000D02*
X144018000Y-62865000D01*
X141605000Y-90170000D02*
X145288000Y-90170000D01*
X145288000Y-90170000D02*
X147574000Y-87884000D01*
X120523000Y-47371000D02*
X144526000Y-47371000D01*
X144526000Y-47371000D02*
X148844000Y-51689000D01*
X141478000Y-60579000D02*
X159639000Y-60579000D01*
X143129000Y-53213000D02*
X157861000Y-53213000D01*
X141097000Y-51181000D02*
X143129000Y-53213000D01*
X131318000Y-59436000D02*
X131318000Y-51562000D01*
X124968000Y-65786000D02*
X131318000Y-59436000D01*
X133985000Y-65151000D02*
X133985000Y-49276000D01*
X133985000Y-65151000D02*
X131572000Y-67564000D01*
X144907000Y-54102000D02*
X158750000Y-54102000D01*
X141478000Y-57531000D02*
X144907000Y-54102000D01*
X133096000Y-63754000D02*
X133096000Y-57658000D01*
X109220000Y-87630000D02*
X133096000Y-63754000D01*
X145034000Y-55118000D02*
X162433000Y-55118000D01*
X141478000Y-58674000D02*
X145034000Y-55118000D01*
X132334000Y-60706000D02*
X132334000Y-58928000D01*
X109220000Y-83820000D02*
X132334000Y-60706000D01*
G36*
X114198400Y-48260000D02*
X114206405Y-48299528D01*
X114229157Y-48332828D01*
X114263073Y-48354652D01*
X114300000Y-48361600D01*
X144941864Y-48361600D01*
X148221741Y-51641477D01*
X148221592Y-51812240D01*
X148316132Y-52041044D01*
X148491035Y-52216253D01*
X148719674Y-52311192D01*
X148967240Y-52311408D01*
X149196044Y-52216868D01*
X149371253Y-52041965D01*
X149466192Y-51813326D01*
X149466408Y-51565760D01*
X149371868Y-51336956D01*
X149196965Y-51161747D01*
X148968326Y-51066808D01*
X148796394Y-51066658D01*
X146091336Y-48361600D01*
X151297653Y-48361600D01*
X151206695Y-48580652D01*
X151205707Y-49712383D01*
X151637890Y-50758345D01*
X152437446Y-51559298D01*
X153482652Y-51993305D01*
X154614383Y-51994293D01*
X155660345Y-51562110D01*
X156461298Y-50762554D01*
X156895305Y-49717348D01*
X156896293Y-48585617D01*
X156803731Y-48361600D01*
X159701526Y-48361600D01*
X165596900Y-54256974D01*
X165596900Y-60858400D01*
X162052000Y-60858400D01*
X162012472Y-60866405D01*
X161979172Y-60889157D01*
X161957348Y-60923073D01*
X161950400Y-60960000D01*
X161950400Y-68834000D01*
X161958405Y-68873528D01*
X161981157Y-68906828D01*
X162015073Y-68928652D01*
X162052000Y-68935600D01*
X165596900Y-68935600D01*
X165596900Y-83843293D01*
X149860806Y-83718403D01*
X149821216Y-83726094D01*
X149787737Y-83748582D01*
X149765644Y-83782323D01*
X149758400Y-83820000D01*
X149758400Y-113981526D01*
X149541526Y-114198400D01*
X106722084Y-114198400D01*
X103064084Y-110540400D01*
X136922400Y-110540400D01*
X136922400Y-111090400D01*
X137072796Y-111541693D01*
X137384446Y-111901079D01*
X137793761Y-112099347D01*
X137979600Y-111984158D01*
X137979600Y-110540400D01*
X138284400Y-110540400D01*
X138284400Y-111984158D01*
X138470239Y-112099347D01*
X138879554Y-111901079D01*
X139191204Y-111541693D01*
X139341600Y-111090400D01*
X139341600Y-110540400D01*
X144122400Y-110540400D01*
X144122400Y-111090400D01*
X144272796Y-111541693D01*
X144584446Y-111901079D01*
X144993761Y-112099347D01*
X145179600Y-111984158D01*
X145179600Y-110540400D01*
X145484400Y-110540400D01*
X145484400Y-111984158D01*
X145670239Y-112099347D01*
X146079554Y-111901079D01*
X146391204Y-111541693D01*
X146541600Y-111090400D01*
X146541600Y-110540400D01*
X145484400Y-110540400D01*
X145179600Y-110540400D01*
X144122400Y-110540400D01*
X139341600Y-110540400D01*
X138284400Y-110540400D01*
X137979600Y-110540400D01*
X136922400Y-110540400D01*
X103064084Y-110540400D01*
X102209284Y-109685600D01*
X136922400Y-109685600D01*
X136922400Y-110235600D01*
X137979600Y-110235600D01*
X137979600Y-108791842D01*
X138284400Y-108791842D01*
X138284400Y-110235600D01*
X139341600Y-110235600D01*
X139341600Y-109685600D01*
X144122400Y-109685600D01*
X144122400Y-110235600D01*
X145179600Y-110235600D01*
X145179600Y-108791842D01*
X145484400Y-108791842D01*
X145484400Y-110235600D01*
X146541600Y-110235600D01*
X146541600Y-109685600D01*
X146391204Y-109234307D01*
X146079554Y-108874921D01*
X145670239Y-108676653D01*
X145484400Y-108791842D01*
X145179600Y-108791842D01*
X144993761Y-108676653D01*
X144584446Y-108874921D01*
X144272796Y-109234307D01*
X144122400Y-109685600D01*
X139341600Y-109685600D01*
X139191204Y-109234307D01*
X138879554Y-108874921D01*
X138470239Y-108676653D01*
X138284400Y-108791842D01*
X137979600Y-108791842D01*
X137793761Y-108676653D01*
X137384446Y-108874921D01*
X137072796Y-109234307D01*
X136922400Y-109685600D01*
X102209284Y-109685600D01*
X96621600Y-104097916D01*
X96621600Y-103814383D01*
X97103707Y-103814383D01*
X97535890Y-104860345D01*
X98335446Y-105661298D01*
X99380652Y-106095305D01*
X100512383Y-106096293D01*
X101558345Y-105664110D01*
X101780349Y-105442493D01*
X103556033Y-105442493D01*
X103683597Y-105720537D01*
X104362390Y-105967986D01*
X105084207Y-105936837D01*
X105345707Y-105828521D01*
X105066131Y-106107609D01*
X104775532Y-106807450D01*
X104774870Y-107565226D01*
X105064248Y-108265573D01*
X105599609Y-108801869D01*
X106299450Y-109092468D01*
X107057226Y-109093130D01*
X107757573Y-108803752D01*
X108293869Y-108268391D01*
X108584468Y-107568550D01*
X108584470Y-107565226D01*
X116204870Y-107565226D01*
X116494248Y-108265573D01*
X117029609Y-108801869D01*
X117729450Y-109092468D01*
X118487226Y-109093130D01*
X119187573Y-108803752D01*
X119723869Y-108268391D01*
X120014468Y-107568550D01*
X120014973Y-106990400D01*
X136922400Y-106990400D01*
X136922400Y-107540400D01*
X137072796Y-107991693D01*
X137384446Y-108351079D01*
X137793761Y-108549347D01*
X137979600Y-108434158D01*
X137979600Y-106990400D01*
X138284400Y-106990400D01*
X138284400Y-108434158D01*
X138470239Y-108549347D01*
X138879554Y-108351079D01*
X139191204Y-107991693D01*
X139341600Y-107540400D01*
X139341600Y-106990400D01*
X144122400Y-106990400D01*
X144122400Y-107540400D01*
X144272796Y-107991693D01*
X144584446Y-108351079D01*
X144993761Y-108549347D01*
X145179600Y-108434158D01*
X145179600Y-106990400D01*
X145484400Y-106990400D01*
X145484400Y-108434158D01*
X145670239Y-108549347D01*
X146079554Y-108351079D01*
X146391204Y-107991693D01*
X146541600Y-107540400D01*
X146541600Y-106990400D01*
X145484400Y-106990400D01*
X145179600Y-106990400D01*
X144122400Y-106990400D01*
X139341600Y-106990400D01*
X138284400Y-106990400D01*
X137979600Y-106990400D01*
X136922400Y-106990400D01*
X120014973Y-106990400D01*
X120015130Y-106810774D01*
X119736154Y-106135600D01*
X136922400Y-106135600D01*
X136922400Y-106685600D01*
X137979600Y-106685600D01*
X137979600Y-105241842D01*
X138284400Y-105241842D01*
X138284400Y-106685600D01*
X139341600Y-106685600D01*
X139341600Y-106135600D01*
X144122400Y-106135600D01*
X144122400Y-106685600D01*
X145179600Y-106685600D01*
X145179600Y-105241842D01*
X145484400Y-105241842D01*
X145484400Y-106685600D01*
X146541600Y-106685600D01*
X146541600Y-106135600D01*
X146391204Y-105684307D01*
X146079554Y-105324921D01*
X145670239Y-105126653D01*
X145484400Y-105241842D01*
X145179600Y-105241842D01*
X144993761Y-105126653D01*
X144584446Y-105324921D01*
X144272796Y-105684307D01*
X144122400Y-106135600D01*
X139341600Y-106135600D01*
X139191204Y-105684307D01*
X138879554Y-105324921D01*
X138470239Y-105126653D01*
X138284400Y-105241842D01*
X137979600Y-105241842D01*
X137793761Y-105126653D01*
X137384446Y-105324921D01*
X137072796Y-105684307D01*
X136922400Y-106135600D01*
X119736154Y-106135600D01*
X119725752Y-106110427D01*
X119424041Y-105808189D01*
X119862390Y-105967986D01*
X120584207Y-105936837D01*
X121106403Y-105720537D01*
X121233967Y-105442493D01*
X120145000Y-104353526D01*
X120130858Y-104367669D01*
X119915332Y-104152143D01*
X119929474Y-104138000D01*
X120360526Y-104138000D01*
X121449493Y-105226967D01*
X121727537Y-105099403D01*
X121974986Y-104420610D01*
X121943837Y-103698793D01*
X121727537Y-103176597D01*
X121449493Y-103049033D01*
X120360526Y-104138000D01*
X119929474Y-104138000D01*
X118840507Y-103049033D01*
X118562463Y-103176597D01*
X118315014Y-103855390D01*
X118346163Y-104577207D01*
X118562463Y-105099403D01*
X118840505Y-105226966D01*
X118729308Y-105338163D01*
X118805424Y-105414279D01*
X118490550Y-105283532D01*
X117732774Y-105282870D01*
X117032427Y-105572248D01*
X116496131Y-106107609D01*
X116205532Y-106807450D01*
X116204870Y-107565226D01*
X108584470Y-107565226D01*
X108585130Y-106810774D01*
X108295752Y-106110427D01*
X107760391Y-105574131D01*
X107060550Y-105283532D01*
X106302774Y-105282870D01*
X105984461Y-105414394D01*
X106060692Y-105338163D01*
X105949495Y-105226966D01*
X106227537Y-105099403D01*
X106474986Y-104420610D01*
X106443837Y-103698793D01*
X106227537Y-103176597D01*
X105949493Y-103049033D01*
X104860526Y-104138000D01*
X104874669Y-104152143D01*
X104659143Y-104367669D01*
X104645000Y-104353526D01*
X103556033Y-105442493D01*
X101780349Y-105442493D01*
X102359298Y-104864554D01*
X102778339Y-103855390D01*
X102815014Y-103855390D01*
X102846163Y-104577207D01*
X103062463Y-105099403D01*
X103340507Y-105226967D01*
X104429474Y-104138000D01*
X103340507Y-103049033D01*
X103062463Y-103176597D01*
X102815014Y-103855390D01*
X102778339Y-103855390D01*
X102793305Y-103819348D01*
X102794165Y-102833507D01*
X103556033Y-102833507D01*
X104645000Y-103922474D01*
X105733967Y-102833507D01*
X119056033Y-102833507D01*
X120145000Y-103922474D01*
X121233967Y-102833507D01*
X121106403Y-102555463D01*
X120427610Y-102308014D01*
X119705793Y-102339163D01*
X119183597Y-102555463D01*
X119056033Y-102833507D01*
X105733967Y-102833507D01*
X105606403Y-102555463D01*
X104927610Y-102308014D01*
X104205793Y-102339163D01*
X103683597Y-102555463D01*
X103556033Y-102833507D01*
X102794165Y-102833507D01*
X102794293Y-102687617D01*
X102362110Y-101641655D01*
X101758204Y-101036693D01*
X106946526Y-101036693D01*
X107098948Y-101405581D01*
X107380934Y-101688061D01*
X107749556Y-101841126D01*
X108148693Y-101841474D01*
X108517581Y-101689052D01*
X108800061Y-101407066D01*
X108953126Y-101038444D01*
X108953127Y-101036693D01*
X109486526Y-101036693D01*
X109638948Y-101405581D01*
X109920934Y-101688061D01*
X110289556Y-101841126D01*
X110688693Y-101841474D01*
X111057581Y-101689052D01*
X111340061Y-101407066D01*
X111493126Y-101038444D01*
X111493127Y-101036693D01*
X112026526Y-101036693D01*
X112178948Y-101405581D01*
X112460934Y-101688061D01*
X112829556Y-101841126D01*
X113228693Y-101841474D01*
X113597581Y-101689052D01*
X113880061Y-101407066D01*
X114033126Y-101038444D01*
X114033127Y-101036693D01*
X114566526Y-101036693D01*
X114718948Y-101405581D01*
X115000934Y-101688061D01*
X115369556Y-101841126D01*
X115768693Y-101841474D01*
X116137581Y-101689052D01*
X116420061Y-101407066D01*
X116573126Y-101038444D01*
X116573474Y-100639307D01*
X116421052Y-100270419D01*
X116139066Y-99987939D01*
X115770444Y-99834874D01*
X115371307Y-99834526D01*
X115002419Y-99986948D01*
X114719939Y-100268934D01*
X114566874Y-100637556D01*
X114566526Y-101036693D01*
X114033127Y-101036693D01*
X114033474Y-100639307D01*
X113881052Y-100270419D01*
X113599066Y-99987939D01*
X113230444Y-99834874D01*
X112831307Y-99834526D01*
X112462419Y-99986948D01*
X112179939Y-100268934D01*
X112026874Y-100637556D01*
X112026526Y-101036693D01*
X111493127Y-101036693D01*
X111493474Y-100639307D01*
X111341052Y-100270419D01*
X111059066Y-99987939D01*
X110690444Y-99834874D01*
X110291307Y-99834526D01*
X109922419Y-99986948D01*
X109639939Y-100268934D01*
X109486874Y-100637556D01*
X109486526Y-101036693D01*
X108953127Y-101036693D01*
X108953474Y-100639307D01*
X108801052Y-100270419D01*
X108519066Y-99987939D01*
X108150444Y-99834874D01*
X107751307Y-99834526D01*
X107382419Y-99986948D01*
X107099939Y-100268934D01*
X106946874Y-100637556D01*
X106946526Y-101036693D01*
X101758204Y-101036693D01*
X101562554Y-100840702D01*
X100517348Y-100406695D01*
X99385617Y-100405707D01*
X98339655Y-100837890D01*
X97538702Y-101637446D01*
X97104695Y-102682652D01*
X97103707Y-103814383D01*
X96621600Y-103814383D01*
X96621600Y-99234107D01*
X108499419Y-99234107D01*
X108564484Y-99459519D01*
X109058876Y-99621958D01*
X109577798Y-99582838D01*
X109875516Y-99459519D01*
X109940581Y-99234107D01*
X109220000Y-98513526D01*
X108499419Y-99234107D01*
X96621600Y-99234107D01*
X96621600Y-98136876D01*
X107896042Y-98136876D01*
X107935162Y-98655798D01*
X108058481Y-98953516D01*
X108283893Y-99018581D01*
X109004474Y-98298000D01*
X109435526Y-98298000D01*
X110156107Y-99018581D01*
X110381519Y-98953516D01*
X110531614Y-98496693D01*
X110756526Y-98496693D01*
X110908948Y-98865581D01*
X111190934Y-99148061D01*
X111559556Y-99301126D01*
X111958693Y-99301474D01*
X112327581Y-99149052D01*
X112610061Y-98867066D01*
X112763126Y-98498444D01*
X112763127Y-98496693D01*
X113296526Y-98496693D01*
X113448948Y-98865581D01*
X113730934Y-99148061D01*
X114099556Y-99301126D01*
X114498693Y-99301474D01*
X114867581Y-99149052D01*
X115150061Y-98867066D01*
X115303126Y-98498444D01*
X115303127Y-98496693D01*
X115836526Y-98496693D01*
X115988948Y-98865581D01*
X116270934Y-99148061D01*
X116639556Y-99301126D01*
X117038693Y-99301474D01*
X117407581Y-99149052D01*
X117690061Y-98867066D01*
X117843126Y-98498444D01*
X117843414Y-98167240D01*
X130568592Y-98167240D01*
X130663132Y-98396044D01*
X130838035Y-98571253D01*
X131066674Y-98666192D01*
X131314240Y-98666408D01*
X131468183Y-98602800D01*
X134470009Y-98602800D01*
X134622674Y-98666192D01*
X134870240Y-98666408D01*
X135099044Y-98571868D01*
X135274253Y-98396965D01*
X135369192Y-98168326D01*
X135369408Y-97920760D01*
X135274868Y-97691956D01*
X135099965Y-97516747D01*
X134871326Y-97421808D01*
X134623760Y-97421592D01*
X134469817Y-97485200D01*
X131467991Y-97485200D01*
X131315326Y-97421808D01*
X131067760Y-97421592D01*
X130838956Y-97516132D01*
X130663747Y-97691035D01*
X130568808Y-97919674D01*
X130568592Y-98167240D01*
X117843414Y-98167240D01*
X117843474Y-98099307D01*
X117691052Y-97730419D01*
X117409066Y-97447939D01*
X117040444Y-97294874D01*
X116641307Y-97294526D01*
X116272419Y-97446948D01*
X115989939Y-97728934D01*
X115836874Y-98097556D01*
X115836526Y-98496693D01*
X115303127Y-98496693D01*
X115303474Y-98099307D01*
X115151052Y-97730419D01*
X114869066Y-97447939D01*
X114500444Y-97294874D01*
X114101307Y-97294526D01*
X113732419Y-97446948D01*
X113449939Y-97728934D01*
X113296874Y-98097556D01*
X113296526Y-98496693D01*
X112763127Y-98496693D01*
X112763474Y-98099307D01*
X112611052Y-97730419D01*
X112329066Y-97447939D01*
X111960444Y-97294874D01*
X111561307Y-97294526D01*
X111192419Y-97446948D01*
X110909939Y-97728934D01*
X110756874Y-98097556D01*
X110756526Y-98496693D01*
X110531614Y-98496693D01*
X110543958Y-98459124D01*
X110504838Y-97940202D01*
X110381519Y-97642484D01*
X110156107Y-97577419D01*
X109435526Y-98298000D01*
X109004474Y-98298000D01*
X108283893Y-97577419D01*
X108058481Y-97642484D01*
X107896042Y-98136876D01*
X96621600Y-98136876D01*
X96621600Y-97361893D01*
X108499419Y-97361893D01*
X109220000Y-98082474D01*
X109940581Y-97361893D01*
X109875516Y-97136481D01*
X109381124Y-96974042D01*
X108862202Y-97013162D01*
X108564484Y-97136481D01*
X108499419Y-97361893D01*
X96621600Y-97361893D01*
X96621600Y-90293240D01*
X140982592Y-90293240D01*
X141077132Y-90522044D01*
X141252035Y-90697253D01*
X141480674Y-90792192D01*
X141728240Y-90792408D01*
X141957044Y-90697868D01*
X142078725Y-90576400D01*
X145288000Y-90576400D01*
X145443523Y-90545465D01*
X145575368Y-90457368D01*
X147526477Y-88506259D01*
X147697240Y-88506408D01*
X147926044Y-88411868D01*
X148101253Y-88236965D01*
X148196192Y-88008326D01*
X148196408Y-87760760D01*
X148101868Y-87531956D01*
X147926965Y-87356747D01*
X147698326Y-87261808D01*
X147450760Y-87261592D01*
X147434284Y-87268400D01*
X147434408Y-87125760D01*
X147339868Y-86896956D01*
X147164965Y-86721747D01*
X146936326Y-86626808D01*
X146688760Y-86626592D01*
X146459956Y-86721132D01*
X146284747Y-86896035D01*
X146189808Y-87124674D01*
X146189658Y-87296606D01*
X144357664Y-89128600D01*
X142840607Y-89128600D01*
X142719965Y-89007747D01*
X142491326Y-88912808D01*
X142243760Y-88912592D01*
X142014956Y-89007132D01*
X141839747Y-89182035D01*
X141744808Y-89410674D01*
X141744683Y-89554185D01*
X141729326Y-89547808D01*
X141481760Y-89547592D01*
X141252956Y-89642132D01*
X141077747Y-89817035D01*
X140982808Y-90045674D01*
X140982592Y-90293240D01*
X96621600Y-90293240D01*
X96621600Y-83943240D01*
X108597592Y-83943240D01*
X108692132Y-84172044D01*
X108867035Y-84347253D01*
X109095674Y-84442192D01*
X109343240Y-84442408D01*
X109572044Y-84347868D01*
X109747253Y-84172965D01*
X109842192Y-83944326D01*
X109842342Y-83772394D01*
X132621368Y-60993368D01*
X132689600Y-60891253D01*
X132689600Y-63585664D01*
X109267523Y-87007741D01*
X109096760Y-87007592D01*
X108867956Y-87102132D01*
X108692747Y-87277035D01*
X108597808Y-87505674D01*
X108597592Y-87753240D01*
X108692132Y-87982044D01*
X108867035Y-88157253D01*
X109095674Y-88252192D01*
X109343240Y-88252408D01*
X109572044Y-88157868D01*
X109747253Y-87982965D01*
X109842192Y-87754326D01*
X109842342Y-87582394D01*
X114751496Y-82673240D01*
X116852592Y-82673240D01*
X116947132Y-82902044D01*
X117122035Y-83077253D01*
X117350674Y-83172192D01*
X117522606Y-83172342D01*
X123329741Y-88979477D01*
X123329592Y-89150240D01*
X123424132Y-89379044D01*
X123599035Y-89554253D01*
X123827674Y-89649192D01*
X124075240Y-89649408D01*
X124304044Y-89554868D01*
X124479253Y-89379965D01*
X124574192Y-89151326D01*
X124574408Y-88903760D01*
X124479868Y-88674956D01*
X124304965Y-88499747D01*
X124076326Y-88404808D01*
X123904394Y-88404658D01*
X118097259Y-82597523D01*
X118097408Y-82426760D01*
X118002868Y-82197956D01*
X117827965Y-82022747D01*
X117599326Y-81927808D01*
X117351760Y-81927592D01*
X117122956Y-82022132D01*
X116947747Y-82197035D01*
X116852808Y-82425674D01*
X116852592Y-82673240D01*
X114751496Y-82673240D01*
X133383368Y-64041368D01*
X133471465Y-63909523D01*
X133502400Y-63754000D01*
X133502400Y-58131607D01*
X133578600Y-58055540D01*
X133578600Y-64982664D01*
X131619523Y-66941741D01*
X131448760Y-66941592D01*
X131219956Y-67036132D01*
X131044747Y-67211035D01*
X130949808Y-67439674D01*
X130949592Y-67687240D01*
X131044132Y-67916044D01*
X131219035Y-68091253D01*
X131447674Y-68186192D01*
X131695240Y-68186408D01*
X131924044Y-68091868D01*
X132099253Y-67916965D01*
X132194192Y-67688326D01*
X132194342Y-67516394D01*
X134272368Y-65438368D01*
X134360465Y-65306523D01*
X134370090Y-65258132D01*
X134391400Y-65151000D01*
X134391400Y-61337240D01*
X138950592Y-61337240D01*
X139045132Y-61566044D01*
X139220035Y-61741253D01*
X139448674Y-61836192D01*
X139620606Y-61836342D01*
X140936632Y-63152368D01*
X141068478Y-63240466D01*
X141224000Y-63271400D01*
X143544393Y-63271400D01*
X143665035Y-63392253D01*
X143893674Y-63487192D01*
X144141240Y-63487408D01*
X144370044Y-63392868D01*
X144545253Y-63217965D01*
X144640192Y-62989326D01*
X144640408Y-62741760D01*
X144545868Y-62512956D01*
X144370965Y-62337747D01*
X144142326Y-62242808D01*
X143894760Y-62242592D01*
X143665956Y-62337132D01*
X143544275Y-62458600D01*
X141392336Y-62458600D01*
X140195259Y-61261523D01*
X140195408Y-61090760D01*
X140100868Y-60861956D01*
X139941431Y-60702240D01*
X140855592Y-60702240D01*
X140950132Y-60931044D01*
X141125035Y-61106253D01*
X141353674Y-61201192D01*
X141601240Y-61201408D01*
X141830044Y-61106868D01*
X141951725Y-60985400D01*
X159165393Y-60985400D01*
X159286035Y-61106253D01*
X159514674Y-61201192D01*
X159762240Y-61201408D01*
X159991044Y-61106868D01*
X160166253Y-60931965D01*
X160261192Y-60703326D01*
X160261408Y-60455760D01*
X160166868Y-60226956D01*
X159991965Y-60051747D01*
X159763326Y-59956808D01*
X159515760Y-59956592D01*
X159286956Y-60051132D01*
X159165275Y-60172600D01*
X141951607Y-60172600D01*
X141830965Y-60051747D01*
X141602326Y-59956808D01*
X141354760Y-59956592D01*
X141125956Y-60051132D01*
X140950747Y-60226035D01*
X140855808Y-60454674D01*
X140855592Y-60702240D01*
X139941431Y-60702240D01*
X139925965Y-60686747D01*
X139697326Y-60591808D01*
X139449760Y-60591592D01*
X139220956Y-60686132D01*
X139045747Y-60861035D01*
X138950808Y-61089674D01*
X138950592Y-61337240D01*
X134391400Y-61337240D01*
X134391400Y-51304240D01*
X140474592Y-51304240D01*
X140569132Y-51533044D01*
X140744035Y-51708253D01*
X140972674Y-51803192D01*
X141144606Y-51803342D01*
X142841632Y-53500368D01*
X142973477Y-53588465D01*
X143129000Y-53619400D01*
X157387393Y-53619400D01*
X157463460Y-53695600D01*
X144907000Y-53695600D01*
X144751477Y-53726535D01*
X144619632Y-53814632D01*
X141525523Y-56908741D01*
X141354760Y-56908592D01*
X141125956Y-57003132D01*
X140950747Y-57178035D01*
X140855808Y-57406674D01*
X140855592Y-57654240D01*
X140950132Y-57883044D01*
X141125035Y-58058253D01*
X141231574Y-58102492D01*
X141125956Y-58146132D01*
X140950747Y-58321035D01*
X140855808Y-58549674D01*
X140855592Y-58797240D01*
X140950132Y-59026044D01*
X141125035Y-59201253D01*
X141353674Y-59296192D01*
X141601240Y-59296408D01*
X141830044Y-59201868D01*
X142005253Y-59026965D01*
X142100192Y-58798326D01*
X142100342Y-58626394D01*
X145202336Y-55524400D01*
X161959393Y-55524400D01*
X162080035Y-55645253D01*
X162308674Y-55740192D01*
X162556240Y-55740408D01*
X162785044Y-55645868D01*
X162960253Y-55470965D01*
X163055192Y-55242326D01*
X163055408Y-54994760D01*
X162960868Y-54765956D01*
X162785965Y-54590747D01*
X162557326Y-54495808D01*
X162309760Y-54495592D01*
X162080956Y-54590132D01*
X161959275Y-54711600D01*
X158904238Y-54711600D01*
X159102044Y-54629868D01*
X159277253Y-54454965D01*
X159372192Y-54226326D01*
X159372408Y-53978760D01*
X159277868Y-53749956D01*
X159102965Y-53574747D01*
X158874326Y-53479808D01*
X158626760Y-53479592D01*
X158397956Y-53574132D01*
X158276275Y-53695600D01*
X158258391Y-53695600D01*
X158388253Y-53565965D01*
X158483192Y-53337326D01*
X158483408Y-53089760D01*
X158388868Y-52860956D01*
X158213965Y-52685747D01*
X157985326Y-52590808D01*
X157737760Y-52590592D01*
X157508956Y-52685132D01*
X157387275Y-52806600D01*
X143297336Y-52806600D01*
X141719259Y-51228523D01*
X141719408Y-51057760D01*
X141624868Y-50828956D01*
X141449965Y-50653747D01*
X141221326Y-50558808D01*
X140973760Y-50558592D01*
X140744956Y-50653132D01*
X140569747Y-50828035D01*
X140474808Y-51056674D01*
X140474592Y-51304240D01*
X134391400Y-51304240D01*
X134391400Y-49749607D01*
X134512253Y-49628965D01*
X134607192Y-49400326D01*
X134607408Y-49152760D01*
X134512868Y-48923956D01*
X134337965Y-48748747D01*
X134109326Y-48653808D01*
X133861760Y-48653592D01*
X133632956Y-48748132D01*
X133457747Y-48923035D01*
X133362808Y-49151674D01*
X133362592Y-49399240D01*
X133457132Y-49628044D01*
X133578600Y-49749725D01*
X133578600Y-57260609D01*
X133448965Y-57130747D01*
X133220326Y-57035808D01*
X132972760Y-57035592D01*
X132743956Y-57130132D01*
X132568747Y-57305035D01*
X132473808Y-57533674D01*
X132473592Y-57781240D01*
X132568132Y-58010044D01*
X132689600Y-58131725D01*
X132689600Y-58403387D01*
X132686965Y-58400747D01*
X132458326Y-58305808D01*
X132210760Y-58305592D01*
X131981956Y-58400132D01*
X131806747Y-58575035D01*
X131724400Y-58773349D01*
X131724400Y-52035607D01*
X131845253Y-51914965D01*
X131940192Y-51686326D01*
X131940408Y-51438760D01*
X131845868Y-51209956D01*
X131670965Y-51034747D01*
X131442326Y-50939808D01*
X131194760Y-50939592D01*
X130965956Y-51034132D01*
X130790747Y-51209035D01*
X130695808Y-51437674D01*
X130695592Y-51685240D01*
X130790132Y-51914044D01*
X130911600Y-52035725D01*
X130911600Y-59267664D01*
X125015523Y-65163741D01*
X124844760Y-65163592D01*
X124615956Y-65258132D01*
X124440747Y-65433035D01*
X124345808Y-65661674D01*
X124345592Y-65909240D01*
X124440132Y-66138044D01*
X124615035Y-66313253D01*
X124843674Y-66408192D01*
X125091240Y-66408408D01*
X125320044Y-66313868D01*
X125495253Y-66138965D01*
X125590192Y-65910326D01*
X125590342Y-65738394D01*
X131605368Y-59723368D01*
X131693465Y-59591523D01*
X131724400Y-59436000D01*
X131724400Y-59082238D01*
X131806132Y-59280044D01*
X131927600Y-59401725D01*
X131927600Y-60537664D01*
X109267523Y-83197741D01*
X109096760Y-83197592D01*
X108867956Y-83292132D01*
X108692747Y-83467035D01*
X108597808Y-83695674D01*
X108597592Y-83943240D01*
X96621600Y-83943240D01*
X96621600Y-55922084D01*
X100575450Y-51968234D01*
X101558345Y-51562110D01*
X102359298Y-50762554D01*
X102769850Y-49773834D01*
X109262084Y-43281600D01*
X114198400Y-43281600D01*
X114198400Y-48260000D01*
X114198400Y-48260000D01*
G37*
X114198400Y-48260000D02*
X114206405Y-48299528D01*
X114229157Y-48332828D01*
X114263073Y-48354652D01*
X114300000Y-48361600D01*
X144941864Y-48361600D01*
X148221741Y-51641477D01*
X148221592Y-51812240D01*
X148316132Y-52041044D01*
X148491035Y-52216253D01*
X148719674Y-52311192D01*
X148967240Y-52311408D01*
X149196044Y-52216868D01*
X149371253Y-52041965D01*
X149466192Y-51813326D01*
X149466408Y-51565760D01*
X149371868Y-51336956D01*
X149196965Y-51161747D01*
X148968326Y-51066808D01*
X148796394Y-51066658D01*
X146091336Y-48361600D01*
X151297653Y-48361600D01*
X151206695Y-48580652D01*
X151205707Y-49712383D01*
X151637890Y-50758345D01*
X152437446Y-51559298D01*
X153482652Y-51993305D01*
X154614383Y-51994293D01*
X155660345Y-51562110D01*
X156461298Y-50762554D01*
X156895305Y-49717348D01*
X156896293Y-48585617D01*
X156803731Y-48361600D01*
X159701526Y-48361600D01*
X165596900Y-54256974D01*
X165596900Y-60858400D01*
X162052000Y-60858400D01*
X162012472Y-60866405D01*
X161979172Y-60889157D01*
X161957348Y-60923073D01*
X161950400Y-60960000D01*
X161950400Y-68834000D01*
X161958405Y-68873528D01*
X161981157Y-68906828D01*
X162015073Y-68928652D01*
X162052000Y-68935600D01*
X165596900Y-68935600D01*
X165596900Y-83843293D01*
X149860806Y-83718403D01*
X149821216Y-83726094D01*
X149787737Y-83748582D01*
X149765644Y-83782323D01*
X149758400Y-83820000D01*
X149758400Y-113981526D01*
X149541526Y-114198400D01*
X106722084Y-114198400D01*
X103064084Y-110540400D01*
X136922400Y-110540400D01*
X136922400Y-111090400D01*
X137072796Y-111541693D01*
X137384446Y-111901079D01*
X137793761Y-112099347D01*
X137979600Y-111984158D01*
X137979600Y-110540400D01*
X138284400Y-110540400D01*
X138284400Y-111984158D01*
X138470239Y-112099347D01*
X138879554Y-111901079D01*
X139191204Y-111541693D01*
X139341600Y-111090400D01*
X139341600Y-110540400D01*
X144122400Y-110540400D01*
X144122400Y-111090400D01*
X144272796Y-111541693D01*
X144584446Y-111901079D01*
X144993761Y-112099347D01*
X145179600Y-111984158D01*
X145179600Y-110540400D01*
X145484400Y-110540400D01*
X145484400Y-111984158D01*
X145670239Y-112099347D01*
X146079554Y-111901079D01*
X146391204Y-111541693D01*
X146541600Y-111090400D01*
X146541600Y-110540400D01*
X145484400Y-110540400D01*
X145179600Y-110540400D01*
X144122400Y-110540400D01*
X139341600Y-110540400D01*
X138284400Y-110540400D01*
X137979600Y-110540400D01*
X136922400Y-110540400D01*
X103064084Y-110540400D01*
X102209284Y-109685600D01*
X136922400Y-109685600D01*
X136922400Y-110235600D01*
X137979600Y-110235600D01*
X137979600Y-108791842D01*
X138284400Y-108791842D01*
X138284400Y-110235600D01*
X139341600Y-110235600D01*
X139341600Y-109685600D01*
X144122400Y-109685600D01*
X144122400Y-110235600D01*
X145179600Y-110235600D01*
X145179600Y-108791842D01*
X145484400Y-108791842D01*
X145484400Y-110235600D01*
X146541600Y-110235600D01*
X146541600Y-109685600D01*
X146391204Y-109234307D01*
X146079554Y-108874921D01*
X145670239Y-108676653D01*
X145484400Y-108791842D01*
X145179600Y-108791842D01*
X144993761Y-108676653D01*
X144584446Y-108874921D01*
X144272796Y-109234307D01*
X144122400Y-109685600D01*
X139341600Y-109685600D01*
X139191204Y-109234307D01*
X138879554Y-108874921D01*
X138470239Y-108676653D01*
X138284400Y-108791842D01*
X137979600Y-108791842D01*
X137793761Y-108676653D01*
X137384446Y-108874921D01*
X137072796Y-109234307D01*
X136922400Y-109685600D01*
X102209284Y-109685600D01*
X96621600Y-104097916D01*
X96621600Y-103814383D01*
X97103707Y-103814383D01*
X97535890Y-104860345D01*
X98335446Y-105661298D01*
X99380652Y-106095305D01*
X100512383Y-106096293D01*
X101558345Y-105664110D01*
X101780349Y-105442493D01*
X103556033Y-105442493D01*
X103683597Y-105720537D01*
X104362390Y-105967986D01*
X105084207Y-105936837D01*
X105345707Y-105828521D01*
X105066131Y-106107609D01*
X104775532Y-106807450D01*
X104774870Y-107565226D01*
X105064248Y-108265573D01*
X105599609Y-108801869D01*
X106299450Y-109092468D01*
X107057226Y-109093130D01*
X107757573Y-108803752D01*
X108293869Y-108268391D01*
X108584468Y-107568550D01*
X108584470Y-107565226D01*
X116204870Y-107565226D01*
X116494248Y-108265573D01*
X117029609Y-108801869D01*
X117729450Y-109092468D01*
X118487226Y-109093130D01*
X119187573Y-108803752D01*
X119723869Y-108268391D01*
X120014468Y-107568550D01*
X120014973Y-106990400D01*
X136922400Y-106990400D01*
X136922400Y-107540400D01*
X137072796Y-107991693D01*
X137384446Y-108351079D01*
X137793761Y-108549347D01*
X137979600Y-108434158D01*
X137979600Y-106990400D01*
X138284400Y-106990400D01*
X138284400Y-108434158D01*
X138470239Y-108549347D01*
X138879554Y-108351079D01*
X139191204Y-107991693D01*
X139341600Y-107540400D01*
X139341600Y-106990400D01*
X144122400Y-106990400D01*
X144122400Y-107540400D01*
X144272796Y-107991693D01*
X144584446Y-108351079D01*
X144993761Y-108549347D01*
X145179600Y-108434158D01*
X145179600Y-106990400D01*
X145484400Y-106990400D01*
X145484400Y-108434158D01*
X145670239Y-108549347D01*
X146079554Y-108351079D01*
X146391204Y-107991693D01*
X146541600Y-107540400D01*
X146541600Y-106990400D01*
X145484400Y-106990400D01*
X145179600Y-106990400D01*
X144122400Y-106990400D01*
X139341600Y-106990400D01*
X138284400Y-106990400D01*
X137979600Y-106990400D01*
X136922400Y-106990400D01*
X120014973Y-106990400D01*
X120015130Y-106810774D01*
X119736154Y-106135600D01*
X136922400Y-106135600D01*
X136922400Y-106685600D01*
X137979600Y-106685600D01*
X137979600Y-105241842D01*
X138284400Y-105241842D01*
X138284400Y-106685600D01*
X139341600Y-106685600D01*
X139341600Y-106135600D01*
X144122400Y-106135600D01*
X144122400Y-106685600D01*
X145179600Y-106685600D01*
X145179600Y-105241842D01*
X145484400Y-105241842D01*
X145484400Y-106685600D01*
X146541600Y-106685600D01*
X146541600Y-106135600D01*
X146391204Y-105684307D01*
X146079554Y-105324921D01*
X145670239Y-105126653D01*
X145484400Y-105241842D01*
X145179600Y-105241842D01*
X144993761Y-105126653D01*
X144584446Y-105324921D01*
X144272796Y-105684307D01*
X144122400Y-106135600D01*
X139341600Y-106135600D01*
X139191204Y-105684307D01*
X138879554Y-105324921D01*
X138470239Y-105126653D01*
X138284400Y-105241842D01*
X137979600Y-105241842D01*
X137793761Y-105126653D01*
X137384446Y-105324921D01*
X137072796Y-105684307D01*
X136922400Y-106135600D01*
X119736154Y-106135600D01*
X119725752Y-106110427D01*
X119424041Y-105808189D01*
X119862390Y-105967986D01*
X120584207Y-105936837D01*
X121106403Y-105720537D01*
X121233967Y-105442493D01*
X120145000Y-104353526D01*
X120130858Y-104367669D01*
X119915332Y-104152143D01*
X119929474Y-104138000D01*
X120360526Y-104138000D01*
X121449493Y-105226967D01*
X121727537Y-105099403D01*
X121974986Y-104420610D01*
X121943837Y-103698793D01*
X121727537Y-103176597D01*
X121449493Y-103049033D01*
X120360526Y-104138000D01*
X119929474Y-104138000D01*
X118840507Y-103049033D01*
X118562463Y-103176597D01*
X118315014Y-103855390D01*
X118346163Y-104577207D01*
X118562463Y-105099403D01*
X118840505Y-105226966D01*
X118729308Y-105338163D01*
X118805424Y-105414279D01*
X118490550Y-105283532D01*
X117732774Y-105282870D01*
X117032427Y-105572248D01*
X116496131Y-106107609D01*
X116205532Y-106807450D01*
X116204870Y-107565226D01*
X108584470Y-107565226D01*
X108585130Y-106810774D01*
X108295752Y-106110427D01*
X107760391Y-105574131D01*
X107060550Y-105283532D01*
X106302774Y-105282870D01*
X105984461Y-105414394D01*
X106060692Y-105338163D01*
X105949495Y-105226966D01*
X106227537Y-105099403D01*
X106474986Y-104420610D01*
X106443837Y-103698793D01*
X106227537Y-103176597D01*
X105949493Y-103049033D01*
X104860526Y-104138000D01*
X104874669Y-104152143D01*
X104659143Y-104367669D01*
X104645000Y-104353526D01*
X103556033Y-105442493D01*
X101780349Y-105442493D01*
X102359298Y-104864554D01*
X102778339Y-103855390D01*
X102815014Y-103855390D01*
X102846163Y-104577207D01*
X103062463Y-105099403D01*
X103340507Y-105226967D01*
X104429474Y-104138000D01*
X103340507Y-103049033D01*
X103062463Y-103176597D01*
X102815014Y-103855390D01*
X102778339Y-103855390D01*
X102793305Y-103819348D01*
X102794165Y-102833507D01*
X103556033Y-102833507D01*
X104645000Y-103922474D01*
X105733967Y-102833507D01*
X119056033Y-102833507D01*
X120145000Y-103922474D01*
X121233967Y-102833507D01*
X121106403Y-102555463D01*
X120427610Y-102308014D01*
X119705793Y-102339163D01*
X119183597Y-102555463D01*
X119056033Y-102833507D01*
X105733967Y-102833507D01*
X105606403Y-102555463D01*
X104927610Y-102308014D01*
X104205793Y-102339163D01*
X103683597Y-102555463D01*
X103556033Y-102833507D01*
X102794165Y-102833507D01*
X102794293Y-102687617D01*
X102362110Y-101641655D01*
X101758204Y-101036693D01*
X106946526Y-101036693D01*
X107098948Y-101405581D01*
X107380934Y-101688061D01*
X107749556Y-101841126D01*
X108148693Y-101841474D01*
X108517581Y-101689052D01*
X108800061Y-101407066D01*
X108953126Y-101038444D01*
X108953127Y-101036693D01*
X109486526Y-101036693D01*
X109638948Y-101405581D01*
X109920934Y-101688061D01*
X110289556Y-101841126D01*
X110688693Y-101841474D01*
X111057581Y-101689052D01*
X111340061Y-101407066D01*
X111493126Y-101038444D01*
X111493127Y-101036693D01*
X112026526Y-101036693D01*
X112178948Y-101405581D01*
X112460934Y-101688061D01*
X112829556Y-101841126D01*
X113228693Y-101841474D01*
X113597581Y-101689052D01*
X113880061Y-101407066D01*
X114033126Y-101038444D01*
X114033127Y-101036693D01*
X114566526Y-101036693D01*
X114718948Y-101405581D01*
X115000934Y-101688061D01*
X115369556Y-101841126D01*
X115768693Y-101841474D01*
X116137581Y-101689052D01*
X116420061Y-101407066D01*
X116573126Y-101038444D01*
X116573474Y-100639307D01*
X116421052Y-100270419D01*
X116139066Y-99987939D01*
X115770444Y-99834874D01*
X115371307Y-99834526D01*
X115002419Y-99986948D01*
X114719939Y-100268934D01*
X114566874Y-100637556D01*
X114566526Y-101036693D01*
X114033127Y-101036693D01*
X114033474Y-100639307D01*
X113881052Y-100270419D01*
X113599066Y-99987939D01*
X113230444Y-99834874D01*
X112831307Y-99834526D01*
X112462419Y-99986948D01*
X112179939Y-100268934D01*
X112026874Y-100637556D01*
X112026526Y-101036693D01*
X111493127Y-101036693D01*
X111493474Y-100639307D01*
X111341052Y-100270419D01*
X111059066Y-99987939D01*
X110690444Y-99834874D01*
X110291307Y-99834526D01*
X109922419Y-99986948D01*
X109639939Y-100268934D01*
X109486874Y-100637556D01*
X109486526Y-101036693D01*
X108953127Y-101036693D01*
X108953474Y-100639307D01*
X108801052Y-100270419D01*
X108519066Y-99987939D01*
X108150444Y-99834874D01*
X107751307Y-99834526D01*
X107382419Y-99986948D01*
X107099939Y-100268934D01*
X106946874Y-100637556D01*
X106946526Y-101036693D01*
X101758204Y-101036693D01*
X101562554Y-100840702D01*
X100517348Y-100406695D01*
X99385617Y-100405707D01*
X98339655Y-100837890D01*
X97538702Y-101637446D01*
X97104695Y-102682652D01*
X97103707Y-103814383D01*
X96621600Y-103814383D01*
X96621600Y-99234107D01*
X108499419Y-99234107D01*
X108564484Y-99459519D01*
X109058876Y-99621958D01*
X109577798Y-99582838D01*
X109875516Y-99459519D01*
X109940581Y-99234107D01*
X109220000Y-98513526D01*
X108499419Y-99234107D01*
X96621600Y-99234107D01*
X96621600Y-98136876D01*
X107896042Y-98136876D01*
X107935162Y-98655798D01*
X108058481Y-98953516D01*
X108283893Y-99018581D01*
X109004474Y-98298000D01*
X109435526Y-98298000D01*
X110156107Y-99018581D01*
X110381519Y-98953516D01*
X110531614Y-98496693D01*
X110756526Y-98496693D01*
X110908948Y-98865581D01*
X111190934Y-99148061D01*
X111559556Y-99301126D01*
X111958693Y-99301474D01*
X112327581Y-99149052D01*
X112610061Y-98867066D01*
X112763126Y-98498444D01*
X112763127Y-98496693D01*
X113296526Y-98496693D01*
X113448948Y-98865581D01*
X113730934Y-99148061D01*
X114099556Y-99301126D01*
X114498693Y-99301474D01*
X114867581Y-99149052D01*
X115150061Y-98867066D01*
X115303126Y-98498444D01*
X115303127Y-98496693D01*
X115836526Y-98496693D01*
X115988948Y-98865581D01*
X116270934Y-99148061D01*
X116639556Y-99301126D01*
X117038693Y-99301474D01*
X117407581Y-99149052D01*
X117690061Y-98867066D01*
X117843126Y-98498444D01*
X117843414Y-98167240D01*
X130568592Y-98167240D01*
X130663132Y-98396044D01*
X130838035Y-98571253D01*
X131066674Y-98666192D01*
X131314240Y-98666408D01*
X131468183Y-98602800D01*
X134470009Y-98602800D01*
X134622674Y-98666192D01*
X134870240Y-98666408D01*
X135099044Y-98571868D01*
X135274253Y-98396965D01*
X135369192Y-98168326D01*
X135369408Y-97920760D01*
X135274868Y-97691956D01*
X135099965Y-97516747D01*
X134871326Y-97421808D01*
X134623760Y-97421592D01*
X134469817Y-97485200D01*
X131467991Y-97485200D01*
X131315326Y-97421808D01*
X131067760Y-97421592D01*
X130838956Y-97516132D01*
X130663747Y-97691035D01*
X130568808Y-97919674D01*
X130568592Y-98167240D01*
X117843414Y-98167240D01*
X117843474Y-98099307D01*
X117691052Y-97730419D01*
X117409066Y-97447939D01*
X117040444Y-97294874D01*
X116641307Y-97294526D01*
X116272419Y-97446948D01*
X115989939Y-97728934D01*
X115836874Y-98097556D01*
X115836526Y-98496693D01*
X115303127Y-98496693D01*
X115303474Y-98099307D01*
X115151052Y-97730419D01*
X114869066Y-97447939D01*
X114500444Y-97294874D01*
X114101307Y-97294526D01*
X113732419Y-97446948D01*
X113449939Y-97728934D01*
X113296874Y-98097556D01*
X113296526Y-98496693D01*
X112763127Y-98496693D01*
X112763474Y-98099307D01*
X112611052Y-97730419D01*
X112329066Y-97447939D01*
X111960444Y-97294874D01*
X111561307Y-97294526D01*
X111192419Y-97446948D01*
X110909939Y-97728934D01*
X110756874Y-98097556D01*
X110756526Y-98496693D01*
X110531614Y-98496693D01*
X110543958Y-98459124D01*
X110504838Y-97940202D01*
X110381519Y-97642484D01*
X110156107Y-97577419D01*
X109435526Y-98298000D01*
X109004474Y-98298000D01*
X108283893Y-97577419D01*
X108058481Y-97642484D01*
X107896042Y-98136876D01*
X96621600Y-98136876D01*
X96621600Y-97361893D01*
X108499419Y-97361893D01*
X109220000Y-98082474D01*
X109940581Y-97361893D01*
X109875516Y-97136481D01*
X109381124Y-96974042D01*
X108862202Y-97013162D01*
X108564484Y-97136481D01*
X108499419Y-97361893D01*
X96621600Y-97361893D01*
X96621600Y-90293240D01*
X140982592Y-90293240D01*
X141077132Y-90522044D01*
X141252035Y-90697253D01*
X141480674Y-90792192D01*
X141728240Y-90792408D01*
X141957044Y-90697868D01*
X142078725Y-90576400D01*
X145288000Y-90576400D01*
X145443523Y-90545465D01*
X145575368Y-90457368D01*
X147526477Y-88506259D01*
X147697240Y-88506408D01*
X147926044Y-88411868D01*
X148101253Y-88236965D01*
X148196192Y-88008326D01*
X148196408Y-87760760D01*
X148101868Y-87531956D01*
X147926965Y-87356747D01*
X147698326Y-87261808D01*
X147450760Y-87261592D01*
X147434284Y-87268400D01*
X147434408Y-87125760D01*
X147339868Y-86896956D01*
X147164965Y-86721747D01*
X146936326Y-86626808D01*
X146688760Y-86626592D01*
X146459956Y-86721132D01*
X146284747Y-86896035D01*
X146189808Y-87124674D01*
X146189658Y-87296606D01*
X144357664Y-89128600D01*
X142840607Y-89128600D01*
X142719965Y-89007747D01*
X142491326Y-88912808D01*
X142243760Y-88912592D01*
X142014956Y-89007132D01*
X141839747Y-89182035D01*
X141744808Y-89410674D01*
X141744683Y-89554185D01*
X141729326Y-89547808D01*
X141481760Y-89547592D01*
X141252956Y-89642132D01*
X141077747Y-89817035D01*
X140982808Y-90045674D01*
X140982592Y-90293240D01*
X96621600Y-90293240D01*
X96621600Y-83943240D01*
X108597592Y-83943240D01*
X108692132Y-84172044D01*
X108867035Y-84347253D01*
X109095674Y-84442192D01*
X109343240Y-84442408D01*
X109572044Y-84347868D01*
X109747253Y-84172965D01*
X109842192Y-83944326D01*
X109842342Y-83772394D01*
X132621368Y-60993368D01*
X132689600Y-60891253D01*
X132689600Y-63585664D01*
X109267523Y-87007741D01*
X109096760Y-87007592D01*
X108867956Y-87102132D01*
X108692747Y-87277035D01*
X108597808Y-87505674D01*
X108597592Y-87753240D01*
X108692132Y-87982044D01*
X108867035Y-88157253D01*
X109095674Y-88252192D01*
X109343240Y-88252408D01*
X109572044Y-88157868D01*
X109747253Y-87982965D01*
X109842192Y-87754326D01*
X109842342Y-87582394D01*
X114751496Y-82673240D01*
X116852592Y-82673240D01*
X116947132Y-82902044D01*
X117122035Y-83077253D01*
X117350674Y-83172192D01*
X117522606Y-83172342D01*
X123329741Y-88979477D01*
X123329592Y-89150240D01*
X123424132Y-89379044D01*
X123599035Y-89554253D01*
X123827674Y-89649192D01*
X124075240Y-89649408D01*
X124304044Y-89554868D01*
X124479253Y-89379965D01*
X124574192Y-89151326D01*
X124574408Y-88903760D01*
X124479868Y-88674956D01*
X124304965Y-88499747D01*
X124076326Y-88404808D01*
X123904394Y-88404658D01*
X118097259Y-82597523D01*
X118097408Y-82426760D01*
X118002868Y-82197956D01*
X117827965Y-82022747D01*
X117599326Y-81927808D01*
X117351760Y-81927592D01*
X117122956Y-82022132D01*
X116947747Y-82197035D01*
X116852808Y-82425674D01*
X116852592Y-82673240D01*
X114751496Y-82673240D01*
X133383368Y-64041368D01*
X133471465Y-63909523D01*
X133502400Y-63754000D01*
X133502400Y-58131607D01*
X133578600Y-58055540D01*
X133578600Y-64982664D01*
X131619523Y-66941741D01*
X131448760Y-66941592D01*
X131219956Y-67036132D01*
X131044747Y-67211035D01*
X130949808Y-67439674D01*
X130949592Y-67687240D01*
X131044132Y-67916044D01*
X131219035Y-68091253D01*
X131447674Y-68186192D01*
X131695240Y-68186408D01*
X131924044Y-68091868D01*
X132099253Y-67916965D01*
X132194192Y-67688326D01*
X132194342Y-67516394D01*
X134272368Y-65438368D01*
X134360465Y-65306523D01*
X134370090Y-65258132D01*
X134391400Y-65151000D01*
X134391400Y-61337240D01*
X138950592Y-61337240D01*
X139045132Y-61566044D01*
X139220035Y-61741253D01*
X139448674Y-61836192D01*
X139620606Y-61836342D01*
X140936632Y-63152368D01*
X141068478Y-63240466D01*
X141224000Y-63271400D01*
X143544393Y-63271400D01*
X143665035Y-63392253D01*
X143893674Y-63487192D01*
X144141240Y-63487408D01*
X144370044Y-63392868D01*
X144545253Y-63217965D01*
X144640192Y-62989326D01*
X144640408Y-62741760D01*
X144545868Y-62512956D01*
X144370965Y-62337747D01*
X144142326Y-62242808D01*
X143894760Y-62242592D01*
X143665956Y-62337132D01*
X143544275Y-62458600D01*
X141392336Y-62458600D01*
X140195259Y-61261523D01*
X140195408Y-61090760D01*
X140100868Y-60861956D01*
X139941431Y-60702240D01*
X140855592Y-60702240D01*
X140950132Y-60931044D01*
X141125035Y-61106253D01*
X141353674Y-61201192D01*
X141601240Y-61201408D01*
X141830044Y-61106868D01*
X141951725Y-60985400D01*
X159165393Y-60985400D01*
X159286035Y-61106253D01*
X159514674Y-61201192D01*
X159762240Y-61201408D01*
X159991044Y-61106868D01*
X160166253Y-60931965D01*
X160261192Y-60703326D01*
X160261408Y-60455760D01*
X160166868Y-60226956D01*
X159991965Y-60051747D01*
X159763326Y-59956808D01*
X159515760Y-59956592D01*
X159286956Y-60051132D01*
X159165275Y-60172600D01*
X141951607Y-60172600D01*
X141830965Y-60051747D01*
X141602326Y-59956808D01*
X141354760Y-59956592D01*
X141125956Y-60051132D01*
X140950747Y-60226035D01*
X140855808Y-60454674D01*
X140855592Y-60702240D01*
X139941431Y-60702240D01*
X139925965Y-60686747D01*
X139697326Y-60591808D01*
X139449760Y-60591592D01*
X139220956Y-60686132D01*
X139045747Y-60861035D01*
X138950808Y-61089674D01*
X138950592Y-61337240D01*
X134391400Y-61337240D01*
X134391400Y-51304240D01*
X140474592Y-51304240D01*
X140569132Y-51533044D01*
X140744035Y-51708253D01*
X140972674Y-51803192D01*
X141144606Y-51803342D01*
X142841632Y-53500368D01*
X142973477Y-53588465D01*
X143129000Y-53619400D01*
X157387393Y-53619400D01*
X157463460Y-53695600D01*
X144907000Y-53695600D01*
X144751477Y-53726535D01*
X144619632Y-53814632D01*
X141525523Y-56908741D01*
X141354760Y-56908592D01*
X141125956Y-57003132D01*
X140950747Y-57178035D01*
X140855808Y-57406674D01*
X140855592Y-57654240D01*
X140950132Y-57883044D01*
X141125035Y-58058253D01*
X141231574Y-58102492D01*
X141125956Y-58146132D01*
X140950747Y-58321035D01*
X140855808Y-58549674D01*
X140855592Y-58797240D01*
X140950132Y-59026044D01*
X141125035Y-59201253D01*
X141353674Y-59296192D01*
X141601240Y-59296408D01*
X141830044Y-59201868D01*
X142005253Y-59026965D01*
X142100192Y-58798326D01*
X142100342Y-58626394D01*
X145202336Y-55524400D01*
X161959393Y-55524400D01*
X162080035Y-55645253D01*
X162308674Y-55740192D01*
X162556240Y-55740408D01*
X162785044Y-55645868D01*
X162960253Y-55470965D01*
X163055192Y-55242326D01*
X163055408Y-54994760D01*
X162960868Y-54765956D01*
X162785965Y-54590747D01*
X162557326Y-54495808D01*
X162309760Y-54495592D01*
X162080956Y-54590132D01*
X161959275Y-54711600D01*
X158904238Y-54711600D01*
X159102044Y-54629868D01*
X159277253Y-54454965D01*
X159372192Y-54226326D01*
X159372408Y-53978760D01*
X159277868Y-53749956D01*
X159102965Y-53574747D01*
X158874326Y-53479808D01*
X158626760Y-53479592D01*
X158397956Y-53574132D01*
X158276275Y-53695600D01*
X158258391Y-53695600D01*
X158388253Y-53565965D01*
X158483192Y-53337326D01*
X158483408Y-53089760D01*
X158388868Y-52860956D01*
X158213965Y-52685747D01*
X157985326Y-52590808D01*
X157737760Y-52590592D01*
X157508956Y-52685132D01*
X157387275Y-52806600D01*
X143297336Y-52806600D01*
X141719259Y-51228523D01*
X141719408Y-51057760D01*
X141624868Y-50828956D01*
X141449965Y-50653747D01*
X141221326Y-50558808D01*
X140973760Y-50558592D01*
X140744956Y-50653132D01*
X140569747Y-50828035D01*
X140474808Y-51056674D01*
X140474592Y-51304240D01*
X134391400Y-51304240D01*
X134391400Y-49749607D01*
X134512253Y-49628965D01*
X134607192Y-49400326D01*
X134607408Y-49152760D01*
X134512868Y-48923956D01*
X134337965Y-48748747D01*
X134109326Y-48653808D01*
X133861760Y-48653592D01*
X133632956Y-48748132D01*
X133457747Y-48923035D01*
X133362808Y-49151674D01*
X133362592Y-49399240D01*
X133457132Y-49628044D01*
X133578600Y-49749725D01*
X133578600Y-57260609D01*
X133448965Y-57130747D01*
X133220326Y-57035808D01*
X132972760Y-57035592D01*
X132743956Y-57130132D01*
X132568747Y-57305035D01*
X132473808Y-57533674D01*
X132473592Y-57781240D01*
X132568132Y-58010044D01*
X132689600Y-58131725D01*
X132689600Y-58403387D01*
X132686965Y-58400747D01*
X132458326Y-58305808D01*
X132210760Y-58305592D01*
X131981956Y-58400132D01*
X131806747Y-58575035D01*
X131724400Y-58773349D01*
X131724400Y-52035607D01*
X131845253Y-51914965D01*
X131940192Y-51686326D01*
X131940408Y-51438760D01*
X131845868Y-51209956D01*
X131670965Y-51034747D01*
X131442326Y-50939808D01*
X131194760Y-50939592D01*
X130965956Y-51034132D01*
X130790747Y-51209035D01*
X130695808Y-51437674D01*
X130695592Y-51685240D01*
X130790132Y-51914044D01*
X130911600Y-52035725D01*
X130911600Y-59267664D01*
X125015523Y-65163741D01*
X124844760Y-65163592D01*
X124615956Y-65258132D01*
X124440747Y-65433035D01*
X124345808Y-65661674D01*
X124345592Y-65909240D01*
X124440132Y-66138044D01*
X124615035Y-66313253D01*
X124843674Y-66408192D01*
X125091240Y-66408408D01*
X125320044Y-66313868D01*
X125495253Y-66138965D01*
X125590192Y-65910326D01*
X125590342Y-65738394D01*
X131605368Y-59723368D01*
X131693465Y-59591523D01*
X131724400Y-59436000D01*
X131724400Y-59082238D01*
X131806132Y-59280044D01*
X131927600Y-59401725D01*
X131927600Y-60537664D01*
X109267523Y-83197741D01*
X109096760Y-83197592D01*
X108867956Y-83292132D01*
X108692747Y-83467035D01*
X108597808Y-83695674D01*
X108597592Y-83943240D01*
X96621600Y-83943240D01*
X96621600Y-55922084D01*
X100575450Y-51968234D01*
X101558345Y-51562110D01*
X102359298Y-50762554D01*
X102769850Y-49773834D01*
X109262084Y-43281600D01*
X114198400Y-43281600D01*
X114198400Y-48260000D01*
M02*
